<?xml version="1.0" encoding="utf-8" standalone="no"?>
<!DOCTYPE svg PUBLIC "-//W3C//DTD SVG 1.1//EN"
  "http://www.w3.org/Graphics/SVG/1.1/DTD/svg11.dtd">
<svg height="425.19685pt" version="1.1" viewBox="0 0 340.15748 425.19685" width="340.15748pt" xmlns="http://www.w3.org/2000/svg" xmlns:xlink="http://www.w3.org/1999/xlink">
 <metadata>
  <rdf:RDF xmlns:cc="http://creativecommons.org/ns#" xmlns:dc="http://purl.org/dc/elements/1.1/" xmlns:rdf="http://www.w3.org/1999/02/22-rdf-syntax-ns#">
   <cc:Work>
    <dc:type rdf:resource="http://purl.org/dc/dcmitype/StillImage"/>
    <dc:date>2021-04-05T18:00:49.775593</dc:date>
    <dc:format>image/svg+xml</dc:format>
    <dc:creator>
     <cc:Agent>
      <dc:title>Matplotlib v3.4.1, https://matplotlib.org/</dc:title>
     </cc:Agent>
    </dc:creator>
   </cc:Work>
  </rdf:RDF>
 </metadata>
 <defs>
  <style type="text/css">*{stroke-linecap:butt;stroke-linejoin:round;}</style>
 </defs>
 <g id="figure_1">
  <g id="patch_1">
   <path d="M 0 425.19685 
L 340.15748 425.19685 
L 340.15748 0 
L 0 0 
z
" style="fill:#ffffff;"/>
  </g>
  <g id="axes_1">
   <g id="patch_2">
    <path d="M 42.519685 196.94345 
L 306.141732 196.94345 
L 306.141732 51.023622 
L 42.519685 51.023622 
z
" style="fill:#ffffff;"/>
   </g>
   <g id="axes_2">
    <g id="patch_3">
     <path d="M 42.519685 51.023622 
L 306.141732 51.023622 
L 306.141732 51.023622 
L 42.519685 51.023622 
z
" style="fill:#ffffff;"/>
    </g>
    <g id="matplotlib.axis_1">
     <g id="xtick_1">
      <g id="line2d_1">
       <defs>
        <path d="M 0 0 
L 0 -3.5 
" id="m082035a988" style="stroke:#000000;stroke-width:0.8;"/>
       </defs>
       <g>
        <use style="stroke:#000000;stroke-width:0.8;" x="263.206211" xlink:href="#m082035a988" y="51.023622"/>
       </g>
      </g>
      <g id="text_1">
       <!-- $\mathdefault{1.24\times10^{3}}$ -->
       <g transform="translate(237.406211 41.943935)scale(0.1 -0.1)">
        <defs>
         <path d="M 794 531 
L 1825 531 
L 1825 4091 
L 703 3866 
L 703 4441 
L 1819 4666 
L 2450 4666 
L 2450 531 
L 3481 531 
L 3481 0 
L 794 0 
L 794 531 
z
" id="DejaVuSans-31" transform="scale(0.015625)"/>
         <path d="M 684 794 
L 1344 794 
L 1344 0 
L 684 0 
L 684 794 
z
" id="DejaVuSans-2e" transform="scale(0.015625)"/>
         <path d="M 1228 531 
L 3431 531 
L 3431 0 
L 469 0 
L 469 531 
Q 828 903 1448 1529 
Q 2069 2156 2228 2338 
Q 2531 2678 2651 2914 
Q 2772 3150 2772 3378 
Q 2772 3750 2511 3984 
Q 2250 4219 1831 4219 
Q 1534 4219 1204 4116 
Q 875 4013 500 3803 
L 500 4441 
Q 881 4594 1212 4672 
Q 1544 4750 1819 4750 
Q 2544 4750 2975 4387 
Q 3406 4025 3406 3419 
Q 3406 3131 3298 2873 
Q 3191 2616 2906 2266 
Q 2828 2175 2409 1742 
Q 1991 1309 1228 531 
z
" id="DejaVuSans-32" transform="scale(0.015625)"/>
         <path d="M 2419 4116 
L 825 1625 
L 2419 1625 
L 2419 4116 
z
M 2253 4666 
L 3047 4666 
L 3047 1625 
L 3713 1625 
L 3713 1100 
L 3047 1100 
L 3047 0 
L 2419 0 
L 2419 1100 
L 313 1100 
L 313 1709 
L 2253 4666 
z
" id="DejaVuSans-34" transform="scale(0.015625)"/>
         <path d="M 4488 3438 
L 3059 2003 
L 4488 575 
L 4116 197 
L 2681 1631 
L 1247 197 
L 878 575 
L 2303 2003 
L 878 3438 
L 1247 3816 
L 2681 2381 
L 4116 3816 
L 4488 3438 
z
" id="DejaVuSans-d7" transform="scale(0.015625)"/>
         <path d="M 2034 4250 
Q 1547 4250 1301 3770 
Q 1056 3291 1056 2328 
Q 1056 1369 1301 889 
Q 1547 409 2034 409 
Q 2525 409 2770 889 
Q 3016 1369 3016 2328 
Q 3016 3291 2770 3770 
Q 2525 4250 2034 4250 
z
M 2034 4750 
Q 2819 4750 3233 4129 
Q 3647 3509 3647 2328 
Q 3647 1150 3233 529 
Q 2819 -91 2034 -91 
Q 1250 -91 836 529 
Q 422 1150 422 2328 
Q 422 3509 836 4129 
Q 1250 4750 2034 4750 
z
" id="DejaVuSans-30" transform="scale(0.015625)"/>
         <path d="M 2597 2516 
Q 3050 2419 3304 2112 
Q 3559 1806 3559 1356 
Q 3559 666 3084 287 
Q 2609 -91 1734 -91 
Q 1441 -91 1130 -33 
Q 819 25 488 141 
L 488 750 
Q 750 597 1062 519 
Q 1375 441 1716 441 
Q 2309 441 2620 675 
Q 2931 909 2931 1356 
Q 2931 1769 2642 2001 
Q 2353 2234 1838 2234 
L 1294 2234 
L 1294 2753 
L 1863 2753 
Q 2328 2753 2575 2939 
Q 2822 3125 2822 3475 
Q 2822 3834 2567 4026 
Q 2313 4219 1838 4219 
Q 1578 4219 1281 4162 
Q 984 4106 628 3988 
L 628 4550 
Q 988 4650 1302 4700 
Q 1616 4750 1894 4750 
Q 2613 4750 3031 4423 
Q 3450 4097 3450 3541 
Q 3450 3153 3228 2886 
Q 3006 2619 2597 2516 
z
" id="DejaVuSans-33" transform="scale(0.015625)"/>
        </defs>
        <use transform="translate(0 0.765625)" xlink:href="#DejaVuSans-31"/>
        <use transform="translate(63.623047 0.765625)" xlink:href="#DejaVuSans-2e"/>
        <use transform="translate(89.910156 0.765625)" xlink:href="#DejaVuSans-32"/>
        <use transform="translate(153.533203 0.765625)" xlink:href="#DejaVuSans-34"/>
        <use transform="translate(236.638672 0.765625)" xlink:href="#DejaVuSans-d7"/>
        <use transform="translate(339.910156 0.765625)" xlink:href="#DejaVuSans-31"/>
        <use transform="translate(403.533203 0.765625)" xlink:href="#DejaVuSans-30"/>
        <use transform="translate(468.113281 39.046875)scale(0.7)" xlink:href="#DejaVuSans-33"/>
       </g>
      </g>
     </g>
     <g id="xtick_2">
      <g id="line2d_2">
       <g>
        <use style="stroke:#000000;stroke-width:0.8;" x="279.814756" xlink:href="#m082035a988" y="51.023622"/>
       </g>
      </g>
     </g>
     <g id="xtick_3">
      <g id="line2d_3">
       <g>
        <use style="stroke:#000000;stroke-width:0.8;" x="289.549464" xlink:href="#m082035a988" y="51.023622"/>
       </g>
      </g>
     </g>
     <g id="xtick_4">
      <g id="line2d_4">
       <g>
        <use style="stroke:#000000;stroke-width:0.8;" x="296.423302" xlink:href="#m082035a988" y="51.023622"/>
       </g>
      </g>
     </g>
     <g id="xtick_5">
      <g id="line2d_5">
       <g>
        <use style="stroke:#000000;stroke-width:0.8;" x="301.77006" xlink:href="#m082035a988" y="51.023622"/>
       </g>
      </g>
     </g>
     <g id="xtick_6">
      <g id="line2d_6">
       <g>
        <use style="stroke:#000000;stroke-width:0.8;" x="306.100063" xlink:href="#m082035a988" y="51.023622"/>
       </g>
      </g>
     </g>
     <g id="xtick_7">
      <g id="line2d_7">
       <defs>
        <path d="M 0 0 
L 0 -2 
" id="m20c78bdc1c" style="stroke:#000000;stroke-width:0.6;"/>
       </defs>
       <g>
        <use style="stroke:#000000;stroke-width:0.6;" x="297.208981" xlink:href="#m20c78bdc1c" y="51.023622"/>
       </g>
      </g>
     </g>
     <g id="xtick_8">
      <g id="line2d_8">
       <g>
        <use style="stroke:#000000;stroke-width:0.6;" x="290.315812" xlink:href="#m20c78bdc1c" y="51.023622"/>
       </g>
      </g>
     </g>
     <g id="xtick_9">
      <g id="line2d_9">
       <g>
        <use style="stroke:#000000;stroke-width:0.6;" x="284.969055" xlink:href="#m20c78bdc1c" y="51.023622"/>
       </g>
      </g>
     </g>
     <g id="xtick_10">
      <g id="line2d_10">
       <g>
        <use style="stroke:#000000;stroke-width:0.6;" x="280.600436" xlink:href="#m20c78bdc1c" y="51.023622"/>
       </g>
      </g>
     </g>
     <g id="xtick_11">
      <g id="line2d_11">
       <g>
        <use style="stroke:#000000;stroke-width:0.6;" x="276.906821" xlink:href="#m20c78bdc1c" y="51.023622"/>
       </g>
      </g>
     </g>
     <g id="xtick_12">
      <g id="line2d_12">
       <g>
        <use style="stroke:#000000;stroke-width:0.6;" x="273.707266" xlink:href="#m20c78bdc1c" y="51.023622"/>
       </g>
      </g>
     </g>
     <g id="xtick_13">
      <g id="line2d_13">
       <g>
        <use style="stroke:#000000;stroke-width:0.6;" x="270.885059" xlink:href="#m20c78bdc1c" y="51.023622"/>
       </g>
      </g>
     </g>
     <g id="xtick_14">
      <g id="line2d_14">
       <g>
        <use style="stroke:#000000;stroke-width:0.6;" x="251.751963" xlink:href="#m20c78bdc1c" y="51.023622"/>
       </g>
      </g>
     </g>
     <g id="xtick_15">
      <g id="line2d_15">
       <g>
        <use style="stroke:#000000;stroke-width:0.6;" x="242.036587" xlink:href="#m20c78bdc1c" y="51.023622"/>
       </g>
      </g>
     </g>
     <g id="xtick_16">
      <g id="line2d_16">
       <g>
        <use style="stroke:#000000;stroke-width:0.6;" x="235.143417" xlink:href="#m20c78bdc1c" y="51.023622"/>
       </g>
      </g>
     </g>
     <g id="xtick_17">
      <g id="line2d_17">
       <g>
        <use style="stroke:#000000;stroke-width:0.6;" x="229.79666" xlink:href="#m20c78bdc1c" y="51.023622"/>
       </g>
      </g>
     </g>
     <g id="xtick_18">
      <g id="line2d_18">
       <g>
        <use style="stroke:#000000;stroke-width:0.6;" x="225.428041" xlink:href="#m20c78bdc1c" y="51.023622"/>
       </g>
      </g>
     </g>
     <g id="xtick_19">
      <g id="line2d_19">
       <g>
        <use style="stroke:#000000;stroke-width:0.6;" x="221.734426" xlink:href="#m20c78bdc1c" y="51.023622"/>
       </g>
      </g>
     </g>
     <g id="xtick_20">
      <g id="line2d_20">
       <g>
        <use style="stroke:#000000;stroke-width:0.6;" x="218.534871" xlink:href="#m20c78bdc1c" y="51.023622"/>
       </g>
      </g>
     </g>
     <g id="xtick_21">
      <g id="line2d_21">
       <g>
        <use style="stroke:#000000;stroke-width:0.6;" x="215.712664" xlink:href="#m20c78bdc1c" y="51.023622"/>
       </g>
      </g>
     </g>
     <g id="xtick_22">
      <g id="line2d_22">
       <g>
        <use style="stroke:#000000;stroke-width:0.6;" x="196.579568" xlink:href="#m20c78bdc1c" y="51.023622"/>
       </g>
      </g>
     </g>
     <g id="xtick_23">
      <g id="line2d_23">
       <g>
        <use style="stroke:#000000;stroke-width:0.6;" x="186.864192" xlink:href="#m20c78bdc1c" y="51.023622"/>
       </g>
      </g>
     </g>
     <g id="xtick_24">
      <g id="line2d_24">
       <g>
        <use style="stroke:#000000;stroke-width:0.6;" x="179.971022" xlink:href="#m20c78bdc1c" y="51.023622"/>
       </g>
      </g>
     </g>
     <g id="xtick_25">
      <g id="line2d_25">
       <g>
        <use style="stroke:#000000;stroke-width:0.6;" x="174.624265" xlink:href="#m20c78bdc1c" y="51.023622"/>
       </g>
      </g>
     </g>
     <g id="xtick_26">
      <g id="line2d_26">
       <g>
        <use style="stroke:#000000;stroke-width:0.6;" x="170.255646" xlink:href="#m20c78bdc1c" y="51.023622"/>
       </g>
      </g>
     </g>
     <g id="xtick_27">
      <g id="line2d_27">
       <g>
        <use style="stroke:#000000;stroke-width:0.6;" x="166.562031" xlink:href="#m20c78bdc1c" y="51.023622"/>
       </g>
      </g>
     </g>
     <g id="xtick_28">
      <g id="line2d_28">
       <g>
        <use style="stroke:#000000;stroke-width:0.6;" x="163.362477" xlink:href="#m20c78bdc1c" y="51.023622"/>
       </g>
      </g>
     </g>
     <g id="xtick_29">
      <g id="line2d_29">
       <g>
        <use style="stroke:#000000;stroke-width:0.6;" x="160.540269" xlink:href="#m20c78bdc1c" y="51.023622"/>
       </g>
      </g>
     </g>
     <g id="xtick_30">
      <g id="line2d_30">
       <g>
        <use style="stroke:#000000;stroke-width:0.6;" x="141.407173" xlink:href="#m20c78bdc1c" y="51.023622"/>
       </g>
      </g>
     </g>
     <g id="xtick_31">
      <g id="line2d_31">
       <g>
        <use style="stroke:#000000;stroke-width:0.6;" x="131.691797" xlink:href="#m20c78bdc1c" y="51.023622"/>
       </g>
      </g>
     </g>
     <g id="xtick_32">
      <g id="line2d_32">
       <g>
        <use style="stroke:#000000;stroke-width:0.6;" x="124.798628" xlink:href="#m20c78bdc1c" y="51.023622"/>
       </g>
      </g>
     </g>
     <g id="xtick_33">
      <g id="line2d_33">
       <g>
        <use style="stroke:#000000;stroke-width:0.6;" x="119.45187" xlink:href="#m20c78bdc1c" y="51.023622"/>
       </g>
      </g>
     </g>
     <g id="xtick_34">
      <g id="line2d_34">
       <g>
        <use style="stroke:#000000;stroke-width:0.6;" x="115.083251" xlink:href="#m20c78bdc1c" y="51.023622"/>
       </g>
      </g>
     </g>
     <g id="xtick_35">
      <g id="line2d_35">
       <g>
        <use style="stroke:#000000;stroke-width:0.6;" x="111.389636" xlink:href="#m20c78bdc1c" y="51.023622"/>
       </g>
      </g>
     </g>
     <g id="xtick_36">
      <g id="line2d_36">
       <g>
        <use style="stroke:#000000;stroke-width:0.6;" x="108.190082" xlink:href="#m20c78bdc1c" y="51.023622"/>
       </g>
      </g>
     </g>
     <g id="xtick_37">
      <g id="line2d_37">
       <g>
        <use style="stroke:#000000;stroke-width:0.6;" x="105.367875" xlink:href="#m20c78bdc1c" y="51.023622"/>
       </g>
      </g>
     </g>
     <g id="xtick_38">
      <g id="line2d_38">
       <g>
        <use style="stroke:#000000;stroke-width:0.6;" x="86.234779" xlink:href="#m20c78bdc1c" y="51.023622"/>
       </g>
      </g>
     </g>
     <g id="xtick_39">
      <g id="line2d_39">
       <g>
        <use style="stroke:#000000;stroke-width:0.6;" x="76.519402" xlink:href="#m20c78bdc1c" y="51.023622"/>
       </g>
      </g>
     </g>
     <g id="xtick_40">
      <g id="line2d_40">
       <g>
        <use style="stroke:#000000;stroke-width:0.6;" x="69.626233" xlink:href="#m20c78bdc1c" y="51.023622"/>
       </g>
      </g>
     </g>
     <g id="xtick_41">
      <g id="line2d_41">
       <g>
        <use style="stroke:#000000;stroke-width:0.6;" x="64.279475" xlink:href="#m20c78bdc1c" y="51.023622"/>
       </g>
      </g>
     </g>
     <g id="xtick_42">
      <g id="line2d_42">
       <g>
        <use style="stroke:#000000;stroke-width:0.6;" x="59.910856" xlink:href="#m20c78bdc1c" y="51.023622"/>
       </g>
      </g>
     </g>
     <g id="xtick_43">
      <g id="line2d_43">
       <g>
        <use style="stroke:#000000;stroke-width:0.6;" x="56.217242" xlink:href="#m20c78bdc1c" y="51.023622"/>
       </g>
      </g>
     </g>
     <g id="xtick_44">
      <g id="line2d_44">
       <g>
        <use style="stroke:#000000;stroke-width:0.6;" x="53.017687" xlink:href="#m20c78bdc1c" y="51.023622"/>
       </g>
      </g>
     </g>
     <g id="xtick_45">
      <g id="line2d_45">
       <g>
        <use style="stroke:#000000;stroke-width:0.6;" x="50.19548" xlink:href="#m20c78bdc1c" y="51.023622"/>
       </g>
      </g>
     </g>
     <g id="text_2">
      <!-- $\lambda$(nm) -->
      <g transform="translate(159.430709 30.345497)scale(0.1 -0.1)">
       <defs>
        <path d="M 2350 4316 
L 3125 0 
L 2516 0 
L 2038 2588 
L 328 0 
L -281 0 
L 1903 3356 
L 1794 3975 
Q 1725 4369 1391 4369 
L 1091 4369 
L 1184 4863 
L 1550 4856 
Q 2253 4847 2350 4316 
z
" id="DejaVuSans-Oblique-3bb" transform="scale(0.015625)"/>
        <path d="M 1984 4856 
Q 1566 4138 1362 3434 
Q 1159 2731 1159 2009 
Q 1159 1288 1364 580 
Q 1569 -128 1984 -844 
L 1484 -844 
Q 1016 -109 783 600 
Q 550 1309 550 2009 
Q 550 2706 781 3412 
Q 1013 4119 1484 4856 
L 1984 4856 
z
" id="DejaVuSans-28" transform="scale(0.015625)"/>
        <path d="M 3513 2113 
L 3513 0 
L 2938 0 
L 2938 2094 
Q 2938 2591 2744 2837 
Q 2550 3084 2163 3084 
Q 1697 3084 1428 2787 
Q 1159 2491 1159 1978 
L 1159 0 
L 581 0 
L 581 3500 
L 1159 3500 
L 1159 2956 
Q 1366 3272 1645 3428 
Q 1925 3584 2291 3584 
Q 2894 3584 3203 3211 
Q 3513 2838 3513 2113 
z
" id="DejaVuSans-6e" transform="scale(0.015625)"/>
        <path d="M 3328 2828 
Q 3544 3216 3844 3400 
Q 4144 3584 4550 3584 
Q 5097 3584 5394 3201 
Q 5691 2819 5691 2113 
L 5691 0 
L 5113 0 
L 5113 2094 
Q 5113 2597 4934 2840 
Q 4756 3084 4391 3084 
Q 3944 3084 3684 2787 
Q 3425 2491 3425 1978 
L 3425 0 
L 2847 0 
L 2847 2094 
Q 2847 2600 2669 2842 
Q 2491 3084 2119 3084 
Q 1678 3084 1418 2786 
Q 1159 2488 1159 1978 
L 1159 0 
L 581 0 
L 581 3500 
L 1159 3500 
L 1159 2956 
Q 1356 3278 1631 3431 
Q 1906 3584 2284 3584 
Q 2666 3584 2933 3390 
Q 3200 3197 3328 2828 
z
" id="DejaVuSans-6d" transform="scale(0.015625)"/>
        <path d="M 513 4856 
L 1013 4856 
Q 1481 4119 1714 3412 
Q 1947 2706 1947 2009 
Q 1947 1309 1714 600 
Q 1481 -109 1013 -844 
L 513 -844 
Q 928 -128 1133 580 
Q 1338 1288 1338 2009 
Q 1338 2731 1133 3434 
Q 928 4138 513 4856 
z
" id="DejaVuSans-29" transform="scale(0.015625)"/>
       </defs>
       <use transform="translate(0 0.015625)" xlink:href="#DejaVuSans-Oblique-3bb"/>
       <use transform="translate(59.179688 0.015625)" xlink:href="#DejaVuSans-28"/>
       <use transform="translate(98.193359 0.015625)" xlink:href="#DejaVuSans-6e"/>
       <use transform="translate(161.572266 0.015625)" xlink:href="#DejaVuSans-6d"/>
       <use transform="translate(258.984375 0.015625)" xlink:href="#DejaVuSans-29"/>
      </g>
     </g>
    </g>
    <g id="matplotlib.axis_2"/>
    <g id="patch_4">
     <path d="M 306.141732 51.023622 
L 42.519685 51.023622 
" style="fill:none;stroke:#000000;stroke-linecap:square;stroke-linejoin:miter;stroke-width:0.8;"/>
    </g>
   </g>
   <g id="matplotlib.axis_3">
    <g id="xtick_46">
     <g id="line2d_46">
      <defs>
       <path d="M 0 0 
L 0 3.5 
" id="mc512ea7df9" style="stroke:#000000;stroke-width:0.8;"/>
      </defs>
      <g>
       <use style="stroke:#000000;stroke-width:0.8;" x="42.519685" xlink:href="#mc512ea7df9" y="196.94345"/>
      </g>
     </g>
     <g id="text_3">
      <!-- $\mathdefault{10^{-4}}$ -->
      <g transform="translate(30.769685 211.541888)scale(0.1 -0.1)">
       <defs>
        <path d="M 678 2272 
L 4684 2272 
L 4684 1741 
L 678 1741 
L 678 2272 
z
" id="DejaVuSans-2212" transform="scale(0.015625)"/>
       </defs>
       <use transform="translate(0 0.684375)" xlink:href="#DejaVuSans-31"/>
       <use transform="translate(63.623047 0.684375)" xlink:href="#DejaVuSans-30"/>
       <use transform="translate(128.203125 38.965625)scale(0.7)" xlink:href="#DejaVuSans-2212"/>
       <use transform="translate(186.855469 38.965625)scale(0.7)" xlink:href="#DejaVuSans-34"/>
      </g>
     </g>
    </g>
    <g id="xtick_47">
     <g id="line2d_47">
      <g>
       <use style="stroke:#000000;stroke-width:0.8;" x="97.69208" xlink:href="#mc512ea7df9" y="196.94345"/>
      </g>
     </g>
     <g id="text_4">
      <!-- $\mathdefault{10^{-3}}$ -->
      <g transform="translate(85.94208 211.541888)scale(0.1 -0.1)">
       <use transform="translate(0 0.765625)" xlink:href="#DejaVuSans-31"/>
       <use transform="translate(63.623047 0.765625)" xlink:href="#DejaVuSans-30"/>
       <use transform="translate(128.203125 39.046875)scale(0.7)" xlink:href="#DejaVuSans-2212"/>
       <use transform="translate(186.855469 39.046875)scale(0.7)" xlink:href="#DejaVuSans-33"/>
      </g>
     </g>
    </g>
    <g id="xtick_48">
     <g id="line2d_48">
      <g>
       <use style="stroke:#000000;stroke-width:0.8;" x="152.864475" xlink:href="#mc512ea7df9" y="196.94345"/>
      </g>
     </g>
     <g id="text_5">
      <!-- $\mathdefault{10^{-2}}$ -->
      <g transform="translate(141.114475 211.541888)scale(0.1 -0.1)">
       <use transform="translate(0 0.765625)" xlink:href="#DejaVuSans-31"/>
       <use transform="translate(63.623047 0.765625)" xlink:href="#DejaVuSans-30"/>
       <use transform="translate(128.203125 39.046875)scale(0.7)" xlink:href="#DejaVuSans-2212"/>
       <use transform="translate(186.855469 39.046875)scale(0.7)" xlink:href="#DejaVuSans-32"/>
      </g>
     </g>
    </g>
    <g id="xtick_49">
     <g id="line2d_49">
      <g>
       <use style="stroke:#000000;stroke-width:0.8;" x="208.036869" xlink:href="#mc512ea7df9" y="196.94345"/>
      </g>
     </g>
     <g id="text_6">
      <!-- $\mathdefault{10^{-1}}$ -->
      <g transform="translate(196.286869 211.541888)scale(0.1 -0.1)">
       <use transform="translate(0 0.684375)" xlink:href="#DejaVuSans-31"/>
       <use transform="translate(63.623047 0.684375)" xlink:href="#DejaVuSans-30"/>
       <use transform="translate(128.203125 38.965625)scale(0.7)" xlink:href="#DejaVuSans-2212"/>
       <use transform="translate(186.855469 38.965625)scale(0.7)" xlink:href="#DejaVuSans-31"/>
      </g>
     </g>
    </g>
    <g id="xtick_50">
     <g id="line2d_50">
      <g>
       <use style="stroke:#000000;stroke-width:0.8;" x="263.209264" xlink:href="#mc512ea7df9" y="196.94345"/>
      </g>
     </g>
     <g id="text_7">
      <!-- $\mathdefault{10^{0}}$ -->
      <g transform="translate(254.409264 211.541888)scale(0.1 -0.1)">
       <use transform="translate(0 0.765625)" xlink:href="#DejaVuSans-31"/>
       <use transform="translate(63.623047 0.765625)" xlink:href="#DejaVuSans-30"/>
       <use transform="translate(128.203125 39.046875)scale(0.7)" xlink:href="#DejaVuSans-30"/>
      </g>
     </g>
    </g>
    <g id="xtick_51">
     <g id="line2d_51">
      <defs>
       <path d="M 0 0 
L 0 2 
" id="m613cb441b8" style="stroke:#000000;stroke-width:0.6;"/>
      </defs>
      <g>
       <use style="stroke:#000000;stroke-width:0.6;" x="59.128231" xlink:href="#m613cb441b8" y="196.94345"/>
      </g>
     </g>
    </g>
    <g id="xtick_52">
     <g id="line2d_52">
      <g>
       <use style="stroke:#000000;stroke-width:0.6;" x="68.843607" xlink:href="#m613cb441b8" y="196.94345"/>
      </g>
     </g>
    </g>
    <g id="xtick_53">
     <g id="line2d_53">
      <g>
       <use style="stroke:#000000;stroke-width:0.6;" x="75.736777" xlink:href="#m613cb441b8" y="196.94345"/>
      </g>
     </g>
    </g>
    <g id="xtick_54">
     <g id="line2d_54">
      <g>
       <use style="stroke:#000000;stroke-width:0.6;" x="81.083534" xlink:href="#m613cb441b8" y="196.94345"/>
      </g>
     </g>
    </g>
    <g id="xtick_55">
     <g id="line2d_55">
      <g>
       <use style="stroke:#000000;stroke-width:0.6;" x="85.452153" xlink:href="#m613cb441b8" y="196.94345"/>
      </g>
     </g>
    </g>
    <g id="xtick_56">
     <g id="line2d_56">
      <g>
       <use style="stroke:#000000;stroke-width:0.6;" x="89.145768" xlink:href="#m613cb441b8" y="196.94345"/>
      </g>
     </g>
    </g>
    <g id="xtick_57">
     <g id="line2d_57">
      <g>
       <use style="stroke:#000000;stroke-width:0.6;" x="92.345322" xlink:href="#m613cb441b8" y="196.94345"/>
      </g>
     </g>
    </g>
    <g id="xtick_58">
     <g id="line2d_58">
      <g>
       <use style="stroke:#000000;stroke-width:0.6;" x="95.16753" xlink:href="#m613cb441b8" y="196.94345"/>
      </g>
     </g>
    </g>
    <g id="xtick_59">
     <g id="line2d_59">
      <g>
       <use style="stroke:#000000;stroke-width:0.6;" x="114.300626" xlink:href="#m613cb441b8" y="196.94345"/>
      </g>
     </g>
    </g>
    <g id="xtick_60">
     <g id="line2d_60">
      <g>
       <use style="stroke:#000000;stroke-width:0.6;" x="124.016002" xlink:href="#m613cb441b8" y="196.94345"/>
      </g>
     </g>
    </g>
    <g id="xtick_61">
     <g id="line2d_61">
      <g>
       <use style="stroke:#000000;stroke-width:0.6;" x="130.909171" xlink:href="#m613cb441b8" y="196.94345"/>
      </g>
     </g>
    </g>
    <g id="xtick_62">
     <g id="line2d_62">
      <g>
       <use style="stroke:#000000;stroke-width:0.6;" x="136.255929" xlink:href="#m613cb441b8" y="196.94345"/>
      </g>
     </g>
    </g>
    <g id="xtick_63">
     <g id="line2d_63">
      <g>
       <use style="stroke:#000000;stroke-width:0.6;" x="140.624548" xlink:href="#m613cb441b8" y="196.94345"/>
      </g>
     </g>
    </g>
    <g id="xtick_64">
     <g id="line2d_64">
      <g>
       <use style="stroke:#000000;stroke-width:0.6;" x="144.318163" xlink:href="#m613cb441b8" y="196.94345"/>
      </g>
     </g>
    </g>
    <g id="xtick_65">
     <g id="line2d_65">
      <g>
       <use style="stroke:#000000;stroke-width:0.6;" x="147.517717" xlink:href="#m613cb441b8" y="196.94345"/>
      </g>
     </g>
    </g>
    <g id="xtick_66">
     <g id="line2d_66">
      <g>
       <use style="stroke:#000000;stroke-width:0.6;" x="150.339924" xlink:href="#m613cb441b8" y="196.94345"/>
      </g>
     </g>
    </g>
    <g id="xtick_67">
     <g id="line2d_67">
      <g>
       <use style="stroke:#000000;stroke-width:0.6;" x="169.47302" xlink:href="#m613cb441b8" y="196.94345"/>
      </g>
     </g>
    </g>
    <g id="xtick_68">
     <g id="line2d_68">
      <g>
       <use style="stroke:#000000;stroke-width:0.6;" x="179.188397" xlink:href="#m613cb441b8" y="196.94345"/>
      </g>
     </g>
    </g>
    <g id="xtick_69">
     <g id="line2d_69">
      <g>
       <use style="stroke:#000000;stroke-width:0.6;" x="186.081566" xlink:href="#m613cb441b8" y="196.94345"/>
      </g>
     </g>
    </g>
    <g id="xtick_70">
     <g id="line2d_70">
      <g>
       <use style="stroke:#000000;stroke-width:0.6;" x="191.428324" xlink:href="#m613cb441b8" y="196.94345"/>
      </g>
     </g>
    </g>
    <g id="xtick_71">
     <g id="line2d_71">
      <g>
       <use style="stroke:#000000;stroke-width:0.6;" x="195.796943" xlink:href="#m613cb441b8" y="196.94345"/>
      </g>
     </g>
    </g>
    <g id="xtick_72">
     <g id="line2d_72">
      <g>
       <use style="stroke:#000000;stroke-width:0.6;" x="199.490557" xlink:href="#m613cb441b8" y="196.94345"/>
      </g>
     </g>
    </g>
    <g id="xtick_73">
     <g id="line2d_73">
      <g>
       <use style="stroke:#000000;stroke-width:0.6;" x="202.690112" xlink:href="#m613cb441b8" y="196.94345"/>
      </g>
     </g>
    </g>
    <g id="xtick_74">
     <g id="line2d_74">
      <g>
       <use style="stroke:#000000;stroke-width:0.6;" x="205.512319" xlink:href="#m613cb441b8" y="196.94345"/>
      </g>
     </g>
    </g>
    <g id="xtick_75">
     <g id="line2d_75">
      <g>
       <use style="stroke:#000000;stroke-width:0.6;" x="224.645415" xlink:href="#m613cb441b8" y="196.94345"/>
      </g>
     </g>
    </g>
    <g id="xtick_76">
     <g id="line2d_76">
      <g>
       <use style="stroke:#000000;stroke-width:0.6;" x="234.360792" xlink:href="#m613cb441b8" y="196.94345"/>
      </g>
     </g>
    </g>
    <g id="xtick_77">
     <g id="line2d_77">
      <g>
       <use style="stroke:#000000;stroke-width:0.6;" x="241.253961" xlink:href="#m613cb441b8" y="196.94345"/>
      </g>
     </g>
    </g>
    <g id="xtick_78">
     <g id="line2d_78">
      <g>
       <use style="stroke:#000000;stroke-width:0.6;" x="246.600719" xlink:href="#m613cb441b8" y="196.94345"/>
      </g>
     </g>
    </g>
    <g id="xtick_79">
     <g id="line2d_79">
      <g>
       <use style="stroke:#000000;stroke-width:0.6;" x="250.969337" xlink:href="#m613cb441b8" y="196.94345"/>
      </g>
     </g>
    </g>
    <g id="xtick_80">
     <g id="line2d_80">
      <g>
       <use style="stroke:#000000;stroke-width:0.6;" x="254.662952" xlink:href="#m613cb441b8" y="196.94345"/>
      </g>
     </g>
    </g>
    <g id="xtick_81">
     <g id="line2d_81">
      <g>
       <use style="stroke:#000000;stroke-width:0.6;" x="257.862507" xlink:href="#m613cb441b8" y="196.94345"/>
      </g>
     </g>
    </g>
    <g id="xtick_82">
     <g id="line2d_82">
      <g>
       <use style="stroke:#000000;stroke-width:0.6;" x="260.684714" xlink:href="#m613cb441b8" y="196.94345"/>
      </g>
     </g>
    </g>
    <g id="xtick_83">
     <g id="line2d_83">
      <g>
       <use style="stroke:#000000;stroke-width:0.6;" x="279.81781" xlink:href="#m613cb441b8" y="196.94345"/>
      </g>
     </g>
    </g>
    <g id="xtick_84">
     <g id="line2d_84">
      <g>
       <use style="stroke:#000000;stroke-width:0.6;" x="289.533187" xlink:href="#m613cb441b8" y="196.94345"/>
      </g>
     </g>
    </g>
    <g id="xtick_85">
     <g id="line2d_85">
      <g>
       <use style="stroke:#000000;stroke-width:0.6;" x="296.426356" xlink:href="#m613cb441b8" y="196.94345"/>
      </g>
     </g>
    </g>
    <g id="xtick_86">
     <g id="line2d_86">
      <g>
       <use style="stroke:#000000;stroke-width:0.6;" x="301.773113" xlink:href="#m613cb441b8" y="196.94345"/>
      </g>
     </g>
    </g>
    <g id="xtick_87">
     <g id="line2d_87">
      <g>
       <use style="stroke:#000000;stroke-width:0.6;" x="306.141732" xlink:href="#m613cb441b8" y="196.94345"/>
      </g>
     </g>
    </g>
   </g>
   <g id="matplotlib.axis_4">
    <g id="ytick_1">
     <g id="line2d_88">
      <defs>
       <path d="M 0 0 
L -3.5 0 
" id="mccc4e37be5" style="stroke:#000000;stroke-width:0.8;"/>
      </defs>
      <g>
       <use style="stroke:#000000;stroke-width:0.8;" x="42.519685" xlink:href="#mccc4e37be5" y="187.259382"/>
      </g>
     </g>
     <g id="text_8">
      <!-- 0.00 -->
      <g transform="translate(13.25406 191.058601)scale(0.1 -0.1)">
       <use xlink:href="#DejaVuSans-30"/>
       <use x="63.623047" xlink:href="#DejaVuSans-2e"/>
       <use x="95.410156" xlink:href="#DejaVuSans-30"/>
       <use x="159.033203" xlink:href="#DejaVuSans-30"/>
      </g>
     </g>
    </g>
    <g id="ytick_2">
     <g id="line2d_89">
      <g>
       <use style="stroke:#000000;stroke-width:0.8;" x="42.519685" xlink:href="#mccc4e37be5" y="162.441052"/>
      </g>
     </g>
     <g id="text_9">
      <!-- 0.25 -->
      <g transform="translate(13.25406 166.240271)scale(0.1 -0.1)">
       <defs>
        <path d="M 691 4666 
L 3169 4666 
L 3169 4134 
L 1269 4134 
L 1269 2991 
Q 1406 3038 1543 3061 
Q 1681 3084 1819 3084 
Q 2600 3084 3056 2656 
Q 3513 2228 3513 1497 
Q 3513 744 3044 326 
Q 2575 -91 1722 -91 
Q 1428 -91 1123 -41 
Q 819 9 494 109 
L 494 744 
Q 775 591 1075 516 
Q 1375 441 1709 441 
Q 2250 441 2565 725 
Q 2881 1009 2881 1497 
Q 2881 1984 2565 2268 
Q 2250 2553 1709 2553 
Q 1456 2553 1204 2497 
Q 953 2441 691 2322 
L 691 4666 
z
" id="DejaVuSans-35" transform="scale(0.015625)"/>
       </defs>
       <use xlink:href="#DejaVuSans-30"/>
       <use x="63.623047" xlink:href="#DejaVuSans-2e"/>
       <use x="95.410156" xlink:href="#DejaVuSans-32"/>
       <use x="159.033203" xlink:href="#DejaVuSans-35"/>
      </g>
     </g>
    </g>
    <g id="ytick_3">
     <g id="line2d_90">
      <g>
       <use style="stroke:#000000;stroke-width:0.8;" x="42.519685" xlink:href="#mccc4e37be5" y="137.622721"/>
      </g>
     </g>
     <g id="text_10">
      <!-- 0.50 -->
      <g transform="translate(13.25406 141.42194)scale(0.1 -0.1)">
       <use xlink:href="#DejaVuSans-30"/>
       <use x="63.623047" xlink:href="#DejaVuSans-2e"/>
       <use x="95.410156" xlink:href="#DejaVuSans-35"/>
       <use x="159.033203" xlink:href="#DejaVuSans-30"/>
      </g>
     </g>
    </g>
    <g id="ytick_4">
     <g id="line2d_91">
      <g>
       <use style="stroke:#000000;stroke-width:0.8;" x="42.519685" xlink:href="#mccc4e37be5" y="112.804391"/>
      </g>
     </g>
     <g id="text_11">
      <!-- 0.75 -->
      <g transform="translate(13.25406 116.60361)scale(0.1 -0.1)">
       <defs>
        <path d="M 525 4666 
L 3525 4666 
L 3525 4397 
L 1831 0 
L 1172 0 
L 2766 4134 
L 525 4134 
L 525 4666 
z
" id="DejaVuSans-37" transform="scale(0.015625)"/>
       </defs>
       <use xlink:href="#DejaVuSans-30"/>
       <use x="63.623047" xlink:href="#DejaVuSans-2e"/>
       <use x="95.410156" xlink:href="#DejaVuSans-37"/>
       <use x="159.033203" xlink:href="#DejaVuSans-35"/>
      </g>
     </g>
    </g>
    <g id="ytick_5">
     <g id="line2d_92">
      <g>
       <use style="stroke:#000000;stroke-width:0.8;" x="42.519685" xlink:href="#mccc4e37be5" y="87.986061"/>
      </g>
     </g>
     <g id="text_12">
      <!-- 1.00 -->
      <g transform="translate(13.25406 91.78528)scale(0.1 -0.1)">
       <use xlink:href="#DejaVuSans-31"/>
       <use x="63.623047" xlink:href="#DejaVuSans-2e"/>
       <use x="95.410156" xlink:href="#DejaVuSans-30"/>
       <use x="159.033203" xlink:href="#DejaVuSans-30"/>
      </g>
     </g>
    </g>
    <g id="ytick_6">
     <g id="line2d_93">
      <g>
       <use style="stroke:#000000;stroke-width:0.8;" x="42.519685" xlink:href="#mccc4e37be5" y="63.16773"/>
      </g>
     </g>
     <g id="text_13">
      <!-- 1.25 -->
      <g transform="translate(13.25406 66.966949)scale(0.1 -0.1)">
       <use xlink:href="#DejaVuSans-31"/>
       <use x="63.623047" xlink:href="#DejaVuSans-2e"/>
       <use x="95.410156" xlink:href="#DejaVuSans-32"/>
       <use x="159.033203" xlink:href="#DejaVuSans-35"/>
      </g>
     </g>
    </g>
    <g id="text_14">
     <!-- Imaginary Conductivity, Im($\sigma$) -->
     <g transform="translate(7.15406 198.483536)rotate(-90)scale(0.1 -0.1)">
      <defs>
       <path d="M 628 4666 
L 1259 4666 
L 1259 0 
L 628 0 
L 628 4666 
z
" id="DejaVuSans-49" transform="scale(0.015625)"/>
       <path d="M 2194 1759 
Q 1497 1759 1228 1600 
Q 959 1441 959 1056 
Q 959 750 1161 570 
Q 1363 391 1709 391 
Q 2188 391 2477 730 
Q 2766 1069 2766 1631 
L 2766 1759 
L 2194 1759 
z
M 3341 1997 
L 3341 0 
L 2766 0 
L 2766 531 
Q 2569 213 2275 61 
Q 1981 -91 1556 -91 
Q 1019 -91 701 211 
Q 384 513 384 1019 
Q 384 1609 779 1909 
Q 1175 2209 1959 2209 
L 2766 2209 
L 2766 2266 
Q 2766 2663 2505 2880 
Q 2244 3097 1772 3097 
Q 1472 3097 1187 3025 
Q 903 2953 641 2809 
L 641 3341 
Q 956 3463 1253 3523 
Q 1550 3584 1831 3584 
Q 2591 3584 2966 3190 
Q 3341 2797 3341 1997 
z
" id="DejaVuSans-61" transform="scale(0.015625)"/>
       <path d="M 2906 1791 
Q 2906 2416 2648 2759 
Q 2391 3103 1925 3103 
Q 1463 3103 1205 2759 
Q 947 2416 947 1791 
Q 947 1169 1205 825 
Q 1463 481 1925 481 
Q 2391 481 2648 825 
Q 2906 1169 2906 1791 
z
M 3481 434 
Q 3481 -459 3084 -895 
Q 2688 -1331 1869 -1331 
Q 1566 -1331 1297 -1286 
Q 1028 -1241 775 -1147 
L 775 -588 
Q 1028 -725 1275 -790 
Q 1522 -856 1778 -856 
Q 2344 -856 2625 -561 
Q 2906 -266 2906 331 
L 2906 616 
Q 2728 306 2450 153 
Q 2172 0 1784 0 
Q 1141 0 747 490 
Q 353 981 353 1791 
Q 353 2603 747 3093 
Q 1141 3584 1784 3584 
Q 2172 3584 2450 3431 
Q 2728 3278 2906 2969 
L 2906 3500 
L 3481 3500 
L 3481 434 
z
" id="DejaVuSans-67" transform="scale(0.015625)"/>
       <path d="M 603 3500 
L 1178 3500 
L 1178 0 
L 603 0 
L 603 3500 
z
M 603 4863 
L 1178 4863 
L 1178 4134 
L 603 4134 
L 603 4863 
z
" id="DejaVuSans-69" transform="scale(0.015625)"/>
       <path d="M 2631 2963 
Q 2534 3019 2420 3045 
Q 2306 3072 2169 3072 
Q 1681 3072 1420 2755 
Q 1159 2438 1159 1844 
L 1159 0 
L 581 0 
L 581 3500 
L 1159 3500 
L 1159 2956 
Q 1341 3275 1631 3429 
Q 1922 3584 2338 3584 
Q 2397 3584 2469 3576 
Q 2541 3569 2628 3553 
L 2631 2963 
z
" id="DejaVuSans-72" transform="scale(0.015625)"/>
       <path d="M 2059 -325 
Q 1816 -950 1584 -1140 
Q 1353 -1331 966 -1331 
L 506 -1331 
L 506 -850 
L 844 -850 
Q 1081 -850 1212 -737 
Q 1344 -625 1503 -206 
L 1606 56 
L 191 3500 
L 800 3500 
L 1894 763 
L 2988 3500 
L 3597 3500 
L 2059 -325 
z
" id="DejaVuSans-79" transform="scale(0.015625)"/>
       <path id="DejaVuSans-20" transform="scale(0.015625)"/>
       <path d="M 4122 4306 
L 4122 3641 
Q 3803 3938 3442 4084 
Q 3081 4231 2675 4231 
Q 1875 4231 1450 3742 
Q 1025 3253 1025 2328 
Q 1025 1406 1450 917 
Q 1875 428 2675 428 
Q 3081 428 3442 575 
Q 3803 722 4122 1019 
L 4122 359 
Q 3791 134 3420 21 
Q 3050 -91 2638 -91 
Q 1578 -91 968 557 
Q 359 1206 359 2328 
Q 359 3453 968 4101 
Q 1578 4750 2638 4750 
Q 3056 4750 3426 4639 
Q 3797 4528 4122 4306 
z
" id="DejaVuSans-43" transform="scale(0.015625)"/>
       <path d="M 1959 3097 
Q 1497 3097 1228 2736 
Q 959 2375 959 1747 
Q 959 1119 1226 758 
Q 1494 397 1959 397 
Q 2419 397 2687 759 
Q 2956 1122 2956 1747 
Q 2956 2369 2687 2733 
Q 2419 3097 1959 3097 
z
M 1959 3584 
Q 2709 3584 3137 3096 
Q 3566 2609 3566 1747 
Q 3566 888 3137 398 
Q 2709 -91 1959 -91 
Q 1206 -91 779 398 
Q 353 888 353 1747 
Q 353 2609 779 3096 
Q 1206 3584 1959 3584 
z
" id="DejaVuSans-6f" transform="scale(0.015625)"/>
       <path d="M 2906 2969 
L 2906 4863 
L 3481 4863 
L 3481 0 
L 2906 0 
L 2906 525 
Q 2725 213 2448 61 
Q 2172 -91 1784 -91 
Q 1150 -91 751 415 
Q 353 922 353 1747 
Q 353 2572 751 3078 
Q 1150 3584 1784 3584 
Q 2172 3584 2448 3432 
Q 2725 3281 2906 2969 
z
M 947 1747 
Q 947 1113 1208 752 
Q 1469 391 1925 391 
Q 2381 391 2643 752 
Q 2906 1113 2906 1747 
Q 2906 2381 2643 2742 
Q 2381 3103 1925 3103 
Q 1469 3103 1208 2742 
Q 947 2381 947 1747 
z
" id="DejaVuSans-64" transform="scale(0.015625)"/>
       <path d="M 544 1381 
L 544 3500 
L 1119 3500 
L 1119 1403 
Q 1119 906 1312 657 
Q 1506 409 1894 409 
Q 2359 409 2629 706 
Q 2900 1003 2900 1516 
L 2900 3500 
L 3475 3500 
L 3475 0 
L 2900 0 
L 2900 538 
Q 2691 219 2414 64 
Q 2138 -91 1772 -91 
Q 1169 -91 856 284 
Q 544 659 544 1381 
z
M 1991 3584 
L 1991 3584 
z
" id="DejaVuSans-75" transform="scale(0.015625)"/>
       <path d="M 3122 3366 
L 3122 2828 
Q 2878 2963 2633 3030 
Q 2388 3097 2138 3097 
Q 1578 3097 1268 2742 
Q 959 2388 959 1747 
Q 959 1106 1268 751 
Q 1578 397 2138 397 
Q 2388 397 2633 464 
Q 2878 531 3122 666 
L 3122 134 
Q 2881 22 2623 -34 
Q 2366 -91 2075 -91 
Q 1284 -91 818 406 
Q 353 903 353 1747 
Q 353 2603 823 3093 
Q 1294 3584 2113 3584 
Q 2378 3584 2631 3529 
Q 2884 3475 3122 3366 
z
" id="DejaVuSans-63" transform="scale(0.015625)"/>
       <path d="M 1172 4494 
L 1172 3500 
L 2356 3500 
L 2356 3053 
L 1172 3053 
L 1172 1153 
Q 1172 725 1289 603 
Q 1406 481 1766 481 
L 2356 481 
L 2356 0 
L 1766 0 
Q 1100 0 847 248 
Q 594 497 594 1153 
L 594 3053 
L 172 3053 
L 172 3500 
L 594 3500 
L 594 4494 
L 1172 4494 
z
" id="DejaVuSans-74" transform="scale(0.015625)"/>
       <path d="M 191 3500 
L 800 3500 
L 1894 563 
L 2988 3500 
L 3597 3500 
L 2284 0 
L 1503 0 
L 191 3500 
z
" id="DejaVuSans-76" transform="scale(0.015625)"/>
       <path d="M 750 794 
L 1409 794 
L 1409 256 
L 897 -744 
L 494 -744 
L 750 256 
L 750 794 
z
" id="DejaVuSans-2c" transform="scale(0.015625)"/>
       <path d="M 2219 3044 
Q 1744 3044 1422 2700 
Q 1081 2341 969 1747 
Q 844 1119 1044 756 
Q 1241 397 1706 397 
Q 2166 397 2503 759 
Q 2844 1122 2966 1747 
Q 3075 2319 2881 2700 
Q 2700 3044 2219 3044 
z
M 2309 3503 
L 4219 3500 
L 4106 2925 
L 3463 2925 
Q 3706 2438 3575 1747 
Q 3406 888 2884 400 
Q 2359 -91 1609 -91 
Q 856 -91 525 400 
Q 194 888 363 1747 
Q 528 2609 1050 3097 
Q 1484 3503 2309 3503 
z
" id="DejaVuSans-Oblique-3c3" transform="scale(0.015625)"/>
      </defs>
      <use transform="translate(0 0.015625)" xlink:href="#DejaVuSans-49"/>
      <use transform="translate(25.867188 0.015625)" xlink:href="#DejaVuSans-6d"/>
      <use transform="translate(123.279297 0.015625)" xlink:href="#DejaVuSans-61"/>
      <use transform="translate(184.558594 0.015625)" xlink:href="#DejaVuSans-67"/>
      <use transform="translate(248.035156 0.015625)" xlink:href="#DejaVuSans-69"/>
      <use transform="translate(275.818359 0.015625)" xlink:href="#DejaVuSans-6e"/>
      <use transform="translate(339.197266 0.015625)" xlink:href="#DejaVuSans-61"/>
      <use transform="translate(400.476562 0.015625)" xlink:href="#DejaVuSans-72"/>
      <use transform="translate(441.589844 0.015625)" xlink:href="#DejaVuSans-79"/>
      <use transform="translate(500.769531 0.015625)" xlink:href="#DejaVuSans-20"/>
      <use transform="translate(532.556641 0.015625)" xlink:href="#DejaVuSans-43"/>
      <use transform="translate(602.380859 0.015625)" xlink:href="#DejaVuSans-6f"/>
      <use transform="translate(663.5625 0.015625)" xlink:href="#DejaVuSans-6e"/>
      <use transform="translate(726.941406 0.015625)" xlink:href="#DejaVuSans-64"/>
      <use transform="translate(790.417969 0.015625)" xlink:href="#DejaVuSans-75"/>
      <use transform="translate(853.796875 0.015625)" xlink:href="#DejaVuSans-63"/>
      <use transform="translate(908.777344 0.015625)" xlink:href="#DejaVuSans-74"/>
      <use transform="translate(947.986328 0.015625)" xlink:href="#DejaVuSans-69"/>
      <use transform="translate(975.769531 0.015625)" xlink:href="#DejaVuSans-76"/>
      <use transform="translate(1034.949219 0.015625)" xlink:href="#DejaVuSans-69"/>
      <use transform="translate(1062.732422 0.015625)" xlink:href="#DejaVuSans-74"/>
      <use transform="translate(1101.941406 0.015625)" xlink:href="#DejaVuSans-79"/>
      <use transform="translate(1161.121094 0.015625)" xlink:href="#DejaVuSans-2c"/>
      <use transform="translate(1192.908203 0.015625)" xlink:href="#DejaVuSans-20"/>
      <use transform="translate(1224.695312 0.015625)" xlink:href="#DejaVuSans-49"/>
      <use transform="translate(1250.5625 0.015625)" xlink:href="#DejaVuSans-6d"/>
      <use transform="translate(1347.974609 0.015625)" xlink:href="#DejaVuSans-28"/>
      <use transform="translate(1386.988281 0.015625)" xlink:href="#DejaVuSans-Oblique-3c3"/>
      <use transform="translate(1450.367188 0.015625)" xlink:href="#DejaVuSans-29"/>
     </g>
    </g>
    <g id="text_15">
     <!-- 1e17 -->
     <g transform="translate(42.519685 48.023622)scale(0.1 -0.1)">
      <defs>
       <path d="M 3597 1894 
L 3597 1613 
L 953 1613 
Q 991 1019 1311 708 
Q 1631 397 2203 397 
Q 2534 397 2845 478 
Q 3156 559 3463 722 
L 3463 178 
Q 3153 47 2828 -22 
Q 2503 -91 2169 -91 
Q 1331 -91 842 396 
Q 353 884 353 1716 
Q 353 2575 817 3079 
Q 1281 3584 2069 3584 
Q 2775 3584 3186 3129 
Q 3597 2675 3597 1894 
z
M 3022 2063 
Q 3016 2534 2758 2815 
Q 2500 3097 2075 3097 
Q 1594 3097 1305 2825 
Q 1016 2553 972 2059 
L 3022 2063 
z
" id="DejaVuSans-65" transform="scale(0.015625)"/>
      </defs>
      <use xlink:href="#DejaVuSans-31"/>
      <use x="63.623047" xlink:href="#DejaVuSans-65"/>
      <use x="125.146484" xlink:href="#DejaVuSans-31"/>
      <use x="188.769531" xlink:href="#DejaVuSans-37"/>
     </g>
    </g>
   </g>
   <g id="line2d_94">
    <path clip-path="url(#p8ca7aeddf9)" d="M 42.519685 186.922822 
L 48.036925 186.835678 
L 53.554164 186.725971 
L 59.071403 186.58786 
L 64.588643 186.413989 
L 70.105882 186.195101 
L 75.623122 185.919545 
L 81.140361 185.572654 
L 86.657601 185.135969 
L 92.17484 184.586269 
L 97.69208 183.894341 
L 103.209319 183.023463 
L 108.726559 181.927509 
L 114.243798 180.548611 
L 119.761038 178.814331 
L 125.278277 176.63429 
L 130.795517 173.896324 
L 136.312756 170.462442 
L 141.829996 166.165261 
L 147.347235 160.806501 
L 152.864475 154.160729 
L 158.381714 145.99043 
L 163.898954 136.083039 
L 169.416193 124.326161 
L 174.933433 110.839709 
L 180.450672 96.170414 
L 185.967912 81.501595 
L 191.485151 68.725868 
L 197.002391 60.140104 
L 202.51963 57.656342 
L 208.036869 61.88712 
L 213.554109 71.810789 
L 219.071348 85.319548 
L 224.588588 100.165419 
L 230.105827 114.633712 
L 235.623067 127.726556 
L 241.140306 139.032561 
L 246.657546 148.511446 
L 252.174785 156.314584 
L 257.692025 162.669521 
L 263.209264 167.816818 
L 268.726504 171.980347 
L 274.243743 175.356264 
L 279.760983 178.111411 
L 285.278222 180.385988 
L 290.795462 182.297841 
L 296.312701 183.947134 
L 301.829941 185.42087 
L 307.34718 186.797117 
L 312.86442 188.148956 
" style="fill:none;stroke:#a42828;stroke-dasharray:7.4,3.2;stroke-dashoffset:0;stroke-width:2;"/>
   </g>
   <g id="line2d_95">
    <path clip-path="url(#p8ca7aeddf9)" d="M 42.519685 187.259418 
L 48.036925 187.259428 
L 53.554164 187.25944 
L 59.071403 187.259455 
L 64.588643 187.259473 
L 70.105882 187.259497 
L 75.623122 187.259527 
L 81.140361 187.259564 
L 86.657601 187.259611 
L 92.17484 187.25967 
L 97.69208 187.259745 
L 103.209319 187.259839 
L 108.726559 187.259958 
L 114.243798 187.260107 
L 119.761038 187.260294 
L 125.278277 187.26053 
L 130.795517 187.260827 
L 136.312756 187.261202 
L 141.829996 187.261673 
L 147.347235 187.262266 
L 152.864475 187.263013 
L 158.381714 187.263953 
L 163.898954 187.265136 
L 169.416193 187.266626 
L 174.933433 187.268502 
L 180.450672 187.270864 
L 185.967912 187.273837 
L 191.485151 187.277581 
L 197.002391 187.282296 
L 202.51963 187.288233 
L 208.036869 187.295711 
L 213.554109 187.305134 
L 219.071348 187.317013 
L 224.588588 187.332 
L 230.105827 187.350934 
L 235.623067 187.374901 
L 241.140306 187.405337 
L 246.657546 187.444183 
L 252.174785 187.494164 
L 257.692025 187.55929 
L 263.209264 187.645862 
L 268.726504 187.764612 
L 274.243743 187.935675 
L 279.760983 188.201226 
L 285.278222 188.658189 
L 290.795462 189.462294 
L 296.312701 188.900806 
L 301.829941 186.366348 
L 307.34718 186.327422 
L 312.86442 186.547823 
" style="fill:none;stroke:#a4a428;stroke-dasharray:7.4,3.2;stroke-dashoffset:0;stroke-width:2;"/>
   </g>
   <g id="line2d_96">
    <path clip-path="url(#p8ca7aeddf9)" d="M 42.519685 187.259418 
L 48.036925 187.259428 
L 53.554164 187.259439 
L 59.071403 187.259454 
L 64.588643 187.259473 
L 70.105882 187.259496 
L 75.623122 187.259526 
L 81.140361 187.259563 
L 86.657601 187.25961 
L 92.17484 187.259669 
L 97.69208 187.259743 
L 103.209319 187.259836 
L 108.726559 187.259954 
L 114.243798 187.260102 
L 119.761038 187.260289 
L 125.278277 187.260523 
L 130.795517 187.260819 
L 136.312756 187.261191 
L 141.829996 187.261659 
L 147.347235 187.262249 
L 152.864475 187.262992 
L 158.381714 187.263926 
L 163.898954 187.265103 
L 169.416193 187.266584 
L 174.933433 187.26845 
L 180.450672 187.270798 
L 185.967912 187.273755 
L 191.485151 187.27748 
L 197.002391 187.282172 
L 202.51963 187.288084 
L 208.036869 187.295539 
L 213.554109 187.304946 
L 219.071348 187.316836 
L 224.588588 187.331897 
L 230.105827 187.351042 
L 235.623067 187.375519 
L 241.140306 187.407094 
L 246.657546 187.448409 
L 252.174785 187.503694 
L 257.692025 187.580334 
L 263.209264 187.69267 
L 268.726504 187.87246 
L 274.243743 188.202723 
L 279.760983 188.939555 
L 285.278222 190.310731 
L 290.795462 188.131214 
L 296.312701 187.092219 
L 301.829941 187.000576 
L 307.34718 187.030547 
L 312.86442 187.072498 
" style="fill:none;stroke:#28a428;stroke-dasharray:7.4,3.2;stroke-dashoffset:0;stroke-width:2;"/>
   </g>
   <g id="line2d_97">
    <path clip-path="url(#p8ca7aeddf9)" d="M 42.519685 187.259413 
L 48.036925 187.259421 
L 53.554164 187.259431 
L 59.071403 187.259444 
L 64.588643 187.25946 
L 70.105882 187.25948 
L 75.623122 187.259505 
L 81.140361 187.259537 
L 86.657601 187.259577 
L 92.17484 187.259627 
L 97.69208 187.25969 
L 103.209319 187.25977 
L 108.726559 187.259871 
L 114.243798 187.259997 
L 119.761038 187.260157 
L 125.278277 187.260357 
L 130.795517 187.260609 
L 136.312756 187.260927 
L 141.829996 187.261327 
L 147.347235 187.261831 
L 152.864475 187.262465 
L 158.381714 187.263263 
L 163.898954 187.264268 
L 169.416193 187.265534 
L 174.933433 187.267126 
L 180.450672 187.269132 
L 185.967912 187.271656 
L 191.485151 187.274834 
L 197.002391 187.278835 
L 202.51963 187.283872 
L 208.036869 187.290213 
L 213.554109 187.298197 
L 219.071348 187.308248 
L 224.588588 187.320903 
L 230.105827 187.336836 
L 235.623067 187.3569 
L 241.140306 187.382166 
L 246.657546 187.413992 
L 252.174785 187.454091 
L 257.692025 187.504635 
L 263.209264 187.568388 
L 268.726504 187.64887 
L 274.243743 187.750573 
L 279.760983 187.879169 
L 285.278222 188.041484 
L 290.795462 188.244221 
L 296.312701 188.487249 
L 301.829941 188.7353 
L 307.34718 188.819875 
L 312.86442 188.300009 
" style="fill:none;stroke:#28a4a4;stroke-dasharray:7.4,3.2;stroke-dashoffset:0;stroke-width:2;"/>
   </g>
   <g id="line2d_98">
    <path clip-path="url(#p8ca7aeddf9)" d="M 42.519685 187.259387 
L 48.036925 187.259388 
L 53.554164 187.259389 
L 59.071403 187.259391 
L 64.588643 187.259393 
L 70.105882 187.259396 
L 75.623122 187.2594 
L 81.140361 187.259404 
L 86.657601 187.25941 
L 92.17484 187.259418 
L 97.69208 187.259427 
L 103.209319 187.259438 
L 108.726559 187.259453 
L 114.243798 187.259471 
L 119.761038 187.259494 
L 125.278277 187.259523 
L 130.795517 187.25956 
L 136.312756 187.259606 
L 141.829996 187.259664 
L 147.347235 187.259736 
L 152.864475 187.259828 
L 158.381714 187.259944 
L 163.898954 187.260089 
L 169.416193 187.260272 
L 174.933433 187.260503 
L 180.450672 187.260793 
L 185.967912 187.261158 
L 191.485151 187.261618 
L 197.002391 187.262197 
L 202.51963 187.262926 
L 208.036869 187.263843 
L 213.554109 187.264998 
L 219.071348 187.266453 
L 224.588588 187.268283 
L 230.105827 187.270589 
L 235.623067 187.273492 
L 241.140306 187.277147 
L 246.657546 187.281751 
L 252.174785 187.287551 
L 257.692025 187.29486 
L 263.209264 187.304079 
L 268.726504 187.315716 
L 274.243743 187.330432 
L 279.760983 187.349087 
L 285.278222 187.372834 
L 290.795462 187.403259 
L 296.312701 187.442642 
L 301.829941 187.494464 
L 307.34718 187.564458 
L 312.86442 187.663037 
" style="fill:none;stroke:#2828a4;stroke-dasharray:7.4,3.2;stroke-dashoffset:0;stroke-width:2;"/>
   </g>
   <g id="line2d_99">
    <path clip-path="url(#p8ca7aeddf9)" d="M 42.519685 186.92293 
L 48.036925 186.835814 
L 53.554164 186.726142 
L 59.071403 186.588074 
L 64.588643 186.414259 
L 70.105882 186.195442 
L 75.623122 185.919974 
L 81.140361 185.573193 
L 86.657601 185.136649 
L 92.17484 184.587124 
L 97.69208 183.895418 
L 103.209319 183.024819 
L 108.726559 181.929215 
L 114.243798 180.55076 
L 119.761038 178.817036 
L 125.278277 176.637695 
L 130.795517 173.900611 
L 136.312756 170.467839 
L 141.829996 166.172056 
L 147.347235 160.815055 
L 152.864475 154.171498 
L 158.381714 146.003988 
L 163.898954 136.100108 
L 169.416193 124.347649 
L 174.933433 110.866761 
L 180.450672 96.204472 
L 185.967912 81.544473 
L 191.485151 68.779853 
L 197.002391 60.208074 
L 202.51963 57.741927 
L 208.036869 61.994898 
L 213.554109 71.946536 
L 219.071348 85.490569 
L 224.588588 100.380974 
L 230.105827 114.905585 
L 235.623067 128.069839 
L 241.140306 139.466777 
L 246.657546 149.062253 
L 252.174785 157.016555 
L 257.692025 163.571112 
L 263.209264 168.990288 
L 268.726504 173.544476 
L 274.243743 177.538138 
L 279.760983 181.44292 
L 285.278222 185.731698 
L 290.795462 186.5013 
L 296.312701 186.832521 
L 301.829941 185.98003 
L 307.34718 187.501891 
L 312.86442 188.694794 
" style="fill:none;stroke:#000000;stroke-linecap:square;stroke-width:2;"/>
   </g>
   <g id="patch_5">
    <path d="M 42.519685 196.94345 
L 42.519685 51.023622 
" style="fill:none;stroke:#000000;stroke-linecap:square;stroke-linejoin:miter;stroke-width:0.8;"/>
   </g>
   <g id="patch_6">
    <path d="M 306.141732 196.94345 
L 306.141732 51.023622 
" style="fill:none;stroke:#000000;stroke-linecap:square;stroke-linejoin:miter;stroke-width:0.8;"/>
   </g>
   <g id="patch_7">
    <path d="M 42.519685 196.94345 
L 306.141732 196.94345 
" style="fill:none;stroke:#000000;stroke-linecap:square;stroke-linejoin:miter;stroke-width:0.8;"/>
   </g>
   <g id="patch_8">
    <path d="M 42.519685 51.023622 
L 306.141732 51.023622 
" style="fill:none;stroke:#000000;stroke-linecap:square;stroke-linejoin:miter;stroke-width:0.8;"/>
   </g>
  </g>
  <g id="axes_3">
   <g id="patch_9">
    <path d="M 42.519685 372.047244 
L 306.141732 372.047244 
L 306.141732 226.127416 
L 42.519685 226.127416 
z
" style="fill:#ffffff;"/>
   </g>
   <g id="matplotlib.axis_5">
    <g id="xtick_88">
     <g id="line2d_100">
      <g>
       <use style="stroke:#000000;stroke-width:0.8;" x="42.519685" xlink:href="#mc512ea7df9" y="372.047244"/>
      </g>
     </g>
     <g id="text_16">
      <!-- $\mathdefault{10^{-4}}$ -->
      <g transform="translate(30.769685 386.645682)scale(0.1 -0.1)">
       <use transform="translate(0 0.684375)" xlink:href="#DejaVuSans-31"/>
       <use transform="translate(63.623047 0.684375)" xlink:href="#DejaVuSans-30"/>
       <use transform="translate(128.203125 38.965625)scale(0.7)" xlink:href="#DejaVuSans-2212"/>
       <use transform="translate(186.855469 38.965625)scale(0.7)" xlink:href="#DejaVuSans-34"/>
      </g>
     </g>
    </g>
    <g id="xtick_89">
     <g id="line2d_101">
      <g>
       <use style="stroke:#000000;stroke-width:0.8;" x="97.69208" xlink:href="#mc512ea7df9" y="372.047244"/>
      </g>
     </g>
     <g id="text_17">
      <!-- $\mathdefault{10^{-3}}$ -->
      <g transform="translate(85.94208 386.645682)scale(0.1 -0.1)">
       <use transform="translate(0 0.765625)" xlink:href="#DejaVuSans-31"/>
       <use transform="translate(63.623047 0.765625)" xlink:href="#DejaVuSans-30"/>
       <use transform="translate(128.203125 39.046875)scale(0.7)" xlink:href="#DejaVuSans-2212"/>
       <use transform="translate(186.855469 39.046875)scale(0.7)" xlink:href="#DejaVuSans-33"/>
      </g>
     </g>
    </g>
    <g id="xtick_90">
     <g id="line2d_102">
      <g>
       <use style="stroke:#000000;stroke-width:0.8;" x="152.864475" xlink:href="#mc512ea7df9" y="372.047244"/>
      </g>
     </g>
     <g id="text_18">
      <!-- $\mathdefault{10^{-2}}$ -->
      <g transform="translate(141.114475 386.645682)scale(0.1 -0.1)">
       <use transform="translate(0 0.765625)" xlink:href="#DejaVuSans-31"/>
       <use transform="translate(63.623047 0.765625)" xlink:href="#DejaVuSans-30"/>
       <use transform="translate(128.203125 39.046875)scale(0.7)" xlink:href="#DejaVuSans-2212"/>
       <use transform="translate(186.855469 39.046875)scale(0.7)" xlink:href="#DejaVuSans-32"/>
      </g>
     </g>
    </g>
    <g id="xtick_91">
     <g id="line2d_103">
      <g>
       <use style="stroke:#000000;stroke-width:0.8;" x="208.036869" xlink:href="#mc512ea7df9" y="372.047244"/>
      </g>
     </g>
     <g id="text_19">
      <!-- $\mathdefault{10^{-1}}$ -->
      <g transform="translate(196.286869 386.645682)scale(0.1 -0.1)">
       <use transform="translate(0 0.684375)" xlink:href="#DejaVuSans-31"/>
       <use transform="translate(63.623047 0.684375)" xlink:href="#DejaVuSans-30"/>
       <use transform="translate(128.203125 38.965625)scale(0.7)" xlink:href="#DejaVuSans-2212"/>
       <use transform="translate(186.855469 38.965625)scale(0.7)" xlink:href="#DejaVuSans-31"/>
      </g>
     </g>
    </g>
    <g id="xtick_92">
     <g id="line2d_104">
      <g>
       <use style="stroke:#000000;stroke-width:0.8;" x="263.209264" xlink:href="#mc512ea7df9" y="372.047244"/>
      </g>
     </g>
     <g id="text_20">
      <!-- $\mathdefault{10^{0}}$ -->
      <g transform="translate(254.409264 386.645682)scale(0.1 -0.1)">
       <use transform="translate(0 0.765625)" xlink:href="#DejaVuSans-31"/>
       <use transform="translate(63.623047 0.765625)" xlink:href="#DejaVuSans-30"/>
       <use transform="translate(128.203125 39.046875)scale(0.7)" xlink:href="#DejaVuSans-30"/>
      </g>
     </g>
    </g>
    <g id="xtick_93">
     <g id="line2d_105">
      <g>
       <use style="stroke:#000000;stroke-width:0.6;" x="59.128231" xlink:href="#m613cb441b8" y="372.047244"/>
      </g>
     </g>
    </g>
    <g id="xtick_94">
     <g id="line2d_106">
      <g>
       <use style="stroke:#000000;stroke-width:0.6;" x="68.843607" xlink:href="#m613cb441b8" y="372.047244"/>
      </g>
     </g>
    </g>
    <g id="xtick_95">
     <g id="line2d_107">
      <g>
       <use style="stroke:#000000;stroke-width:0.6;" x="75.736777" xlink:href="#m613cb441b8" y="372.047244"/>
      </g>
     </g>
    </g>
    <g id="xtick_96">
     <g id="line2d_108">
      <g>
       <use style="stroke:#000000;stroke-width:0.6;" x="81.083534" xlink:href="#m613cb441b8" y="372.047244"/>
      </g>
     </g>
    </g>
    <g id="xtick_97">
     <g id="line2d_109">
      <g>
       <use style="stroke:#000000;stroke-width:0.6;" x="85.452153" xlink:href="#m613cb441b8" y="372.047244"/>
      </g>
     </g>
    </g>
    <g id="xtick_98">
     <g id="line2d_110">
      <g>
       <use style="stroke:#000000;stroke-width:0.6;" x="89.145768" xlink:href="#m613cb441b8" y="372.047244"/>
      </g>
     </g>
    </g>
    <g id="xtick_99">
     <g id="line2d_111">
      <g>
       <use style="stroke:#000000;stroke-width:0.6;" x="92.345322" xlink:href="#m613cb441b8" y="372.047244"/>
      </g>
     </g>
    </g>
    <g id="xtick_100">
     <g id="line2d_112">
      <g>
       <use style="stroke:#000000;stroke-width:0.6;" x="95.16753" xlink:href="#m613cb441b8" y="372.047244"/>
      </g>
     </g>
    </g>
    <g id="xtick_101">
     <g id="line2d_113">
      <g>
       <use style="stroke:#000000;stroke-width:0.6;" x="114.300626" xlink:href="#m613cb441b8" y="372.047244"/>
      </g>
     </g>
    </g>
    <g id="xtick_102">
     <g id="line2d_114">
      <g>
       <use style="stroke:#000000;stroke-width:0.6;" x="124.016002" xlink:href="#m613cb441b8" y="372.047244"/>
      </g>
     </g>
    </g>
    <g id="xtick_103">
     <g id="line2d_115">
      <g>
       <use style="stroke:#000000;stroke-width:0.6;" x="130.909171" xlink:href="#m613cb441b8" y="372.047244"/>
      </g>
     </g>
    </g>
    <g id="xtick_104">
     <g id="line2d_116">
      <g>
       <use style="stroke:#000000;stroke-width:0.6;" x="136.255929" xlink:href="#m613cb441b8" y="372.047244"/>
      </g>
     </g>
    </g>
    <g id="xtick_105">
     <g id="line2d_117">
      <g>
       <use style="stroke:#000000;stroke-width:0.6;" x="140.624548" xlink:href="#m613cb441b8" y="372.047244"/>
      </g>
     </g>
    </g>
    <g id="xtick_106">
     <g id="line2d_118">
      <g>
       <use style="stroke:#000000;stroke-width:0.6;" x="144.318163" xlink:href="#m613cb441b8" y="372.047244"/>
      </g>
     </g>
    </g>
    <g id="xtick_107">
     <g id="line2d_119">
      <g>
       <use style="stroke:#000000;stroke-width:0.6;" x="147.517717" xlink:href="#m613cb441b8" y="372.047244"/>
      </g>
     </g>
    </g>
    <g id="xtick_108">
     <g id="line2d_120">
      <g>
       <use style="stroke:#000000;stroke-width:0.6;" x="150.339924" xlink:href="#m613cb441b8" y="372.047244"/>
      </g>
     </g>
    </g>
    <g id="xtick_109">
     <g id="line2d_121">
      <g>
       <use style="stroke:#000000;stroke-width:0.6;" x="169.47302" xlink:href="#m613cb441b8" y="372.047244"/>
      </g>
     </g>
    </g>
    <g id="xtick_110">
     <g id="line2d_122">
      <g>
       <use style="stroke:#000000;stroke-width:0.6;" x="179.188397" xlink:href="#m613cb441b8" y="372.047244"/>
      </g>
     </g>
    </g>
    <g id="xtick_111">
     <g id="line2d_123">
      <g>
       <use style="stroke:#000000;stroke-width:0.6;" x="186.081566" xlink:href="#m613cb441b8" y="372.047244"/>
      </g>
     </g>
    </g>
    <g id="xtick_112">
     <g id="line2d_124">
      <g>
       <use style="stroke:#000000;stroke-width:0.6;" x="191.428324" xlink:href="#m613cb441b8" y="372.047244"/>
      </g>
     </g>
    </g>
    <g id="xtick_113">
     <g id="line2d_125">
      <g>
       <use style="stroke:#000000;stroke-width:0.6;" x="195.796943" xlink:href="#m613cb441b8" y="372.047244"/>
      </g>
     </g>
    </g>
    <g id="xtick_114">
     <g id="line2d_126">
      <g>
       <use style="stroke:#000000;stroke-width:0.6;" x="199.490557" xlink:href="#m613cb441b8" y="372.047244"/>
      </g>
     </g>
    </g>
    <g id="xtick_115">
     <g id="line2d_127">
      <g>
       <use style="stroke:#000000;stroke-width:0.6;" x="202.690112" xlink:href="#m613cb441b8" y="372.047244"/>
      </g>
     </g>
    </g>
    <g id="xtick_116">
     <g id="line2d_128">
      <g>
       <use style="stroke:#000000;stroke-width:0.6;" x="205.512319" xlink:href="#m613cb441b8" y="372.047244"/>
      </g>
     </g>
    </g>
    <g id="xtick_117">
     <g id="line2d_129">
      <g>
       <use style="stroke:#000000;stroke-width:0.6;" x="224.645415" xlink:href="#m613cb441b8" y="372.047244"/>
      </g>
     </g>
    </g>
    <g id="xtick_118">
     <g id="line2d_130">
      <g>
       <use style="stroke:#000000;stroke-width:0.6;" x="234.360792" xlink:href="#m613cb441b8" y="372.047244"/>
      </g>
     </g>
    </g>
    <g id="xtick_119">
     <g id="line2d_131">
      <g>
       <use style="stroke:#000000;stroke-width:0.6;" x="241.253961" xlink:href="#m613cb441b8" y="372.047244"/>
      </g>
     </g>
    </g>
    <g id="xtick_120">
     <g id="line2d_132">
      <g>
       <use style="stroke:#000000;stroke-width:0.6;" x="246.600719" xlink:href="#m613cb441b8" y="372.047244"/>
      </g>
     </g>
    </g>
    <g id="xtick_121">
     <g id="line2d_133">
      <g>
       <use style="stroke:#000000;stroke-width:0.6;" x="250.969337" xlink:href="#m613cb441b8" y="372.047244"/>
      </g>
     </g>
    </g>
    <g id="xtick_122">
     <g id="line2d_134">
      <g>
       <use style="stroke:#000000;stroke-width:0.6;" x="254.662952" xlink:href="#m613cb441b8" y="372.047244"/>
      </g>
     </g>
    </g>
    <g id="xtick_123">
     <g id="line2d_135">
      <g>
       <use style="stroke:#000000;stroke-width:0.6;" x="257.862507" xlink:href="#m613cb441b8" y="372.047244"/>
      </g>
     </g>
    </g>
    <g id="xtick_124">
     <g id="line2d_136">
      <g>
       <use style="stroke:#000000;stroke-width:0.6;" x="260.684714" xlink:href="#m613cb441b8" y="372.047244"/>
      </g>
     </g>
    </g>
    <g id="xtick_125">
     <g id="line2d_137">
      <g>
       <use style="stroke:#000000;stroke-width:0.6;" x="279.81781" xlink:href="#m613cb441b8" y="372.047244"/>
      </g>
     </g>
    </g>
    <g id="xtick_126">
     <g id="line2d_138">
      <g>
       <use style="stroke:#000000;stroke-width:0.6;" x="289.533187" xlink:href="#m613cb441b8" y="372.047244"/>
      </g>
     </g>
    </g>
    <g id="xtick_127">
     <g id="line2d_139">
      <g>
       <use style="stroke:#000000;stroke-width:0.6;" x="296.426356" xlink:href="#m613cb441b8" y="372.047244"/>
      </g>
     </g>
    </g>
    <g id="xtick_128">
     <g id="line2d_140">
      <g>
       <use style="stroke:#000000;stroke-width:0.6;" x="301.773113" xlink:href="#m613cb441b8" y="372.047244"/>
      </g>
     </g>
    </g>
    <g id="xtick_129">
     <g id="line2d_141">
      <g>
       <use style="stroke:#000000;stroke-width:0.6;" x="306.141732" xlink:href="#m613cb441b8" y="372.047244"/>
      </g>
     </g>
    </g>
    <g id="text_21">
     <!-- $\omega$(eV) -->
     <g transform="translate(159.730709 400.323807)scale(0.1 -0.1)">
      <defs>
       <path d="M 1369 -91 
Q 72 -91 434 1766 
Q 575 2500 1256 3500 
L 1875 3500 
Q 1231 2500 1088 1750 
Q 819 397 1519 397 
Q 2166 397 2478 2078 
L 3009 2078 
Q 2669 388 3316 397 
Q 4013 403 4275 1750 
Q 4419 2500 4169 3500 
L 4788 3500 
Q 5075 2500 4934 1766 
Q 4578 -94 3278 -91 
Q 2428 -88 2503 844 
Q 2194 -91 1369 -91 
z
" id="DejaVuSans-Oblique-3c9" transform="scale(0.015625)"/>
       <path d="M 1831 0 
L 50 4666 
L 709 4666 
L 2188 738 
L 3669 4666 
L 4325 4666 
L 2547 0 
L 1831 0 
z
" id="DejaVuSans-56" transform="scale(0.015625)"/>
      </defs>
      <use transform="translate(0 0.125)" xlink:href="#DejaVuSans-Oblique-3c9"/>
      <use transform="translate(83.740234 0.125)" xlink:href="#DejaVuSans-28"/>
      <use transform="translate(122.753906 0.125)" xlink:href="#DejaVuSans-65"/>
      <use transform="translate(184.277344 0.125)" xlink:href="#DejaVuSans-56"/>
      <use transform="translate(252.685547 0.125)" xlink:href="#DejaVuSans-29"/>
     </g>
    </g>
   </g>
   <g id="matplotlib.axis_6">
    <g id="ytick_7">
     <g id="line2d_142">
      <g>
       <use style="stroke:#000000;stroke-width:0.8;" x="42.519685" xlink:href="#mccc4e37be5" y="365.296657"/>
      </g>
     </g>
     <g id="text_22">
      <!-- 0.0 -->
      <g transform="translate(19.61656 369.095876)scale(0.1 -0.1)">
       <use xlink:href="#DejaVuSans-30"/>
       <use x="63.623047" xlink:href="#DejaVuSans-2e"/>
       <use x="95.410156" xlink:href="#DejaVuSans-30"/>
      </g>
     </g>
    </g>
    <g id="ytick_8">
     <g id="line2d_143">
      <g>
       <use style="stroke:#000000;stroke-width:0.8;" x="42.519685" xlink:href="#mccc4e37be5" y="339.934851"/>
      </g>
     </g>
     <g id="text_23">
      <!-- 0.5 -->
      <g transform="translate(19.61656 343.73407)scale(0.1 -0.1)">
       <use xlink:href="#DejaVuSans-30"/>
       <use x="63.623047" xlink:href="#DejaVuSans-2e"/>
       <use x="95.410156" xlink:href="#DejaVuSans-35"/>
      </g>
     </g>
    </g>
    <g id="ytick_9">
     <g id="line2d_144">
      <g>
       <use style="stroke:#000000;stroke-width:0.8;" x="42.519685" xlink:href="#mccc4e37be5" y="314.573045"/>
      </g>
     </g>
     <g id="text_24">
      <!-- 1.0 -->
      <g transform="translate(19.61656 318.372264)scale(0.1 -0.1)">
       <use xlink:href="#DejaVuSans-31"/>
       <use x="63.623047" xlink:href="#DejaVuSans-2e"/>
       <use x="95.410156" xlink:href="#DejaVuSans-30"/>
      </g>
     </g>
    </g>
    <g id="ytick_10">
     <g id="line2d_145">
      <g>
       <use style="stroke:#000000;stroke-width:0.8;" x="42.519685" xlink:href="#mccc4e37be5" y="289.211239"/>
      </g>
     </g>
     <g id="text_25">
      <!-- 1.5 -->
      <g transform="translate(19.61656 293.010458)scale(0.1 -0.1)">
       <use xlink:href="#DejaVuSans-31"/>
       <use x="63.623047" xlink:href="#DejaVuSans-2e"/>
       <use x="95.410156" xlink:href="#DejaVuSans-35"/>
      </g>
     </g>
    </g>
    <g id="ytick_11">
     <g id="line2d_146">
      <g>
       <use style="stroke:#000000;stroke-width:0.8;" x="42.519685" xlink:href="#mccc4e37be5" y="263.849433"/>
      </g>
     </g>
     <g id="text_26">
      <!-- 2.0 -->
      <g transform="translate(19.61656 267.648652)scale(0.1 -0.1)">
       <use xlink:href="#DejaVuSans-32"/>
       <use x="63.623047" xlink:href="#DejaVuSans-2e"/>
       <use x="95.410156" xlink:href="#DejaVuSans-30"/>
      </g>
     </g>
    </g>
    <g id="ytick_12">
     <g id="line2d_147">
      <g>
       <use style="stroke:#000000;stroke-width:0.8;" x="42.519685" xlink:href="#mccc4e37be5" y="238.487627"/>
      </g>
     </g>
     <g id="text_27">
      <!-- 2.5 -->
      <g transform="translate(19.61656 242.286846)scale(0.1 -0.1)">
       <use xlink:href="#DejaVuSans-32"/>
       <use x="63.623047" xlink:href="#DejaVuSans-2e"/>
       <use x="95.410156" xlink:href="#DejaVuSans-35"/>
      </g>
     </g>
    </g>
    <g id="text_28">
     <!-- Real Conductivity, Re($\sigma$) -->
     <g transform="translate(13.51656 359.93733)rotate(-90)scale(0.1 -0.1)">
      <defs>
       <path d="M 2841 2188 
Q 3044 2119 3236 1894 
Q 3428 1669 3622 1275 
L 4263 0 
L 3584 0 
L 2988 1197 
Q 2756 1666 2539 1819 
Q 2322 1972 1947 1972 
L 1259 1972 
L 1259 0 
L 628 0 
L 628 4666 
L 2053 4666 
Q 2853 4666 3247 4331 
Q 3641 3997 3641 3322 
Q 3641 2881 3436 2590 
Q 3231 2300 2841 2188 
z
M 1259 4147 
L 1259 2491 
L 2053 2491 
Q 2509 2491 2742 2702 
Q 2975 2913 2975 3322 
Q 2975 3731 2742 3939 
Q 2509 4147 2053 4147 
L 1259 4147 
z
" id="DejaVuSans-52" transform="scale(0.015625)"/>
       <path d="M 603 4863 
L 1178 4863 
L 1178 0 
L 603 0 
L 603 4863 
z
" id="DejaVuSans-6c" transform="scale(0.015625)"/>
      </defs>
      <use transform="translate(0 0.015625)" xlink:href="#DejaVuSans-52"/>
      <use transform="translate(69.482422 0.015625)" xlink:href="#DejaVuSans-65"/>
      <use transform="translate(131.005859 0.015625)" xlink:href="#DejaVuSans-61"/>
      <use transform="translate(192.285156 0.015625)" xlink:href="#DejaVuSans-6c"/>
      <use transform="translate(220.068359 0.015625)" xlink:href="#DejaVuSans-20"/>
      <use transform="translate(251.855469 0.015625)" xlink:href="#DejaVuSans-43"/>
      <use transform="translate(321.679688 0.015625)" xlink:href="#DejaVuSans-6f"/>
      <use transform="translate(382.861328 0.015625)" xlink:href="#DejaVuSans-6e"/>
      <use transform="translate(446.240234 0.015625)" xlink:href="#DejaVuSans-64"/>
      <use transform="translate(509.716797 0.015625)" xlink:href="#DejaVuSans-75"/>
      <use transform="translate(573.095703 0.015625)" xlink:href="#DejaVuSans-63"/>
      <use transform="translate(628.076172 0.015625)" xlink:href="#DejaVuSans-74"/>
      <use transform="translate(667.285156 0.015625)" xlink:href="#DejaVuSans-69"/>
      <use transform="translate(695.068359 0.015625)" xlink:href="#DejaVuSans-76"/>
      <use transform="translate(754.248047 0.015625)" xlink:href="#DejaVuSans-69"/>
      <use transform="translate(782.03125 0.015625)" xlink:href="#DejaVuSans-74"/>
      <use transform="translate(821.240234 0.015625)" xlink:href="#DejaVuSans-79"/>
      <use transform="translate(880.419922 0.015625)" xlink:href="#DejaVuSans-2c"/>
      <use transform="translate(912.207031 0.015625)" xlink:href="#DejaVuSans-20"/>
      <use transform="translate(943.994141 0.015625)" xlink:href="#DejaVuSans-52"/>
      <use transform="translate(1013.476562 0.015625)" xlink:href="#DejaVuSans-65"/>
      <use transform="translate(1075 0.015625)" xlink:href="#DejaVuSans-28"/>
      <use transform="translate(1114.013672 0.015625)" xlink:href="#DejaVuSans-Oblique-3c3"/>
      <use transform="translate(1177.392578 0.015625)" xlink:href="#DejaVuSans-29"/>
     </g>
    </g>
    <g id="text_29">
     <!-- 1e17 -->
     <g transform="translate(42.519685 223.127416)scale(0.1 -0.1)">
      <use xlink:href="#DejaVuSans-31"/>
      <use x="63.623047" xlink:href="#DejaVuSans-65"/>
      <use x="125.146484" xlink:href="#DejaVuSans-31"/>
      <use x="188.769531" xlink:href="#DejaVuSans-37"/>
     </g>
    </g>
   </g>
   <g id="line2d_148">
    <path clip-path="url(#p0e1d49ed28)" d="M 42.519685 365.296657 
L 306.141732 365.296657 
" style="fill:none;stroke:#000000;stroke-dasharray:5.55,2.4;stroke-dashoffset:0;stroke-width:1.5;"/>
   </g>
   <g id="line2d_149">
    <path clip-path="url(#p0e1d49ed28)" d="M 42.519685 232.760135 
L 48.036925 232.760264 
L 53.554164 232.760469 
L 59.071403 232.760795 
L 64.588643 232.761312 
L 70.105882 232.762131 
L 75.623122 232.763432 
L 81.140361 232.765495 
L 86.657601 232.768766 
L 92.17484 232.773952 
L 97.69208 232.782174 
L 103.209319 232.795207 
L 108.726559 232.815863 
L 114.243798 232.848592 
L 119.761038 232.90044 
L 125.278277 232.98254 
L 130.795517 233.112463 
L 136.312756 233.31787 
L 141.829996 233.642133 
L 147.347235 234.152827 
L 152.864475 234.954184 
L 158.381714 236.204414 
L 163.898954 238.13754 
L 169.416193 241.085532 
L 174.933433 245.487747 
L 180.450672 251.859612 
L 185.967912 260.677913 
L 191.485151 272.153507 
L 197.002391 285.947675 
L 202.51963 301.031146 
L 208.036869 315.908986 
L 213.554109 329.164233 
L 219.071348 339.944863 
L 224.588588 348.080957 
L 230.105827 353.880833 
L 235.623067 357.848727 
L 241.140306 360.486758 
L 246.657546 362.206478 
L 252.174785 363.31198 
L 257.692025 364.014665 
L 263.209264 364.456074 
L 268.726504 364.728687 
L 274.243743 364.891886 
L 279.760983 364.983212 
L 285.278222 365.025952 
L 290.795462 365.034093 
L 296.312701 365.015494 
L 301.829941 364.973863 
L 307.34718 364.909953 
L 312.86442 364.822238 
" style="fill:none;stroke:#a42828;stroke-dasharray:7.4,3.2;stroke-dashoffset:0;stroke-width:2;"/>
   </g>
   <g id="line2d_150">
    <path clip-path="url(#p0e1d49ed28)" d="M 42.519685 365.296657 
L 48.036925 365.296657 
L 53.554164 365.296657 
L 59.071403 365.296657 
L 64.588643 365.296657 
L 70.105882 365.296657 
L 75.623122 365.296657 
L 81.140361 365.296657 
L 86.657601 365.296657 
L 92.17484 365.296657 
L 97.69208 365.296657 
L 103.209319 365.296657 
L 108.726559 365.296657 
L 114.243798 365.296657 
L 119.761038 365.296657 
L 125.278277 365.296657 
L 130.795517 365.296657 
L 136.312756 365.296657 
L 141.829996 365.296657 
L 147.347235 365.296657 
L 152.864475 365.296657 
L 158.381714 365.296657 
L 163.898954 365.296657 
L 169.416193 365.296657 
L 174.933433 365.296657 
L 180.450672 365.296657 
L 185.967912 365.296657 
L 191.485151 365.296657 
L 197.002391 365.296656 
L 202.51963 365.296656 
L 208.036869 365.296654 
L 213.554109 365.296653 
L 219.071348 365.29665 
L 224.588588 365.296644 
L 230.105827 365.296635 
L 235.623067 365.296617 
L 241.140306 365.296582 
L 246.657546 365.296509 
L 252.174785 365.296347 
L 257.692025 365.295969 
L 263.209264 365.295036 
L 268.726504 365.292606 
L 274.243743 365.28581 
L 279.760983 365.264761 
L 285.278222 365.188006 
L 290.795462 364.831346 
L 296.312701 363.560481 
L 301.829941 363.983914 
L 307.34718 364.55949 
L 312.86442 364.776936 
" style="fill:none;stroke:#a4a428;stroke-dasharray:7.4,3.2;stroke-dashoffset:0;stroke-width:2;"/>
   </g>
   <g id="line2d_151">
    <path clip-path="url(#p0e1d49ed28)" d="M 42.519685 365.296657 
L 48.036925 365.296657 
L 53.554164 365.296657 
L 59.071403 365.296657 
L 64.588643 365.296657 
L 70.105882 365.296657 
L 75.623122 365.296657 
L 81.140361 365.296657 
L 86.657601 365.296657 
L 92.17484 365.296657 
L 97.69208 365.296657 
L 103.209319 365.296657 
L 108.726559 365.296657 
L 114.243798 365.296658 
L 119.761038 365.296658 
L 125.278277 365.296658 
L 130.795517 365.296658 
L 136.312756 365.296659 
L 141.829996 365.296659 
L 147.347235 365.29666 
L 152.864475 365.296662 
L 158.381714 365.296665 
L 163.898954 365.29667 
L 169.416193 365.296677 
L 174.933433 365.296688 
L 180.450672 365.296706 
L 185.967912 365.296734 
L 191.485151 365.296779 
L 197.002391 365.29685 
L 202.51963 365.296963 
L 208.036869 365.297143 
L 213.554109 365.297427 
L 219.071348 365.297877 
L 224.588588 365.298591 
L 230.105827 365.299725 
L 235.623067 365.301526 
L 241.140306 365.30439 
L 246.657546 365.308952 
L 252.174785 365.316235 
L 257.692025 365.327884 
L 263.209264 365.346472 
L 268.726504 365.375454 
L 274.243743 365.414525 
L 279.760983 365.405792 
L 285.278222 364.680809 
L 290.795462 363.696128 
L 296.312701 364.194534 
L 301.829941 364.45866 
L 307.34718 364.581928 
L 312.86442 364.645874 
" style="fill:none;stroke:#28a428;stroke-dasharray:7.4,3.2;stroke-dashoffset:0;stroke-width:2;"/>
   </g>
   <g id="line2d_152">
    <path clip-path="url(#p0e1d49ed28)" d="M 42.519685 365.296657 
L 48.036925 365.296657 
L 53.554164 365.296657 
L 59.071403 365.296657 
L 64.588643 365.296657 
L 70.105882 365.296657 
L 75.623122 365.296657 
L 81.140361 365.296657 
L 86.657601 365.296657 
L 92.17484 365.296657 
L 97.69208 365.296657 
L 103.209319 365.296657 
L 108.726559 365.296657 
L 114.243798 365.296657 
L 119.761038 365.296657 
L 125.278277 365.296657 
L 130.795517 365.296657 
L 136.312756 365.296657 
L 141.829996 365.296657 
L 147.347235 365.296656 
L 152.864475 365.296656 
L 158.381714 365.296655 
L 163.898954 365.296654 
L 169.416193 365.296652 
L 174.933433 365.296648 
L 180.450672 365.296643 
L 185.967912 365.296634 
L 191.485151 365.296621 
L 197.002391 365.2966 
L 202.51963 365.296566 
L 208.036869 365.296512 
L 213.554109 365.296428 
L 219.071348 365.296293 
L 224.588588 365.29608 
L 230.105827 365.295742 
L 235.623067 365.295206 
L 241.140306 365.294356 
L 246.657546 365.293004 
L 252.174785 365.290855 
L 257.692025 365.287429 
L 263.209264 365.281951 
L 268.726504 365.273145 
L 274.243743 365.258881 
L 279.760983 365.23549 
L 285.278222 365.196445 
L 290.795462 365.129606 
L 296.312701 365.011602 
L 301.829941 364.798473 
L 307.34718 364.430336 
L 312.86442 363.967677 
" style="fill:none;stroke:#28a4a4;stroke-dasharray:7.4,3.2;stroke-dashoffset:0;stroke-width:2;"/>
   </g>
   <g id="line2d_153">
    <path clip-path="url(#p0e1d49ed28)" d="M 42.519685 365.296657 
L 48.036925 365.296657 
L 53.554164 365.296657 
L 59.071403 365.296657 
L 64.588643 365.296657 
L 70.105882 365.296657 
L 75.623122 365.296657 
L 81.140361 365.296657 
L 86.657601 365.296657 
L 92.17484 365.296657 
L 97.69208 365.296657 
L 103.209319 365.296657 
L 108.726559 365.296657 
L 114.243798 365.296657 
L 119.761038 365.296657 
L 125.278277 365.296657 
L 130.795517 365.296657 
L 136.312756 365.296657 
L 141.829996 365.296657 
L 147.347235 365.296657 
L 152.864475 365.296657 
L 158.381714 365.296657 
L 163.898954 365.296657 
L 169.416193 365.296657 
L 174.933433 365.296657 
L 180.450672 365.296657 
L 185.967912 365.296657 
L 191.485151 365.296656 
L 197.002391 365.296656 
L 202.51963 365.296655 
L 208.036869 365.296653 
L 213.554109 365.296651 
L 219.071348 365.296647 
L 224.588588 365.29664 
L 230.105827 365.296631 
L 235.623067 365.296615 
L 241.140306 365.29659 
L 246.657546 365.296551 
L 252.174785 365.296488 
L 257.692025 365.296389 
L 263.209264 365.296232 
L 268.726504 365.295981 
L 274.243743 365.295583 
L 279.760983 365.294946 
L 285.278222 365.293924 
L 290.795462 365.292271 
L 296.312701 365.289566 
L 301.829941 365.285054 
L 307.34718 365.277285 
L 312.86442 365.263182 
" style="fill:none;stroke:#2828a4;stroke-dasharray:7.4,3.2;stroke-dashoffset:0;stroke-width:2;"/>
   </g>
   <g id="line2d_154">
    <path clip-path="url(#p0e1d49ed28)" d="M 42.519685 232.760135 
L 48.036925 232.760264 
L 53.554164 232.760469 
L 59.071403 232.760795 
L 64.588643 232.761312 
L 70.105882 232.762131 
L 75.623122 232.763432 
L 81.140361 232.765495 
L 86.657601 232.768766 
L 92.17484 232.773952 
L 97.69208 232.782174 
L 103.209319 232.795207 
L 108.726559 232.815863 
L 114.243798 232.848592 
L 119.761038 232.90044 
L 125.278277 232.98254 
L 130.795517 233.112463 
L 136.312756 233.317871 
L 141.829996 233.642134 
L 147.347235 234.152829 
L 152.864475 234.954187 
L 158.381714 236.20442 
L 163.898954 238.137548 
L 169.416193 241.085545 
L 174.933433 245.487768 
L 180.450672 251.859645 
L 185.967912 260.677966 
L 191.485151 272.153591 
L 197.002391 285.947807 
L 202.51963 301.031356 
L 208.036869 315.909319 
L 213.554109 329.164761 
L 219.071348 339.9457 
L 224.588588 348.082283 
L 230.105827 353.882937 
L 235.623067 357.852061 
L 241.140306 360.492046 
L 246.657546 362.214865 
L 252.174785 363.325276 
L 257.692025 364.035706 
L 263.209264 364.489135 
L 268.726504 364.779244 
L 274.243743 364.960054 
L 279.760983 364.997571 
L 285.278222 364.198505 
L 290.795462 362.796814 
L 296.312701 361.885047 
L 301.829941 362.313335 
L 307.34718 362.572363 
L 312.86442 362.289278 
" style="fill:none;stroke:#000000;stroke-linecap:square;stroke-width:2;"/>
   </g>
   <g id="patch_10">
    <path d="M 42.519685 372.047244 
L 42.519685 226.127416 
" style="fill:none;stroke:#000000;stroke-linecap:square;stroke-linejoin:miter;stroke-width:0.8;"/>
   </g>
   <g id="patch_11">
    <path d="M 306.141732 372.047244 
L 306.141732 226.127416 
" style="fill:none;stroke:#000000;stroke-linecap:square;stroke-linejoin:miter;stroke-width:0.8;"/>
   </g>
   <g id="patch_12">
    <path d="M 42.519685 372.047244 
L 306.141732 372.047244 
" style="fill:none;stroke:#000000;stroke-linecap:square;stroke-linejoin:miter;stroke-width:0.8;"/>
   </g>
   <g id="patch_13">
    <path d="M 42.519685 226.127416 
L 306.141732 226.127416 
" style="fill:none;stroke:#000000;stroke-linecap:square;stroke-linejoin:miter;stroke-width:0.8;"/>
   </g>
   <g id="legend_1">
    <g id="patch_14">
     <path d="M 233.862045 367.047244 
L 299.141732 367.047244 
Q 301.141732 367.047244 301.141732 365.047244 
L 301.141732 292.656619 
Q 301.141732 290.656619 299.141732 290.656619 
L 233.862045 290.656619 
Q 231.862045 290.656619 231.862045 292.656619 
L 231.862045 365.047244 
Q 231.862045 367.047244 233.862045 367.047244 
z
" style="fill:#ffffff;opacity:0.8;stroke:#cccccc;stroke-linejoin:miter;"/>
    </g>
    <g id="line2d_155">
     <path d="M 235.862045 298.755057 
L 255.862045 298.755057 
" style="fill:none;stroke:#a42828;stroke-dasharray:7.4,3.2;stroke-dashoffset:0;stroke-width:2;"/>
    </g>
    <g id="line2d_156"/>
    <g id="text_30">
     <!-- Drude -->
     <g transform="translate(263.862045 302.255057)scale(0.1 -0.1)">
      <defs>
       <path d="M 1259 4147 
L 1259 519 
L 2022 519 
Q 2988 519 3436 956 
Q 3884 1394 3884 2338 
Q 3884 3275 3436 3711 
Q 2988 4147 2022 4147 
L 1259 4147 
z
M 628 4666 
L 1925 4666 
Q 3281 4666 3915 4102 
Q 4550 3538 4550 2338 
Q 4550 1131 3912 565 
Q 3275 0 1925 0 
L 628 0 
L 628 4666 
z
" id="DejaVuSans-44" transform="scale(0.015625)"/>
      </defs>
      <use xlink:href="#DejaVuSans-44"/>
      <use x="77.001953" xlink:href="#DejaVuSans-72"/>
      <use x="118.115234" xlink:href="#DejaVuSans-75"/>
      <use x="181.494141" xlink:href="#DejaVuSans-64"/>
      <use x="244.970703" xlink:href="#DejaVuSans-65"/>
     </g>
    </g>
    <g id="line2d_157">
     <path d="M 235.862045 313.433182 
L 255.862045 313.433182 
" style="fill:none;stroke:#a4a428;stroke-dasharray:7.4,3.2;stroke-dashoffset:0;stroke-width:2;"/>
    </g>
    <g id="line2d_158"/>
    <g id="text_31">
     <!-- Peak 1 -->
     <g transform="translate(263.862045 316.933182)scale(0.1 -0.1)">
      <defs>
       <path d="M 1259 4147 
L 1259 2394 
L 2053 2394 
Q 2494 2394 2734 2622 
Q 2975 2850 2975 3272 
Q 2975 3691 2734 3919 
Q 2494 4147 2053 4147 
L 1259 4147 
z
M 628 4666 
L 2053 4666 
Q 2838 4666 3239 4311 
Q 3641 3956 3641 3272 
Q 3641 2581 3239 2228 
Q 2838 1875 2053 1875 
L 1259 1875 
L 1259 0 
L 628 0 
L 628 4666 
z
" id="DejaVuSans-50" transform="scale(0.015625)"/>
       <path d="M 581 4863 
L 1159 4863 
L 1159 1991 
L 2875 3500 
L 3609 3500 
L 1753 1863 
L 3688 0 
L 2938 0 
L 1159 1709 
L 1159 0 
L 581 0 
L 581 4863 
z
" id="DejaVuSans-6b" transform="scale(0.015625)"/>
      </defs>
      <use xlink:href="#DejaVuSans-50"/>
      <use x="56.677734" xlink:href="#DejaVuSans-65"/>
      <use x="118.201172" xlink:href="#DejaVuSans-61"/>
      <use x="179.480469" xlink:href="#DejaVuSans-6b"/>
      <use x="237.390625" xlink:href="#DejaVuSans-20"/>
      <use x="269.177734" xlink:href="#DejaVuSans-31"/>
     </g>
    </g>
    <g id="line2d_159">
     <path d="M 235.862045 328.111307 
L 255.862045 328.111307 
" style="fill:none;stroke:#28a428;stroke-dasharray:7.4,3.2;stroke-dashoffset:0;stroke-width:2;"/>
    </g>
    <g id="line2d_160"/>
    <g id="text_32">
     <!-- Peak 2 -->
     <g transform="translate(263.862045 331.611307)scale(0.1 -0.1)">
      <use xlink:href="#DejaVuSans-50"/>
      <use x="56.677734" xlink:href="#DejaVuSans-65"/>
      <use x="118.201172" xlink:href="#DejaVuSans-61"/>
      <use x="179.480469" xlink:href="#DejaVuSans-6b"/>
      <use x="237.390625" xlink:href="#DejaVuSans-20"/>
      <use x="269.177734" xlink:href="#DejaVuSans-32"/>
     </g>
    </g>
    <g id="line2d_161">
     <path d="M 235.862045 342.789432 
L 255.862045 342.789432 
" style="fill:none;stroke:#28a4a4;stroke-dasharray:7.4,3.2;stroke-dashoffset:0;stroke-width:2;"/>
    </g>
    <g id="line2d_162"/>
    <g id="text_33">
     <!-- Peak 3 -->
     <g transform="translate(263.862045 346.289432)scale(0.1 -0.1)">
      <use xlink:href="#DejaVuSans-50"/>
      <use x="56.677734" xlink:href="#DejaVuSans-65"/>
      <use x="118.201172" xlink:href="#DejaVuSans-61"/>
      <use x="179.480469" xlink:href="#DejaVuSans-6b"/>
      <use x="237.390625" xlink:href="#DejaVuSans-20"/>
      <use x="269.177734" xlink:href="#DejaVuSans-33"/>
     </g>
    </g>
    <g id="line2d_163">
     <path d="M 235.862045 357.467557 
L 255.862045 357.467557 
" style="fill:none;stroke:#2828a4;stroke-dasharray:7.4,3.2;stroke-dashoffset:0;stroke-width:2;"/>
    </g>
    <g id="line2d_164"/>
    <g id="text_34">
     <!-- Peak 4 -->
     <g transform="translate(263.862045 360.967557)scale(0.1 -0.1)">
      <use xlink:href="#DejaVuSans-50"/>
      <use x="56.677734" xlink:href="#DejaVuSans-65"/>
      <use x="118.201172" xlink:href="#DejaVuSans-61"/>
      <use x="179.480469" xlink:href="#DejaVuSans-6b"/>
      <use x="237.390625" xlink:href="#DejaVuSans-20"/>
      <use x="269.177734" xlink:href="#DejaVuSans-34"/>
     </g>
    </g>
   </g>
  </g>
 </g>
 <defs>
  <clipPath id="p8ca7aeddf9">
   <rect height="145.919828" width="263.622047" x="42.519685" y="51.023622"/>
  </clipPath>
  <clipPath id="p0e1d49ed28">
   <rect height="145.919828" width="263.622047" x="42.519685" y="226.127416"/>
  </clipPath>
 </defs>
</svg>
