<?xml version="1.0" encoding="utf-8" standalone="no"?>
<!DOCTYPE svg PUBLIC "-//W3C//DTD SVG 1.1//EN"
  "http://www.w3.org/Graphics/SVG/1.1/DTD/svg11.dtd">
<svg height="425.19685pt" version="1.1" viewBox="0 0 340.15748 425.19685" width="340.15748pt" xmlns="http://www.w3.org/2000/svg" xmlns:xlink="http://www.w3.org/1999/xlink">
 <metadata>
  <rdf:RDF xmlns:cc="http://creativecommons.org/ns#" xmlns:dc="http://purl.org/dc/elements/1.1/" xmlns:rdf="http://www.w3.org/1999/02/22-rdf-syntax-ns#">
   <cc:Work>
    <dc:type rdf:resource="http://purl.org/dc/dcmitype/StillImage"/>
    <dc:date>2021-04-05T17:57:55.835129</dc:date>
    <dc:format>image/svg+xml</dc:format>
    <dc:creator>
     <cc:Agent>
      <dc:title>Matplotlib v3.4.1, https://matplotlib.org/</dc:title>
     </cc:Agent>
    </dc:creator>
   </cc:Work>
  </rdf:RDF>
 </metadata>
 <defs>
  <style type="text/css">*{stroke-linecap:butt;stroke-linejoin:round;}</style>
 </defs>
 <g id="figure_1">
  <g id="patch_1">
   <path d="M 0 425.19685 
L 340.15748 425.19685 
L 340.15748 0 
L 0 0 
z
" style="fill:#ffffff;"/>
  </g>
  <g id="axes_1">
   <g id="patch_2">
    <path d="M 42.519685 196.94345 
L 306.141732 196.94345 
L 306.141732 51.023622 
L 42.519685 51.023622 
z
" style="fill:#ffffff;"/>
   </g>
   <g id="axes_2">
    <g id="patch_3">
     <path d="M 42.519685 51.023622 
L 306.141732 51.023622 
L 306.141732 51.023622 
L 42.519685 51.023622 
z
" style="fill:#ffffff;"/>
    </g>
    <g id="matplotlib.axis_1">
     <g id="xtick_1">
      <g id="line2d_1">
       <defs>
        <path d="M 0 0 
L 0 -3.5 
" id="mc14c3dd039" style="stroke:#000000;stroke-width:0.8;"/>
       </defs>
       <g>
        <use style="stroke:#000000;stroke-width:0.8;" x="66.479218" xlink:href="#mc14c3dd039" y="51.023622"/>
       </g>
      </g>
      <g id="text_1">
       <!-- 1240 -->
       <g transform="translate(53.754218 41.943935)scale(0.1 -0.1)">
        <defs>
         <path d="M 794 531 
L 1825 531 
L 1825 4091 
L 703 3866 
L 703 4441 
L 1819 4666 
L 2450 4666 
L 2450 531 
L 3481 531 
L 3481 0 
L 794 0 
L 794 531 
z
" id="DejaVuSans-31" transform="scale(0.015625)"/>
         <path d="M 1228 531 
L 3431 531 
L 3431 0 
L 469 0 
L 469 531 
Q 828 903 1448 1529 
Q 2069 2156 2228 2338 
Q 2531 2678 2651 2914 
Q 2772 3150 2772 3378 
Q 2772 3750 2511 3984 
Q 2250 4219 1831 4219 
Q 1534 4219 1204 4116 
Q 875 4013 500 3803 
L 500 4441 
Q 881 4594 1212 4672 
Q 1544 4750 1819 4750 
Q 2544 4750 2975 4387 
Q 3406 4025 3406 3419 
Q 3406 3131 3298 2873 
Q 3191 2616 2906 2266 
Q 2828 2175 2409 1742 
Q 1991 1309 1228 531 
z
" id="DejaVuSans-32" transform="scale(0.015625)"/>
         <path d="M 2419 4116 
L 825 1625 
L 2419 1625 
L 2419 4116 
z
M 2253 4666 
L 3047 4666 
L 3047 1625 
L 3713 1625 
L 3713 1100 
L 3047 1100 
L 3047 0 
L 2419 0 
L 2419 1100 
L 313 1100 
L 313 1709 
L 2253 4666 
z
" id="DejaVuSans-34" transform="scale(0.015625)"/>
         <path d="M 2034 4250 
Q 1547 4250 1301 3770 
Q 1056 3291 1056 2328 
Q 1056 1369 1301 889 
Q 1547 409 2034 409 
Q 2525 409 2770 889 
Q 3016 1369 3016 2328 
Q 3016 3291 2770 3770 
Q 2525 4250 2034 4250 
z
M 2034 4750 
Q 2819 4750 3233 4129 
Q 3647 3509 3647 2328 
Q 3647 1150 3233 529 
Q 2819 -91 2034 -91 
Q 1250 -91 836 529 
Q 422 1150 422 2328 
Q 422 3509 836 4129 
Q 1250 4750 2034 4750 
z
" id="DejaVuSans-30" transform="scale(0.015625)"/>
        </defs>
        <use xlink:href="#DejaVuSans-31"/>
        <use x="63.623047" xlink:href="#DejaVuSans-32"/>
        <use x="127.246094" xlink:href="#DejaVuSans-34"/>
        <use x="190.869141" xlink:href="#DejaVuSans-30"/>
       </g>
      </g>
     </g>
     <g id="xtick_2">
      <g id="line2d_2">
       <g>
        <use style="stroke:#000000;stroke-width:0.8;" x="114.404391" xlink:href="#mc14c3dd039" y="51.023622"/>
       </g>
      </g>
      <g id="text_2">
       <!-- 620 -->
       <g transform="translate(104.860641 41.943935)scale(0.1 -0.1)">
        <defs>
         <path d="M 2113 2584 
Q 1688 2584 1439 2293 
Q 1191 2003 1191 1497 
Q 1191 994 1439 701 
Q 1688 409 2113 409 
Q 2538 409 2786 701 
Q 3034 994 3034 1497 
Q 3034 2003 2786 2293 
Q 2538 2584 2113 2584 
z
M 3366 4563 
L 3366 3988 
Q 3128 4100 2886 4159 
Q 2644 4219 2406 4219 
Q 1781 4219 1451 3797 
Q 1122 3375 1075 2522 
Q 1259 2794 1537 2939 
Q 1816 3084 2150 3084 
Q 2853 3084 3261 2657 
Q 3669 2231 3669 1497 
Q 3669 778 3244 343 
Q 2819 -91 2113 -91 
Q 1303 -91 875 529 
Q 447 1150 447 2328 
Q 447 3434 972 4092 
Q 1497 4750 2381 4750 
Q 2619 4750 2861 4703 
Q 3103 4656 3366 4563 
z
" id="DejaVuSans-36" transform="scale(0.015625)"/>
        </defs>
        <use xlink:href="#DejaVuSans-36"/>
        <use x="63.623047" xlink:href="#DejaVuSans-32"/>
        <use x="127.246094" xlink:href="#DejaVuSans-30"/>
       </g>
      </g>
     </g>
     <g id="xtick_3">
      <g id="line2d_3">
       <g>
        <use style="stroke:#000000;stroke-width:0.8;" x="162.445606" xlink:href="#mc14c3dd039" y="51.023622"/>
       </g>
      </g>
      <g id="text_3">
       <!-- 413 -->
       <g transform="translate(152.901856 41.943935)scale(0.1 -0.1)">
        <defs>
         <path d="M 2597 2516 
Q 3050 2419 3304 2112 
Q 3559 1806 3559 1356 
Q 3559 666 3084 287 
Q 2609 -91 1734 -91 
Q 1441 -91 1130 -33 
Q 819 25 488 141 
L 488 750 
Q 750 597 1062 519 
Q 1375 441 1716 441 
Q 2309 441 2620 675 
Q 2931 909 2931 1356 
Q 2931 1769 2642 2001 
Q 2353 2234 1838 2234 
L 1294 2234 
L 1294 2753 
L 1863 2753 
Q 2328 2753 2575 2939 
Q 2822 3125 2822 3475 
Q 2822 3834 2567 4026 
Q 2313 4219 1838 4219 
Q 1578 4219 1281 4162 
Q 984 4106 628 3988 
L 628 4550 
Q 988 4650 1302 4700 
Q 1616 4750 1894 4750 
Q 2613 4750 3031 4423 
Q 3450 4097 3450 3541 
Q 3450 3153 3228 2886 
Q 3006 2619 2597 2516 
z
" id="DejaVuSans-33" transform="scale(0.015625)"/>
        </defs>
        <use xlink:href="#DejaVuSans-34"/>
        <use x="63.623047" xlink:href="#DejaVuSans-31"/>
        <use x="127.246094" xlink:href="#DejaVuSans-33"/>
       </g>
      </g>
     </g>
     <g id="xtick_4">
      <g id="line2d_4">
       <g>
        <use style="stroke:#000000;stroke-width:0.8;" x="210.254738" xlink:href="#mc14c3dd039" y="51.023622"/>
       </g>
      </g>
      <g id="text_4">
       <!-- 310 -->
       <g transform="translate(200.710988 41.943935)scale(0.1 -0.1)">
        <use xlink:href="#DejaVuSans-33"/>
        <use x="63.623047" xlink:href="#DejaVuSans-31"/>
        <use x="127.246094" xlink:href="#DejaVuSans-30"/>
       </g>
      </g>
     </g>
     <g id="xtick_5">
      <g id="line2d_5">
       <g>
        <use style="stroke:#000000;stroke-width:0.8;" x="258.179911" xlink:href="#mc14c3dd039" y="51.023622"/>
       </g>
      </g>
      <g id="text_5">
       <!-- 248 -->
       <g transform="translate(248.636161 41.943935)scale(0.1 -0.1)">
        <defs>
         <path d="M 2034 2216 
Q 1584 2216 1326 1975 
Q 1069 1734 1069 1313 
Q 1069 891 1326 650 
Q 1584 409 2034 409 
Q 2484 409 2743 651 
Q 3003 894 3003 1313 
Q 3003 1734 2745 1975 
Q 2488 2216 2034 2216 
z
M 1403 2484 
Q 997 2584 770 2862 
Q 544 3141 544 3541 
Q 544 4100 942 4425 
Q 1341 4750 2034 4750 
Q 2731 4750 3128 4425 
Q 3525 4100 3525 3541 
Q 3525 3141 3298 2862 
Q 3072 2584 2669 2484 
Q 3125 2378 3379 2068 
Q 3634 1759 3634 1313 
Q 3634 634 3220 271 
Q 2806 -91 2034 -91 
Q 1263 -91 848 271 
Q 434 634 434 1313 
Q 434 1759 690 2068 
Q 947 2378 1403 2484 
z
M 1172 3481 
Q 1172 3119 1398 2916 
Q 1625 2713 2034 2713 
Q 2441 2713 2670 2916 
Q 2900 3119 2900 3481 
Q 2900 3844 2670 4047 
Q 2441 4250 2034 4250 
Q 1625 4250 1398 4047 
Q 1172 3844 1172 3481 
z
" id="DejaVuSans-38" transform="scale(0.015625)"/>
        </defs>
        <use xlink:href="#DejaVuSans-32"/>
        <use x="63.623047" xlink:href="#DejaVuSans-34"/>
        <use x="127.246094" xlink:href="#DejaVuSans-38"/>
       </g>
      </g>
     </g>
     <g id="xtick_6">
      <g id="line2d_6">
       <g>
        <use style="stroke:#000000;stroke-width:0.8;" x="305.642039" xlink:href="#mc14c3dd039" y="51.023622"/>
       </g>
      </g>
      <g id="text_6">
       <!-- 207 -->
       <g transform="translate(296.098289 41.943935)scale(0.1 -0.1)">
        <defs>
         <path d="M 525 4666 
L 3525 4666 
L 3525 4397 
L 1831 0 
L 1172 0 
L 2766 4134 
L 525 4134 
L 525 4666 
z
" id="DejaVuSans-37" transform="scale(0.015625)"/>
        </defs>
        <use xlink:href="#DejaVuSans-32"/>
        <use x="63.623047" xlink:href="#DejaVuSans-30"/>
        <use x="127.246094" xlink:href="#DejaVuSans-37"/>
       </g>
      </g>
     </g>
     <g id="text_7">
      <!-- $\lambda$(nm) -->
      <g transform="translate(159.430709 30.345497)scale(0.1 -0.1)">
       <defs>
        <path d="M 2350 4316 
L 3125 0 
L 2516 0 
L 2038 2588 
L 328 0 
L -281 0 
L 1903 3356 
L 1794 3975 
Q 1725 4369 1391 4369 
L 1091 4369 
L 1184 4863 
L 1550 4856 
Q 2253 4847 2350 4316 
z
" id="DejaVuSans-Oblique-3bb" transform="scale(0.015625)"/>
        <path d="M 1984 4856 
Q 1566 4138 1362 3434 
Q 1159 2731 1159 2009 
Q 1159 1288 1364 580 
Q 1569 -128 1984 -844 
L 1484 -844 
Q 1016 -109 783 600 
Q 550 1309 550 2009 
Q 550 2706 781 3412 
Q 1013 4119 1484 4856 
L 1984 4856 
z
" id="DejaVuSans-28" transform="scale(0.015625)"/>
        <path d="M 3513 2113 
L 3513 0 
L 2938 0 
L 2938 2094 
Q 2938 2591 2744 2837 
Q 2550 3084 2163 3084 
Q 1697 3084 1428 2787 
Q 1159 2491 1159 1978 
L 1159 0 
L 581 0 
L 581 3500 
L 1159 3500 
L 1159 2956 
Q 1366 3272 1645 3428 
Q 1925 3584 2291 3584 
Q 2894 3584 3203 3211 
Q 3513 2838 3513 2113 
z
" id="DejaVuSans-6e" transform="scale(0.015625)"/>
        <path d="M 3328 2828 
Q 3544 3216 3844 3400 
Q 4144 3584 4550 3584 
Q 5097 3584 5394 3201 
Q 5691 2819 5691 2113 
L 5691 0 
L 5113 0 
L 5113 2094 
Q 5113 2597 4934 2840 
Q 4756 3084 4391 3084 
Q 3944 3084 3684 2787 
Q 3425 2491 3425 1978 
L 3425 0 
L 2847 0 
L 2847 2094 
Q 2847 2600 2669 2842 
Q 2491 3084 2119 3084 
Q 1678 3084 1418 2786 
Q 1159 2488 1159 1978 
L 1159 0 
L 581 0 
L 581 3500 
L 1159 3500 
L 1159 2956 
Q 1356 3278 1631 3431 
Q 1906 3584 2284 3584 
Q 2666 3584 2933 3390 
Q 3200 3197 3328 2828 
z
" id="DejaVuSans-6d" transform="scale(0.015625)"/>
        <path d="M 513 4856 
L 1013 4856 
Q 1481 4119 1714 3412 
Q 1947 2706 1947 2009 
Q 1947 1309 1714 600 
Q 1481 -109 1013 -844 
L 513 -844 
Q 928 -128 1133 580 
Q 1338 1288 1338 2009 
Q 1338 2731 1133 3434 
Q 928 4138 513 4856 
z
" id="DejaVuSans-29" transform="scale(0.015625)"/>
       </defs>
       <use transform="translate(0 0.015625)" xlink:href="#DejaVuSans-Oblique-3bb"/>
       <use transform="translate(59.179688 0.015625)" xlink:href="#DejaVuSans-28"/>
       <use transform="translate(98.193359 0.015625)" xlink:href="#DejaVuSans-6e"/>
       <use transform="translate(161.572266 0.015625)" xlink:href="#DejaVuSans-6d"/>
       <use transform="translate(258.984375 0.015625)" xlink:href="#DejaVuSans-29"/>
      </g>
     </g>
    </g>
    <g id="matplotlib.axis_2"/>
    <g id="patch_4">
     <path d="M 306.141732 51.023622 
L 42.519685 51.023622 
" style="fill:none;stroke:#000000;stroke-linecap:square;stroke-linejoin:miter;stroke-width:0.8;"/>
    </g>
   </g>
   <g id="matplotlib.axis_3">
    <g id="xtick_7">
     <g id="line2d_7">
      <defs>
       <path d="M 0 0 
L 0 3.5 
" id="m7bd005bc9e" style="stroke:#000000;stroke-width:0.8;"/>
      </defs>
      <g>
       <use style="stroke:#000000;stroke-width:0.8;" x="66.485326" xlink:href="#m7bd005bc9e" y="196.94345"/>
      </g>
     </g>
     <g id="text_8">
      <!-- 1 -->
      <g transform="translate(63.304076 211.541888)scale(0.1 -0.1)">
       <use xlink:href="#DejaVuSans-31"/>
      </g>
     </g>
    </g>
    <g id="xtick_8">
     <g id="line2d_8">
      <g>
       <use style="stroke:#000000;stroke-width:0.8;" x="114.416607" xlink:href="#m7bd005bc9e" y="196.94345"/>
      </g>
     </g>
     <g id="text_9">
      <!-- 2 -->
      <g transform="translate(111.235357 211.541888)scale(0.1 -0.1)">
       <use xlink:href="#DejaVuSans-32"/>
      </g>
     </g>
    </g>
    <g id="xtick_9">
     <g id="line2d_9">
      <g>
       <use style="stroke:#000000;stroke-width:0.8;" x="162.347888" xlink:href="#m7bd005bc9e" y="196.94345"/>
      </g>
     </g>
     <g id="text_10">
      <!-- 3 -->
      <g transform="translate(159.166638 211.541888)scale(0.1 -0.1)">
       <use xlink:href="#DejaVuSans-33"/>
      </g>
     </g>
    </g>
    <g id="xtick_10">
     <g id="line2d_10">
      <g>
       <use style="stroke:#000000;stroke-width:0.8;" x="210.27917" xlink:href="#m7bd005bc9e" y="196.94345"/>
      </g>
     </g>
     <g id="text_11">
      <!-- 4 -->
      <g transform="translate(207.09792 211.541888)scale(0.1 -0.1)">
       <use xlink:href="#DejaVuSans-34"/>
      </g>
     </g>
    </g>
    <g id="xtick_11">
     <g id="line2d_11">
      <g>
       <use style="stroke:#000000;stroke-width:0.8;" x="258.210451" xlink:href="#m7bd005bc9e" y="196.94345"/>
      </g>
     </g>
     <g id="text_12">
      <!-- 5 -->
      <g transform="translate(255.029201 211.541888)scale(0.1 -0.1)">
       <defs>
        <path d="M 691 4666 
L 3169 4666 
L 3169 4134 
L 1269 4134 
L 1269 2991 
Q 1406 3038 1543 3061 
Q 1681 3084 1819 3084 
Q 2600 3084 3056 2656 
Q 3513 2228 3513 1497 
Q 3513 744 3044 326 
Q 2575 -91 1722 -91 
Q 1428 -91 1123 -41 
Q 819 9 494 109 
L 494 744 
Q 775 591 1075 516 
Q 1375 441 1709 441 
Q 2250 441 2565 725 
Q 2881 1009 2881 1497 
Q 2881 1984 2565 2268 
Q 2250 2553 1709 2553 
Q 1456 2553 1204 2497 
Q 953 2441 691 2322 
L 691 4666 
z
" id="DejaVuSans-35" transform="scale(0.015625)"/>
       </defs>
       <use xlink:href="#DejaVuSans-35"/>
      </g>
     </g>
    </g>
    <g id="xtick_12">
     <g id="line2d_12">
      <g>
       <use style="stroke:#000000;stroke-width:0.8;" x="306.141732" xlink:href="#m7bd005bc9e" y="196.94345"/>
      </g>
     </g>
     <g id="text_13">
      <!-- 6 -->
      <g transform="translate(302.960482 211.541888)scale(0.1 -0.1)">
       <use xlink:href="#DejaVuSans-36"/>
      </g>
     </g>
    </g>
   </g>
   <g id="matplotlib.axis_4">
    <g id="ytick_1">
     <g id="line2d_13">
      <defs>
       <path d="M 0 0 
L -3.5 0 
" id="mca7d5e9947" style="stroke:#000000;stroke-width:0.8;"/>
      </defs>
      <g>
       <use style="stroke:#000000;stroke-width:0.8;" x="42.519685" xlink:href="#mca7d5e9947" y="180.621619"/>
      </g>
     </g>
     <g id="text_14">
      <!-- 0 -->
      <g transform="translate(29.157185 184.420837)scale(0.1 -0.1)">
       <use xlink:href="#DejaVuSans-30"/>
      </g>
     </g>
    </g>
    <g id="ytick_2">
     <g id="line2d_14">
      <g>
       <use style="stroke:#000000;stroke-width:0.8;" x="42.519685" xlink:href="#mca7d5e9947" y="149.189545"/>
      </g>
     </g>
     <g id="text_15">
      <!-- 1 -->
      <g transform="translate(29.157185 152.988764)scale(0.1 -0.1)">
       <use xlink:href="#DejaVuSans-31"/>
      </g>
     </g>
    </g>
    <g id="ytick_3">
     <g id="line2d_15">
      <g>
       <use style="stroke:#000000;stroke-width:0.8;" x="42.519685" xlink:href="#mca7d5e9947" y="117.757472"/>
      </g>
     </g>
     <g id="text_16">
      <!-- 2 -->
      <g transform="translate(29.157185 121.55669)scale(0.1 -0.1)">
       <use xlink:href="#DejaVuSans-32"/>
      </g>
     </g>
    </g>
    <g id="ytick_4">
     <g id="line2d_16">
      <g>
       <use style="stroke:#000000;stroke-width:0.8;" x="42.519685" xlink:href="#mca7d5e9947" y="86.325398"/>
      </g>
     </g>
     <g id="text_17">
      <!-- 3 -->
      <g transform="translate(29.157185 90.124617)scale(0.1 -0.1)">
       <use xlink:href="#DejaVuSans-33"/>
      </g>
     </g>
    </g>
    <g id="ytick_5">
     <g id="line2d_17">
      <g>
       <use style="stroke:#000000;stroke-width:0.8;" x="42.519685" xlink:href="#mca7d5e9947" y="54.893324"/>
      </g>
     </g>
     <g id="text_18">
      <!-- 4 -->
      <g transform="translate(29.157185 58.692543)scale(0.1 -0.1)">
       <use xlink:href="#DejaVuSans-34"/>
      </g>
     </g>
    </g>
    <g id="text_19">
     <!-- Imaginary Conductivity, Im($\sigma$) -->
     <g transform="translate(23.057185 198.483536)rotate(-90)scale(0.1 -0.1)">
      <defs>
       <path d="M 628 4666 
L 1259 4666 
L 1259 0 
L 628 0 
L 628 4666 
z
" id="DejaVuSans-49" transform="scale(0.015625)"/>
       <path d="M 2194 1759 
Q 1497 1759 1228 1600 
Q 959 1441 959 1056 
Q 959 750 1161 570 
Q 1363 391 1709 391 
Q 2188 391 2477 730 
Q 2766 1069 2766 1631 
L 2766 1759 
L 2194 1759 
z
M 3341 1997 
L 3341 0 
L 2766 0 
L 2766 531 
Q 2569 213 2275 61 
Q 1981 -91 1556 -91 
Q 1019 -91 701 211 
Q 384 513 384 1019 
Q 384 1609 779 1909 
Q 1175 2209 1959 2209 
L 2766 2209 
L 2766 2266 
Q 2766 2663 2505 2880 
Q 2244 3097 1772 3097 
Q 1472 3097 1187 3025 
Q 903 2953 641 2809 
L 641 3341 
Q 956 3463 1253 3523 
Q 1550 3584 1831 3584 
Q 2591 3584 2966 3190 
Q 3341 2797 3341 1997 
z
" id="DejaVuSans-61" transform="scale(0.015625)"/>
       <path d="M 2906 1791 
Q 2906 2416 2648 2759 
Q 2391 3103 1925 3103 
Q 1463 3103 1205 2759 
Q 947 2416 947 1791 
Q 947 1169 1205 825 
Q 1463 481 1925 481 
Q 2391 481 2648 825 
Q 2906 1169 2906 1791 
z
M 3481 434 
Q 3481 -459 3084 -895 
Q 2688 -1331 1869 -1331 
Q 1566 -1331 1297 -1286 
Q 1028 -1241 775 -1147 
L 775 -588 
Q 1028 -725 1275 -790 
Q 1522 -856 1778 -856 
Q 2344 -856 2625 -561 
Q 2906 -266 2906 331 
L 2906 616 
Q 2728 306 2450 153 
Q 2172 0 1784 0 
Q 1141 0 747 490 
Q 353 981 353 1791 
Q 353 2603 747 3093 
Q 1141 3584 1784 3584 
Q 2172 3584 2450 3431 
Q 2728 3278 2906 2969 
L 2906 3500 
L 3481 3500 
L 3481 434 
z
" id="DejaVuSans-67" transform="scale(0.015625)"/>
       <path d="M 603 3500 
L 1178 3500 
L 1178 0 
L 603 0 
L 603 3500 
z
M 603 4863 
L 1178 4863 
L 1178 4134 
L 603 4134 
L 603 4863 
z
" id="DejaVuSans-69" transform="scale(0.015625)"/>
       <path d="M 2631 2963 
Q 2534 3019 2420 3045 
Q 2306 3072 2169 3072 
Q 1681 3072 1420 2755 
Q 1159 2438 1159 1844 
L 1159 0 
L 581 0 
L 581 3500 
L 1159 3500 
L 1159 2956 
Q 1341 3275 1631 3429 
Q 1922 3584 2338 3584 
Q 2397 3584 2469 3576 
Q 2541 3569 2628 3553 
L 2631 2963 
z
" id="DejaVuSans-72" transform="scale(0.015625)"/>
       <path d="M 2059 -325 
Q 1816 -950 1584 -1140 
Q 1353 -1331 966 -1331 
L 506 -1331 
L 506 -850 
L 844 -850 
Q 1081 -850 1212 -737 
Q 1344 -625 1503 -206 
L 1606 56 
L 191 3500 
L 800 3500 
L 1894 763 
L 2988 3500 
L 3597 3500 
L 2059 -325 
z
" id="DejaVuSans-79" transform="scale(0.015625)"/>
       <path id="DejaVuSans-20" transform="scale(0.015625)"/>
       <path d="M 4122 4306 
L 4122 3641 
Q 3803 3938 3442 4084 
Q 3081 4231 2675 4231 
Q 1875 4231 1450 3742 
Q 1025 3253 1025 2328 
Q 1025 1406 1450 917 
Q 1875 428 2675 428 
Q 3081 428 3442 575 
Q 3803 722 4122 1019 
L 4122 359 
Q 3791 134 3420 21 
Q 3050 -91 2638 -91 
Q 1578 -91 968 557 
Q 359 1206 359 2328 
Q 359 3453 968 4101 
Q 1578 4750 2638 4750 
Q 3056 4750 3426 4639 
Q 3797 4528 4122 4306 
z
" id="DejaVuSans-43" transform="scale(0.015625)"/>
       <path d="M 1959 3097 
Q 1497 3097 1228 2736 
Q 959 2375 959 1747 
Q 959 1119 1226 758 
Q 1494 397 1959 397 
Q 2419 397 2687 759 
Q 2956 1122 2956 1747 
Q 2956 2369 2687 2733 
Q 2419 3097 1959 3097 
z
M 1959 3584 
Q 2709 3584 3137 3096 
Q 3566 2609 3566 1747 
Q 3566 888 3137 398 
Q 2709 -91 1959 -91 
Q 1206 -91 779 398 
Q 353 888 353 1747 
Q 353 2609 779 3096 
Q 1206 3584 1959 3584 
z
" id="DejaVuSans-6f" transform="scale(0.015625)"/>
       <path d="M 2906 2969 
L 2906 4863 
L 3481 4863 
L 3481 0 
L 2906 0 
L 2906 525 
Q 2725 213 2448 61 
Q 2172 -91 1784 -91 
Q 1150 -91 751 415 
Q 353 922 353 1747 
Q 353 2572 751 3078 
Q 1150 3584 1784 3584 
Q 2172 3584 2448 3432 
Q 2725 3281 2906 2969 
z
M 947 1747 
Q 947 1113 1208 752 
Q 1469 391 1925 391 
Q 2381 391 2643 752 
Q 2906 1113 2906 1747 
Q 2906 2381 2643 2742 
Q 2381 3103 1925 3103 
Q 1469 3103 1208 2742 
Q 947 2381 947 1747 
z
" id="DejaVuSans-64" transform="scale(0.015625)"/>
       <path d="M 544 1381 
L 544 3500 
L 1119 3500 
L 1119 1403 
Q 1119 906 1312 657 
Q 1506 409 1894 409 
Q 2359 409 2629 706 
Q 2900 1003 2900 1516 
L 2900 3500 
L 3475 3500 
L 3475 0 
L 2900 0 
L 2900 538 
Q 2691 219 2414 64 
Q 2138 -91 1772 -91 
Q 1169 -91 856 284 
Q 544 659 544 1381 
z
M 1991 3584 
L 1991 3584 
z
" id="DejaVuSans-75" transform="scale(0.015625)"/>
       <path d="M 3122 3366 
L 3122 2828 
Q 2878 2963 2633 3030 
Q 2388 3097 2138 3097 
Q 1578 3097 1268 2742 
Q 959 2388 959 1747 
Q 959 1106 1268 751 
Q 1578 397 2138 397 
Q 2388 397 2633 464 
Q 2878 531 3122 666 
L 3122 134 
Q 2881 22 2623 -34 
Q 2366 -91 2075 -91 
Q 1284 -91 818 406 
Q 353 903 353 1747 
Q 353 2603 823 3093 
Q 1294 3584 2113 3584 
Q 2378 3584 2631 3529 
Q 2884 3475 3122 3366 
z
" id="DejaVuSans-63" transform="scale(0.015625)"/>
       <path d="M 1172 4494 
L 1172 3500 
L 2356 3500 
L 2356 3053 
L 1172 3053 
L 1172 1153 
Q 1172 725 1289 603 
Q 1406 481 1766 481 
L 2356 481 
L 2356 0 
L 1766 0 
Q 1100 0 847 248 
Q 594 497 594 1153 
L 594 3053 
L 172 3053 
L 172 3500 
L 594 3500 
L 594 4494 
L 1172 4494 
z
" id="DejaVuSans-74" transform="scale(0.015625)"/>
       <path d="M 191 3500 
L 800 3500 
L 1894 563 
L 2988 3500 
L 3597 3500 
L 2284 0 
L 1503 0 
L 191 3500 
z
" id="DejaVuSans-76" transform="scale(0.015625)"/>
       <path d="M 750 794 
L 1409 794 
L 1409 256 
L 897 -744 
L 494 -744 
L 750 256 
L 750 794 
z
" id="DejaVuSans-2c" transform="scale(0.015625)"/>
       <path d="M 2219 3044 
Q 1744 3044 1422 2700 
Q 1081 2341 969 1747 
Q 844 1119 1044 756 
Q 1241 397 1706 397 
Q 2166 397 2503 759 
Q 2844 1122 2966 1747 
Q 3075 2319 2881 2700 
Q 2700 3044 2219 3044 
z
M 2309 3503 
L 4219 3500 
L 4106 2925 
L 3463 2925 
Q 3706 2438 3575 1747 
Q 3406 888 2884 400 
Q 2359 -91 1609 -91 
Q 856 -91 525 400 
Q 194 888 363 1747 
Q 528 2609 1050 3097 
Q 1484 3503 2309 3503 
z
" id="DejaVuSans-Oblique-3c3" transform="scale(0.015625)"/>
      </defs>
      <use transform="translate(0 0.015625)" xlink:href="#DejaVuSans-49"/>
      <use transform="translate(25.867188 0.015625)" xlink:href="#DejaVuSans-6d"/>
      <use transform="translate(123.279297 0.015625)" xlink:href="#DejaVuSans-61"/>
      <use transform="translate(184.558594 0.015625)" xlink:href="#DejaVuSans-67"/>
      <use transform="translate(248.035156 0.015625)" xlink:href="#DejaVuSans-69"/>
      <use transform="translate(275.818359 0.015625)" xlink:href="#DejaVuSans-6e"/>
      <use transform="translate(339.197266 0.015625)" xlink:href="#DejaVuSans-61"/>
      <use transform="translate(400.476562 0.015625)" xlink:href="#DejaVuSans-72"/>
      <use transform="translate(441.589844 0.015625)" xlink:href="#DejaVuSans-79"/>
      <use transform="translate(500.769531 0.015625)" xlink:href="#DejaVuSans-20"/>
      <use transform="translate(532.556641 0.015625)" xlink:href="#DejaVuSans-43"/>
      <use transform="translate(602.380859 0.015625)" xlink:href="#DejaVuSans-6f"/>
      <use transform="translate(663.5625 0.015625)" xlink:href="#DejaVuSans-6e"/>
      <use transform="translate(726.941406 0.015625)" xlink:href="#DejaVuSans-64"/>
      <use transform="translate(790.417969 0.015625)" xlink:href="#DejaVuSans-75"/>
      <use transform="translate(853.796875 0.015625)" xlink:href="#DejaVuSans-63"/>
      <use transform="translate(908.777344 0.015625)" xlink:href="#DejaVuSans-74"/>
      <use transform="translate(947.986328 0.015625)" xlink:href="#DejaVuSans-69"/>
      <use transform="translate(975.769531 0.015625)" xlink:href="#DejaVuSans-76"/>
      <use transform="translate(1034.949219 0.015625)" xlink:href="#DejaVuSans-69"/>
      <use transform="translate(1062.732422 0.015625)" xlink:href="#DejaVuSans-74"/>
      <use transform="translate(1101.941406 0.015625)" xlink:href="#DejaVuSans-79"/>
      <use transform="translate(1161.121094 0.015625)" xlink:href="#DejaVuSans-2c"/>
      <use transform="translate(1192.908203 0.015625)" xlink:href="#DejaVuSans-20"/>
      <use transform="translate(1224.695312 0.015625)" xlink:href="#DejaVuSans-49"/>
      <use transform="translate(1250.5625 0.015625)" xlink:href="#DejaVuSans-6d"/>
      <use transform="translate(1347.974609 0.015625)" xlink:href="#DejaVuSans-28"/>
      <use transform="translate(1386.988281 0.015625)" xlink:href="#DejaVuSans-Oblique-3c3"/>
      <use transform="translate(1450.367188 0.015625)" xlink:href="#DejaVuSans-29"/>
     </g>
    </g>
    <g id="text_20">
     <!-- 1e16 -->
     <g transform="translate(42.519685 48.023622)scale(0.1 -0.1)">
      <defs>
       <path d="M 3597 1894 
L 3597 1613 
L 953 1613 
Q 991 1019 1311 708 
Q 1631 397 2203 397 
Q 2534 397 2845 478 
Q 3156 559 3463 722 
L 3463 178 
Q 3153 47 2828 -22 
Q 2503 -91 2169 -91 
Q 1331 -91 842 396 
Q 353 884 353 1716 
Q 353 2575 817 3079 
Q 1281 3584 2069 3584 
Q 2775 3584 3186 3129 
Q 3597 2675 3597 1894 
z
M 3022 2063 
Q 3016 2534 2758 2815 
Q 2500 3097 2075 3097 
Q 1594 3097 1305 2825 
Q 1016 2553 972 2059 
L 3022 2063 
z
" id="DejaVuSans-65" transform="scale(0.015625)"/>
      </defs>
      <use xlink:href="#DejaVuSans-31"/>
      <use x="63.623047" xlink:href="#DejaVuSans-65"/>
      <use x="125.146484" xlink:href="#DejaVuSans-31"/>
      <use x="188.769531" xlink:href="#DejaVuSans-36"/>
     </g>
    </g>
   </g>
   <g id="line2d_18">
    <path clip-path="url(#p318d61324d)" d="M 42.519685 57.656342 
L 47.312813 77.663718 
L 52.105941 92.239495 
L 56.899069 103.321818 
L 61.692198 112.032414 
L 66.485326 119.06227 
L 71.278454 124.859086 
L 76.071582 129.725193 
L 80.86471 133.8719 
L 85.657838 137.451244 
L 90.450966 140.575351 
L 95.244094 143.328693 
L 100.037223 145.776106 
L 104.830351 147.968167 
L 109.623479 149.944905 
L 114.416607 151.738409 
L 119.209735 153.374703 
L 124.002863 154.875112 
L 128.795991 156.257273 
L 133.58912 157.535903 
L 138.382248 158.723375 
L 143.175376 159.830168 
L 147.968504 160.865215 
L 152.761632 161.836179 
L 157.55476 162.749669 
L 162.347888 163.611416 
L 167.141016 164.426415 
L 171.934145 165.199038 
L 176.727273 165.933128 
L 181.520401 166.632077 
L 186.313529 167.298893 
L 191.106657 167.936247 
L 195.899785 168.546525 
L 200.692913 169.131859 
L 205.486042 169.694165 
L 210.27917 170.235169 
L 215.072298 170.756426 
L 219.865426 171.259345 
L 224.658554 171.745204 
L 229.451682 172.215163 
L 234.24481 172.670283 
L 239.037938 173.11153 
L 243.831067 173.539787 
L 248.624195 173.955867 
L 253.417323 174.360514 
L 258.210451 174.754413 
L 263.003579 175.138196 
L 267.796707 175.512446 
L 272.589835 175.877702 
L 277.382963 176.234463 
L 282.176092 176.583193 
L 286.96922 176.924321 
L 291.762348 177.258247 
L 296.555476 177.585344 
L 301.348604 177.905957 
" style="fill:none;stroke:#a42828;stroke-dasharray:7.4,3.2;stroke-dashoffset:0;stroke-width:2;"/>
   </g>
   <g id="line2d_19">
    <path clip-path="url(#p318d61324d)" d="M 42.519685 181.205309 
L 47.312813 181.326842 
L 52.105941 181.451071 
L 56.899069 181.578515 
L 61.692198 181.709726 
L 66.485326 181.845298 
L 71.278454 181.985868 
L 76.071582 182.132131 
L 80.86471 182.284842 
L 85.657838 182.444827 
L 90.450966 182.612991 
L 95.244094 182.790327 
L 100.037223 182.977923 
L 104.830351 183.176974 
L 109.623479 183.388779 
L 114.416607 183.614746 
L 119.209735 183.856381 
L 124.002863 184.115263 
L 128.795991 184.392998 
L 133.58912 184.691134 
L 138.382248 185.011023 
L 143.175376 185.353588 
L 147.968504 185.71897 
L 152.761632 186.105973 
L 157.55476 186.511247 
L 162.347888 186.928098 
L 167.141016 187.344876 
L 171.934145 187.742913 
L 176.727273 188.094275 
L 181.520401 188.36 
L 186.313529 188.490235 
L 191.106657 188.428436 
L 195.899785 188.121736 
L 200.692913 187.537351 
L 205.486042 186.680095 
L 210.27917 185.601315 
L 215.072298 184.390975 
L 219.865426 183.15426 
L 224.658554 181.984553 
L 229.451682 180.945735 
L 234.24481 180.068462 
L 239.037938 179.356581 
L 243.831067 178.797087 
L 248.624195 178.368997 
L 253.417323 178.0494 
L 258.210451 177.816819 
L 263.003579 177.652679 
L 267.796707 177.541658 
L 272.589835 177.471481 
L 277.382963 177.432488 
L 282.176092 177.417162 
L 286.96922 177.419696 
L 291.762348 177.435615 
L 296.555476 177.461482 
L 301.348604 177.494657 
" style="fill:none;stroke:#a4a428;stroke-dasharray:7.4,3.2;stroke-dashoffset:0;stroke-width:2;"/>
   </g>
   <g id="line2d_20">
    <path clip-path="url(#p318d61324d)" d="M 42.519685 181.218576 
L 47.312813 181.352179 
L 52.105941 181.494235 
L 56.899069 181.646795 
L 61.692198 181.812263 
L 66.485326 181.993502 
L 71.278454 182.193962 
L 76.071582 182.417838 
L 80.86471 182.670274 
L 85.657838 182.957606 
L 90.450966 183.287646 
L 95.244094 183.669987 
L 100.037223 184.116232 
L 104.830351 184.639972 
L 109.623479 185.256047 
L 114.416607 185.97816 
L 119.209735 186.812999 
L 124.002863 187.747891 
L 128.795991 188.728777 
L 133.58912 189.630653 
L 138.382248 190.241704 
L 143.175376 190.310731 
L 147.968504 189.688046 
L 152.761632 188.463522 
L 157.55476 186.931686 
L 162.347888 185.4055 
L 167.141016 184.077456 
L 171.934145 183.010166 
L 176.727273 182.189291 
L 181.520401 181.571694 
L 186.313529 181.111308 
L 191.106657 180.768878 
L 195.899785 180.513875 
L 200.692913 180.323519 
L 205.486042 180.181105 
L 210.27917 180.074449 
L 215.072298 179.99465 
L 219.865426 179.935172 
L 224.658554 179.891183 
L 229.451682 179.859081 
L 234.24481 179.836158 
L 239.037938 179.820362 
L 243.831067 179.810127 
L 248.624195 179.804245 
L 253.417323 179.801782 
L 258.210451 179.802006 
L 263.003579 179.804346 
L 267.796707 179.808349 
L 272.589835 179.813655 
L 277.382963 179.819978 
L 282.176092 179.827089 
L 286.96922 179.834803 
L 291.762348 179.842972 
L 296.555476 179.851477 
L 301.348604 179.86022 
" style="fill:none;stroke:#28a428;stroke-dasharray:7.4,3.2;stroke-dashoffset:0;stroke-width:2;"/>
   </g>
   <g id="line2d_21">
    <path clip-path="url(#p318d61324d)" d="M 42.519685 181.109986 
L 47.312813 181.207809 
L 52.105941 181.305712 
L 56.899069 181.403704 
L 61.692198 181.501797 
L 66.485326 181.599998 
L 71.278454 181.698316 
L 76.071582 181.796756 
L 80.86471 181.895323 
L 85.657838 181.994018 
L 90.450966 182.092841 
L 95.244094 182.191791 
L 100.037223 182.290862 
L 104.830351 182.390046 
L 109.623479 182.489333 
L 114.416607 182.588707 
L 119.209735 182.688151 
L 124.002863 182.787642 
L 128.795991 182.887153 
L 133.58912 182.986654 
L 138.382248 183.086107 
L 143.175376 183.185469 
L 147.968504 183.284694 
L 152.761632 183.383725 
L 157.55476 183.482502 
L 162.347888 183.580954 
L 167.141016 183.679006 
L 171.934145 183.776571 
L 176.727273 183.873556 
L 181.520401 183.969855 
L 186.313529 184.065356 
L 191.106657 184.159933 
L 195.899785 184.253451 
L 200.692913 184.345761 
L 205.486042 184.436704 
L 210.27917 184.526108 
L 215.072298 184.613785 
L 219.865426 184.699538 
L 224.658554 184.783153 
L 229.451682 184.864402 
L 234.24481 184.943043 
L 239.037938 185.01882 
L 243.831067 185.091463 
L 248.624195 185.160687 
L 253.417323 185.226195 
L 258.210451 185.287676 
L 263.003579 185.344807 
L 267.796707 185.397255 
L 272.589835 185.444679 
L 277.382963 185.486727 
L 282.176092 185.523044 
L 286.96922 185.553273 
L 291.762348 185.577053 
L 296.555476 185.594029 
L 301.348604 185.603852 
" style="fill:none;stroke:#28a4a4;stroke-dasharray:7.4,3.2;stroke-dashoffset:0;stroke-width:2;"/>
   </g>
   <g id="line2d_22">
    <path clip-path="url(#p318d61324d)" d="M 42.519685 180.692274 
L 47.312813 180.706424 
L 52.105941 180.720583 
L 56.899069 180.734754 
L 61.692198 180.748938 
L 66.485326 180.763138 
L 71.278454 180.777354 
L 76.071582 180.791588 
L 80.86471 180.805842 
L 85.657838 180.820119 
L 90.450966 180.834418 
L 95.244094 180.848743 
L 100.037223 180.863095 
L 104.830351 180.877475 
L 109.623479 180.891886 
L 114.416607 180.906329 
L 119.209735 180.920806 
L 124.002863 180.935319 
L 128.795991 180.949869 
L 133.58912 180.964459 
L 138.382248 180.97909 
L 143.175376 180.993764 
L 147.968504 181.008483 
L 152.761632 181.023248 
L 157.55476 181.038063 
L 162.347888 181.052928 
L 167.141016 181.067845 
L 171.934145 181.082817 
L 176.727273 181.097845 
L 181.520401 181.112932 
L 186.313529 181.128079 
L 191.106657 181.143289 
L 195.899785 181.158563 
L 200.692913 181.173904 
L 205.486042 181.189314 
L 210.27917 181.204795 
L 215.072298 181.220348 
L 219.865426 181.235978 
L 224.658554 181.251684 
L 229.451682 181.267471 
L 234.24481 181.283339 
L 239.037938 181.299292 
L 243.831067 181.315332 
L 248.624195 181.331461 
L 253.417323 181.347681 
L 258.210451 181.363996 
L 263.003579 181.380407 
L 267.796707 181.396917 
L 272.589835 181.413529 
L 277.382963 181.430245 
L 282.176092 181.447069 
L 286.96922 181.464002 
L 291.762348 181.481047 
L 296.555476 181.498208 
L 301.348604 181.515488 
" style="fill:none;stroke:#2828a4;stroke-dasharray:7.4,3.2;stroke-dashoffset:0;stroke-width:2;"/>
   </g>
   <g id="line2d_23">
    <path clip-path="url(#p318d61324d)" d="M 42.519685 59.396013 
L 47.312813 79.770497 
L 52.105941 94.724621 
L 56.899069 106.199111 
L 61.692198 115.318663 
L 66.485326 122.77773 
L 71.278454 129.02811 
L 76.071582 134.377031 
L 80.86471 139.041707 
L 85.657838 143.181338 
L 90.450966 146.916772 
L 95.244094 150.343066 
L 100.037223 153.537744 
L 104.830351 156.56616 
L 109.623479 159.484475 
L 114.416607 162.339877 
L 119.209735 165.166566 
L 124.002863 167.974752 
L 128.795991 170.729596 
L 133.58912 173.322329 
L 138.382248 175.554824 
L 143.175376 177.187246 
L 147.968504 178.078933 
L 152.761632 178.326173 
L 157.55476 178.226691 
L 162.347888 178.092422 
L 167.141016 178.109123 
L 171.934145 178.325029 
L 176.727273 178.701619 
L 181.520401 179.160084 
L 186.313529 179.607397 
L 191.106657 179.950309 
L 195.899785 180.107674 
L 200.692913 180.025919 
L 205.486042 179.694908 
L 210.27917 179.155361 
L 215.072298 178.48971 
L 219.865426 177.797818 
L 224.658554 177.169302 
L 229.451682 176.665377 
L 234.24481 176.314811 
L 239.037938 176.12011 
L 243.831067 176.067321 
L 248.624195 176.134782 
L 253.417323 176.299097 
L 258.210451 176.538434 
L 263.003579 176.83396 
L 267.796707 177.170151 
L 272.589835 177.534571 
L 277.382963 177.917426 
L 282.176092 178.311082 
L 286.96922 178.709619 
L 291.762348 179.10846 
L 296.555476 179.504066 
L 301.348604 179.8937 
" style="fill:none;stroke:#000000;stroke-linecap:square;stroke-width:2;"/>
   </g>
   <g id="patch_5">
    <path d="M 42.519685 196.94345 
L 42.519685 51.023622 
" style="fill:none;stroke:#000000;stroke-linecap:square;stroke-linejoin:miter;stroke-width:0.8;"/>
   </g>
   <g id="patch_6">
    <path d="M 306.141732 196.94345 
L 306.141732 51.023622 
" style="fill:none;stroke:#000000;stroke-linecap:square;stroke-linejoin:miter;stroke-width:0.8;"/>
   </g>
   <g id="patch_7">
    <path d="M 42.519685 196.94345 
L 306.141732 196.94345 
" style="fill:none;stroke:#000000;stroke-linecap:square;stroke-linejoin:miter;stroke-width:0.8;"/>
   </g>
   <g id="patch_8">
    <path d="M 42.519685 51.023622 
L 306.141732 51.023622 
" style="fill:none;stroke:#000000;stroke-linecap:square;stroke-linejoin:miter;stroke-width:0.8;"/>
   </g>
  </g>
  <g id="axes_3">
   <g id="patch_9">
    <path d="M 42.519685 372.047244 
L 306.141732 372.047244 
L 306.141732 226.127416 
L 42.519685 226.127416 
z
" style="fill:#ffffff;"/>
   </g>
   <g id="matplotlib.axis_5">
    <g id="xtick_13">
     <g id="line2d_24">
      <g>
       <use style="stroke:#000000;stroke-width:0.8;" x="66.485326" xlink:href="#m7bd005bc9e" y="372.047244"/>
      </g>
     </g>
     <g id="text_21">
      <!-- 1 -->
      <g transform="translate(63.304076 386.645682)scale(0.1 -0.1)">
       <use xlink:href="#DejaVuSans-31"/>
      </g>
     </g>
    </g>
    <g id="xtick_14">
     <g id="line2d_25">
      <g>
       <use style="stroke:#000000;stroke-width:0.8;" x="114.416607" xlink:href="#m7bd005bc9e" y="372.047244"/>
      </g>
     </g>
     <g id="text_22">
      <!-- 2 -->
      <g transform="translate(111.235357 386.645682)scale(0.1 -0.1)">
       <use xlink:href="#DejaVuSans-32"/>
      </g>
     </g>
    </g>
    <g id="xtick_15">
     <g id="line2d_26">
      <g>
       <use style="stroke:#000000;stroke-width:0.8;" x="162.347888" xlink:href="#m7bd005bc9e" y="372.047244"/>
      </g>
     </g>
     <g id="text_23">
      <!-- 3 -->
      <g transform="translate(159.166638 386.645682)scale(0.1 -0.1)">
       <use xlink:href="#DejaVuSans-33"/>
      </g>
     </g>
    </g>
    <g id="xtick_16">
     <g id="line2d_27">
      <g>
       <use style="stroke:#000000;stroke-width:0.8;" x="210.27917" xlink:href="#m7bd005bc9e" y="372.047244"/>
      </g>
     </g>
     <g id="text_24">
      <!-- 4 -->
      <g transform="translate(207.09792 386.645682)scale(0.1 -0.1)">
       <use xlink:href="#DejaVuSans-34"/>
      </g>
     </g>
    </g>
    <g id="xtick_17">
     <g id="line2d_28">
      <g>
       <use style="stroke:#000000;stroke-width:0.8;" x="258.210451" xlink:href="#m7bd005bc9e" y="372.047244"/>
      </g>
     </g>
     <g id="text_25">
      <!-- 5 -->
      <g transform="translate(255.029201 386.645682)scale(0.1 -0.1)">
       <use xlink:href="#DejaVuSans-35"/>
      </g>
     </g>
    </g>
    <g id="xtick_18">
     <g id="line2d_29">
      <g>
       <use style="stroke:#000000;stroke-width:0.8;" x="306.141732" xlink:href="#m7bd005bc9e" y="372.047244"/>
      </g>
     </g>
     <g id="text_26">
      <!-- 6 -->
      <g transform="translate(302.960482 386.645682)scale(0.1 -0.1)">
       <use xlink:href="#DejaVuSans-36"/>
      </g>
     </g>
    </g>
    <g id="text_27">
     <!-- $\omega$(eV) -->
     <g transform="translate(159.730709 400.323807)scale(0.1 -0.1)">
      <defs>
       <path d="M 1369 -91 
Q 72 -91 434 1766 
Q 575 2500 1256 3500 
L 1875 3500 
Q 1231 2500 1088 1750 
Q 819 397 1519 397 
Q 2166 397 2478 2078 
L 3009 2078 
Q 2669 388 3316 397 
Q 4013 403 4275 1750 
Q 4419 2500 4169 3500 
L 4788 3500 
Q 5075 2500 4934 1766 
Q 4578 -94 3278 -91 
Q 2428 -88 2503 844 
Q 2194 -91 1369 -91 
z
" id="DejaVuSans-Oblique-3c9" transform="scale(0.015625)"/>
       <path d="M 1831 0 
L 50 4666 
L 709 4666 
L 2188 738 
L 3669 4666 
L 4325 4666 
L 2547 0 
L 1831 0 
z
" id="DejaVuSans-56" transform="scale(0.015625)"/>
      </defs>
      <use transform="translate(0 0.125)" xlink:href="#DejaVuSans-Oblique-3c9"/>
      <use transform="translate(83.740234 0.125)" xlink:href="#DejaVuSans-28"/>
      <use transform="translate(122.753906 0.125)" xlink:href="#DejaVuSans-65"/>
      <use transform="translate(184.277344 0.125)" xlink:href="#DejaVuSans-56"/>
      <use transform="translate(252.685547 0.125)" xlink:href="#DejaVuSans-29"/>
     </g>
    </g>
   </g>
   <g id="matplotlib.axis_6">
    <g id="ytick_6">
     <g id="line2d_30">
      <g>
       <use style="stroke:#000000;stroke-width:0.8;" x="42.519685" xlink:href="#mca7d5e9947" y="360.622049"/>
      </g>
     </g>
     <g id="text_28">
      <!-- 0 -->
      <g transform="translate(29.157185 364.421268)scale(0.1 -0.1)">
       <use xlink:href="#DejaVuSans-30"/>
      </g>
     </g>
    </g>
    <g id="ytick_7">
     <g id="line2d_31">
      <g>
       <use style="stroke:#000000;stroke-width:0.8;" x="42.519685" xlink:href="#mca7d5e9947" y="323.66071"/>
      </g>
     </g>
     <g id="text_29">
      <!-- 2 -->
      <g transform="translate(29.157185 327.459928)scale(0.1 -0.1)">
       <use xlink:href="#DejaVuSans-32"/>
      </g>
     </g>
    </g>
    <g id="ytick_8">
     <g id="line2d_32">
      <g>
       <use style="stroke:#000000;stroke-width:0.8;" x="42.519685" xlink:href="#mca7d5e9947" y="286.69937"/>
      </g>
     </g>
     <g id="text_30">
      <!-- 4 -->
      <g transform="translate(29.157185 290.498589)scale(0.1 -0.1)">
       <use xlink:href="#DejaVuSans-34"/>
      </g>
     </g>
    </g>
    <g id="ytick_9">
     <g id="line2d_33">
      <g>
       <use style="stroke:#000000;stroke-width:0.8;" x="42.519685" xlink:href="#mca7d5e9947" y="249.738031"/>
      </g>
     </g>
     <g id="text_31">
      <!-- 6 -->
      <g transform="translate(29.157185 253.537249)scale(0.1 -0.1)">
       <use xlink:href="#DejaVuSans-36"/>
      </g>
     </g>
    </g>
    <g id="text_32">
     <!-- Real Conductivity, Re($\sigma$) -->
     <g transform="translate(23.057185 359.93733)rotate(-90)scale(0.1 -0.1)">
      <defs>
       <path d="M 2841 2188 
Q 3044 2119 3236 1894 
Q 3428 1669 3622 1275 
L 4263 0 
L 3584 0 
L 2988 1197 
Q 2756 1666 2539 1819 
Q 2322 1972 1947 1972 
L 1259 1972 
L 1259 0 
L 628 0 
L 628 4666 
L 2053 4666 
Q 2853 4666 3247 4331 
Q 3641 3997 3641 3322 
Q 3641 2881 3436 2590 
Q 3231 2300 2841 2188 
z
M 1259 4147 
L 1259 2491 
L 2053 2491 
Q 2509 2491 2742 2702 
Q 2975 2913 2975 3322 
Q 2975 3731 2742 3939 
Q 2509 4147 2053 4147 
L 1259 4147 
z
" id="DejaVuSans-52" transform="scale(0.015625)"/>
       <path d="M 603 4863 
L 1178 4863 
L 1178 0 
L 603 0 
L 603 4863 
z
" id="DejaVuSans-6c" transform="scale(0.015625)"/>
      </defs>
      <use transform="translate(0 0.015625)" xlink:href="#DejaVuSans-52"/>
      <use transform="translate(69.482422 0.015625)" xlink:href="#DejaVuSans-65"/>
      <use transform="translate(131.005859 0.015625)" xlink:href="#DejaVuSans-61"/>
      <use transform="translate(192.285156 0.015625)" xlink:href="#DejaVuSans-6c"/>
      <use transform="translate(220.068359 0.015625)" xlink:href="#DejaVuSans-20"/>
      <use transform="translate(251.855469 0.015625)" xlink:href="#DejaVuSans-43"/>
      <use transform="translate(321.679688 0.015625)" xlink:href="#DejaVuSans-6f"/>
      <use transform="translate(382.861328 0.015625)" xlink:href="#DejaVuSans-6e"/>
      <use transform="translate(446.240234 0.015625)" xlink:href="#DejaVuSans-64"/>
      <use transform="translate(509.716797 0.015625)" xlink:href="#DejaVuSans-75"/>
      <use transform="translate(573.095703 0.015625)" xlink:href="#DejaVuSans-63"/>
      <use transform="translate(628.076172 0.015625)" xlink:href="#DejaVuSans-74"/>
      <use transform="translate(667.285156 0.015625)" xlink:href="#DejaVuSans-69"/>
      <use transform="translate(695.068359 0.015625)" xlink:href="#DejaVuSans-76"/>
      <use transform="translate(754.248047 0.015625)" xlink:href="#DejaVuSans-69"/>
      <use transform="translate(782.03125 0.015625)" xlink:href="#DejaVuSans-74"/>
      <use transform="translate(821.240234 0.015625)" xlink:href="#DejaVuSans-79"/>
      <use transform="translate(880.419922 0.015625)" xlink:href="#DejaVuSans-2c"/>
      <use transform="translate(912.207031 0.015625)" xlink:href="#DejaVuSans-20"/>
      <use transform="translate(943.994141 0.015625)" xlink:href="#DejaVuSans-52"/>
      <use transform="translate(1013.476562 0.015625)" xlink:href="#DejaVuSans-65"/>
      <use transform="translate(1075 0.015625)" xlink:href="#DejaVuSans-28"/>
      <use transform="translate(1114.013672 0.015625)" xlink:href="#DejaVuSans-Oblique-3c3"/>
      <use transform="translate(1177.392578 0.015625)" xlink:href="#DejaVuSans-29"/>
     </g>
    </g>
    <g id="text_33">
     <!-- 1e15 -->
     <g transform="translate(42.519685 223.127416)scale(0.1 -0.1)">
      <use xlink:href="#DejaVuSans-31"/>
      <use x="63.623047" xlink:href="#DejaVuSans-65"/>
      <use x="125.146484" xlink:href="#DejaVuSans-31"/>
      <use x="188.769531" xlink:href="#DejaVuSans-35"/>
     </g>
    </g>
   </g>
   <g id="line2d_34">
    <path clip-path="url(#p9e135ec5a5)" d="M 42.519685 360.622049 
L 306.141732 360.622049 
" style="fill:none;stroke:#000000;stroke-dasharray:5.55,2.4;stroke-dashoffset:0;stroke-width:1.5;"/>
   </g>
   <g id="line2d_35">
    <path clip-path="url(#p9e135ec5a5)" d="M 42.519685 247.518842 
L 47.312813 280.986976 
L 52.105941 301.316528 
L 56.899069 314.532159 
L 61.692198 323.569892 
L 66.485326 329.996175 
L 71.278454 334.707629 
L 76.071582 338.247114 
L 80.86471 340.958733 
L 85.657838 343.069089 
L 90.450966 344.732304 
L 95.244094 346.056139 
L 100.037223 347.117763 
L 104.830351 347.97361 
L 109.623479 348.665716 
L 114.416607 349.225913 
L 119.209735 349.678659 
L 124.002863 350.042998 
L 128.795991 350.333937 
L 133.58912 350.563428 
L 138.382248 350.741089 
L 143.175376 350.874725 
L 147.968504 350.970726 
L 152.761632 351.034367 
L 157.55476 351.070026 
L 162.347888 351.081367 
L 167.141016 351.071474 
L 171.934145 351.042957 
L 176.727273 350.998036 
L 181.520401 350.93861 
L 186.313529 350.866313 
L 191.106657 350.782553 
L 195.899785 350.688552 
L 200.692913 350.585372 
L 205.486042 350.473943 
L 210.27917 350.355077 
L 215.072298 350.229492 
L 219.865426 350.097819 
L 224.658554 349.960618 
L 229.451682 349.818385 
L 234.24481 349.671562 
L 239.037938 349.520544 
L 243.831067 349.365684 
L 248.624195 349.207298 
L 253.417323 349.045671 
L 258.210451 348.88106 
L 263.003579 348.713697 
L 267.796707 348.54379 
L 272.589835 348.371531 
L 277.382963 348.197091 
L 282.176092 348.020628 
L 286.96922 347.842285 
L 291.762348 347.662193 
L 296.555476 347.480471 
L 301.348604 347.297228 
" style="fill:none;stroke:#a42828;stroke-dasharray:7.4,3.2;stroke-dashoffset:0;stroke-width:2;"/>
   </g>
   <g id="line2d_36">
    <path clip-path="url(#p9e135ec5a5)" d="M 42.519685 360.616686 
L 47.312813 360.612479 
L 52.105941 360.605973 
L 56.899069 360.596308 
L 61.692198 360.582418 
L 66.485326 360.562988 
L 71.278454 360.536408 
L 76.071582 360.500706 
L 80.86471 360.453477 
L 85.657838 360.391776 
L 90.450966 360.312002 
L 95.244094 360.209736 
L 100.037223 360.079547 
L 104.830351 359.91474 
L 109.623479 359.707038 
L 114.416607 359.446184 
L 119.209735 359.119423 
L 124.002863 358.710867 
L 128.795991 358.200675 
L 133.58912 357.564052 
L 138.382248 356.77002 
L 143.175376 355.779955 
L 147.968504 354.545954 
L 152.761632 353.009166 
L 157.55476 351.098453 
L 162.347888 348.730101 
L 167.141016 345.809898 
L 171.934145 342.239751 
L 176.727273 337.931989 
L 181.520401 332.834951 
L 186.313529 326.971851 
L 191.106657 320.488834 
L 195.899785 313.69601 
L 200.692913 307.071294 
L 205.486042 301.195946 
L 210.27917 296.620161 
L 215.072298 293.709433 
L 219.865426 292.551492 
L 224.658554 292.970024 
L 229.451682 294.621887 
L 234.24481 297.114289 
L 239.037938 300.09131 
L 243.831067 303.274944 
L 248.624195 306.470994 
L 253.417323 309.556613 
L 258.210451 312.462303 
L 263.003579 315.155108 
L 267.796707 317.625437 
L 272.589835 319.877681 
L 277.382963 321.923947 
L 282.176092 323.780062 
L 286.96922 325.463143 
L 291.762348 326.990181 
L 296.555476 328.377268 
L 301.348604 329.639228 
" style="fill:none;stroke:#a4a428;stroke-dasharray:7.4,3.2;stroke-dashoffset:0;stroke-width:2;"/>
   </g>
   <g id="line2d_37">
    <path clip-path="url(#p9e135ec5a5)" d="M 42.519685 361.067862 
L 47.312813 361.266324 
L 52.105941 361.502363 
L 56.899069 361.776308 
L 61.692198 362.088105 
L 66.485326 362.437001 
L 71.278454 362.821039 
L 76.071582 363.236294 
L 80.86471 363.675675 
L 85.657838 364.127052 
L 90.450966 364.570331 
L 95.244094 364.972836 
L 100.037223 365.282081 
L 104.830351 365.414525 
L 109.623479 365.238536 
L 114.416607 364.550033 
L 119.209735 363.041965 
L 124.002863 360.278668 
L 128.795991 355.711292 
L 133.58912 348.81424 
L 138.382248 339.44024 
L 143.175376 328.330263 
L 147.968504 317.288981 
L 152.761632 308.446029 
L 157.55476 303.04053 
L 162.347888 300.967267 
L 167.141016 301.317793 
L 171.934145 303.088223 
L 176.727273 305.525141 
L 181.520401 308.164269 
L 186.313529 310.755059 
L 191.106657 313.178704 
L 195.899785 315.389828 
L 200.692913 317.38108 
L 205.486042 319.163275 
L 210.27917 320.754804 
L 215.072298 322.176212 
L 219.865426 323.44758 
L 224.658554 324.587368 
L 229.451682 325.612015 
L 234.24481 326.535908 
L 239.037938 327.37152 
L 243.831067 328.129613 
L 248.624195 328.819458 
L 253.417323 329.449041 
L 258.210451 330.025248 
L 263.003579 330.554032 
L 267.796707 331.040549 
L 272.589835 331.489278 
L 277.382963 331.904123 
L 282.176092 332.288495 
L 286.96922 332.645387 
L 291.762348 332.977427 
L 296.555476 333.286936 
L 301.348604 333.575967 
" style="fill:none;stroke:#28a428;stroke-dasharray:7.4,3.2;stroke-dashoffset:0;stroke-width:2;"/>
   </g>
   <g id="line2d_38">
    <path clip-path="url(#p9e135ec5a5)" d="M 42.519685 360.489587 
L 47.312813 360.430989 
L 52.105941 360.361488 
L 56.899069 360.28096 
L 61.692198 360.189261 
L 66.485326 360.086226 
L 71.278454 359.971674 
L 76.071582 359.8454 
L 80.86471 359.707181 
L 85.657838 359.556776 
L 90.450966 359.393921 
L 95.244094 359.218333 
L 100.037223 359.029708 
L 104.830351 358.827724 
L 109.623479 358.612036 
L 114.416607 358.382281 
L 119.209735 358.138075 
L 124.002863 357.879015 
L 128.795991 357.604679 
L 133.58912 357.314625 
L 138.382248 357.008393 
L 143.175376 356.685505 
L 147.968504 356.345468 
L 152.761632 355.987771 
L 157.55476 355.611889 
L 162.347888 355.217285 
L 167.141016 354.803411 
L 171.934145 354.369707 
L 176.727273 353.915609 
L 181.520401 353.440548 
L 186.313529 352.943955 
L 191.106657 352.425262 
L 195.899785 351.883909 
L 200.692913 351.319346 
L 205.486042 350.73104 
L 210.27917 350.11848 
L 215.072298 349.481183 
L 219.865426 348.818702 
L 224.658554 348.130631 
L 229.451682 347.416615 
L 234.24481 346.67636 
L 239.037938 345.909639 
L 243.831067 345.116305 
L 248.624195 344.296302 
L 253.417323 343.449673 
L 258.210451 342.576575 
L 263.003579 341.67729 
L 267.796707 340.752237 
L 272.589835 339.801983 
L 277.382963 338.827256 
L 282.176092 337.82896 
L 286.96922 336.808181 
L 291.762348 335.766198 
L 296.555476 334.704494 
L 301.348604 333.624765 
" style="fill:none;stroke:#28a4a4;stroke-dasharray:7.4,3.2;stroke-dashoffset:0;stroke-width:2;"/>
   </g>
   <g id="line2d_39">
    <path clip-path="url(#p9e135ec5a5)" d="M 42.519685 360.618181 
L 47.312813 360.616477 
L 52.105941 360.614462 
L 56.899069 360.612135 
L 61.692198 360.609494 
L 66.485326 360.606539 
L 71.278454 360.603269 
L 76.071582 360.599682 
L 80.86471 360.595778 
L 85.657838 360.591553 
L 90.450966 360.587007 
L 95.244094 360.582139 
L 100.037223 360.576945 
L 104.830351 360.571424 
L 109.623479 360.565573 
L 114.416607 360.559391 
L 119.209735 360.552875 
L 124.002863 360.546021 
L 128.795991 360.538828 
L 133.58912 360.531293 
L 138.382248 360.523411 
L 143.175376 360.515181 
L 147.968504 360.506598 
L 152.761632 360.497659 
L 157.55476 360.488361 
L 162.347888 360.478699 
L 167.141016 360.468669 
L 171.934145 360.458268 
L 176.727273 360.44749 
L 181.520401 360.436331 
L 186.313529 360.424787 
L 191.106657 360.412852 
L 195.899785 360.400522 
L 200.692913 360.38779 
L 205.486042 360.374652 
L 210.27917 360.361101 
L 215.072298 360.347132 
L 219.865426 360.332738 
L 224.658554 360.317914 
L 229.451682 360.302651 
L 234.24481 360.286944 
L 239.037938 360.270785 
L 243.831067 360.254167 
L 248.624195 360.237082 
L 253.417323 360.219523 
L 258.210451 360.20148 
L 263.003579 360.182946 
L 267.796707 360.163912 
L 272.589835 360.144368 
L 277.382963 360.124306 
L 282.176092 360.103715 
L 286.96922 360.082585 
L 291.762348 360.060907 
L 296.555476 360.038669 
L 301.348604 360.01586 
" style="fill:none;stroke:#2828a4;stroke-dasharray:7.4,3.2;stroke-dashoffset:0;stroke-width:2;"/>
   </g>
   <g id="line2d_40">
    <path clip-path="url(#p9e135ec5a5)" d="M 42.519685 247.822962 
L 47.312813 281.425049 
L 52.105941 301.912618 
L 56.899069 315.309673 
L 61.692198 324.550973 
L 66.485326 331.200733 
L 71.278454 336.151821 
L 76.071582 339.941 
L 80.86471 342.902647 
L 85.657838 345.24805 
L 90.450966 347.107369 
L 95.244094 348.550986 
L 100.037223 349.597848 
L 104.830351 350.213825 
L 109.623479 350.300703 
L 114.416607 349.675604 
L 119.209735 348.0428 
L 124.002863 344.969372 
L 128.795991 339.901214 
L 133.58912 332.299442 
L 138.382248 321.994956 
L 143.175376 309.697432 
L 147.968504 297.169531 
L 152.761632 286.486795 
L 157.55476 278.821061 
L 162.347888 273.986522 
L 167.141016 270.983048 
L 171.934145 268.710709 
L 176.727273 266.330067 
L 181.520401 263.326514 
L 186.313529 259.473769 
L 191.106657 254.800009 
L 195.899785 249.570624 
L 200.692913 244.256685 
L 205.486042 239.450659 
L 210.27917 235.721427 
L 215.072298 233.455256 
L 219.865426 232.760135 
L 224.658554 233.478359 
L 229.451682 235.283357 
L 234.24481 237.796866 
L 239.037938 240.675601 
L 243.831067 243.652517 
L 248.624195 246.542938 
L 253.417323 249.232324 
L 258.210451 251.65847 
L 263.003579 253.794876 
L 267.796707 255.637728 
L 272.589835 257.196644 
L 277.382963 258.488526 
L 282.176092 259.533664 
L 286.96922 260.353384 
L 291.762348 260.968708 
L 296.555476 261.399642 
L 301.348604 261.664852 
" style="fill:none;stroke:#000000;stroke-linecap:square;stroke-width:2;"/>
   </g>
   <g id="patch_10">
    <path d="M 42.519685 372.047244 
L 42.519685 226.127416 
" style="fill:none;stroke:#000000;stroke-linecap:square;stroke-linejoin:miter;stroke-width:0.8;"/>
   </g>
   <g id="patch_11">
    <path d="M 306.141732 372.047244 
L 306.141732 226.127416 
" style="fill:none;stroke:#000000;stroke-linecap:square;stroke-linejoin:miter;stroke-width:0.8;"/>
   </g>
   <g id="patch_12">
    <path d="M 42.519685 372.047244 
L 306.141732 372.047244 
" style="fill:none;stroke:#000000;stroke-linecap:square;stroke-linejoin:miter;stroke-width:0.8;"/>
   </g>
   <g id="patch_13">
    <path d="M 42.519685 226.127416 
L 306.141732 226.127416 
" style="fill:none;stroke:#000000;stroke-linecap:square;stroke-linejoin:miter;stroke-width:0.8;"/>
   </g>
   <g id="legend_1">
    <g id="patch_14">
     <path d="M 233.862045 367.047244 
L 299.141732 367.047244 
Q 301.141732 367.047244 301.141732 365.047244 
L 301.141732 292.656619 
Q 301.141732 290.656619 299.141732 290.656619 
L 233.862045 290.656619 
Q 231.862045 290.656619 231.862045 292.656619 
L 231.862045 365.047244 
Q 231.862045 367.047244 233.862045 367.047244 
z
" style="fill:#ffffff;opacity:0.8;stroke:#cccccc;stroke-linejoin:miter;"/>
    </g>
    <g id="line2d_41">
     <path d="M 235.862045 298.755057 
L 255.862045 298.755057 
" style="fill:none;stroke:#a42828;stroke-dasharray:7.4,3.2;stroke-dashoffset:0;stroke-width:2;"/>
    </g>
    <g id="line2d_42"/>
    <g id="text_34">
     <!-- Drude -->
     <g transform="translate(263.862045 302.255057)scale(0.1 -0.1)">
      <defs>
       <path d="M 1259 4147 
L 1259 519 
L 2022 519 
Q 2988 519 3436 956 
Q 3884 1394 3884 2338 
Q 3884 3275 3436 3711 
Q 2988 4147 2022 4147 
L 1259 4147 
z
M 628 4666 
L 1925 4666 
Q 3281 4666 3915 4102 
Q 4550 3538 4550 2338 
Q 4550 1131 3912 565 
Q 3275 0 1925 0 
L 628 0 
L 628 4666 
z
" id="DejaVuSans-44" transform="scale(0.015625)"/>
      </defs>
      <use xlink:href="#DejaVuSans-44"/>
      <use x="77.001953" xlink:href="#DejaVuSans-72"/>
      <use x="118.115234" xlink:href="#DejaVuSans-75"/>
      <use x="181.494141" xlink:href="#DejaVuSans-64"/>
      <use x="244.970703" xlink:href="#DejaVuSans-65"/>
     </g>
    </g>
    <g id="line2d_43">
     <path d="M 235.862045 313.433182 
L 255.862045 313.433182 
" style="fill:none;stroke:#a4a428;stroke-dasharray:7.4,3.2;stroke-dashoffset:0;stroke-width:2;"/>
    </g>
    <g id="line2d_44"/>
    <g id="text_35">
     <!-- Peak 1 -->
     <g transform="translate(263.862045 316.933182)scale(0.1 -0.1)">
      <defs>
       <path d="M 1259 4147 
L 1259 2394 
L 2053 2394 
Q 2494 2394 2734 2622 
Q 2975 2850 2975 3272 
Q 2975 3691 2734 3919 
Q 2494 4147 2053 4147 
L 1259 4147 
z
M 628 4666 
L 2053 4666 
Q 2838 4666 3239 4311 
Q 3641 3956 3641 3272 
Q 3641 2581 3239 2228 
Q 2838 1875 2053 1875 
L 1259 1875 
L 1259 0 
L 628 0 
L 628 4666 
z
" id="DejaVuSans-50" transform="scale(0.015625)"/>
       <path d="M 581 4863 
L 1159 4863 
L 1159 1991 
L 2875 3500 
L 3609 3500 
L 1753 1863 
L 3688 0 
L 2938 0 
L 1159 1709 
L 1159 0 
L 581 0 
L 581 4863 
z
" id="DejaVuSans-6b" transform="scale(0.015625)"/>
      </defs>
      <use xlink:href="#DejaVuSans-50"/>
      <use x="56.677734" xlink:href="#DejaVuSans-65"/>
      <use x="118.201172" xlink:href="#DejaVuSans-61"/>
      <use x="179.480469" xlink:href="#DejaVuSans-6b"/>
      <use x="237.390625" xlink:href="#DejaVuSans-20"/>
      <use x="269.177734" xlink:href="#DejaVuSans-31"/>
     </g>
    </g>
    <g id="line2d_45">
     <path d="M 235.862045 328.111307 
L 255.862045 328.111307 
" style="fill:none;stroke:#28a428;stroke-dasharray:7.4,3.2;stroke-dashoffset:0;stroke-width:2;"/>
    </g>
    <g id="line2d_46"/>
    <g id="text_36">
     <!-- Peak 2 -->
     <g transform="translate(263.862045 331.611307)scale(0.1 -0.1)">
      <use xlink:href="#DejaVuSans-50"/>
      <use x="56.677734" xlink:href="#DejaVuSans-65"/>
      <use x="118.201172" xlink:href="#DejaVuSans-61"/>
      <use x="179.480469" xlink:href="#DejaVuSans-6b"/>
      <use x="237.390625" xlink:href="#DejaVuSans-20"/>
      <use x="269.177734" xlink:href="#DejaVuSans-32"/>
     </g>
    </g>
    <g id="line2d_47">
     <path d="M 235.862045 342.789432 
L 255.862045 342.789432 
" style="fill:none;stroke:#28a4a4;stroke-dasharray:7.4,3.2;stroke-dashoffset:0;stroke-width:2;"/>
    </g>
    <g id="line2d_48"/>
    <g id="text_37">
     <!-- Peak 3 -->
     <g transform="translate(263.862045 346.289432)scale(0.1 -0.1)">
      <use xlink:href="#DejaVuSans-50"/>
      <use x="56.677734" xlink:href="#DejaVuSans-65"/>
      <use x="118.201172" xlink:href="#DejaVuSans-61"/>
      <use x="179.480469" xlink:href="#DejaVuSans-6b"/>
      <use x="237.390625" xlink:href="#DejaVuSans-20"/>
      <use x="269.177734" xlink:href="#DejaVuSans-33"/>
     </g>
    </g>
    <g id="line2d_49">
     <path d="M 235.862045 357.467557 
L 255.862045 357.467557 
" style="fill:none;stroke:#2828a4;stroke-dasharray:7.4,3.2;stroke-dashoffset:0;stroke-width:2;"/>
    </g>
    <g id="line2d_50"/>
    <g id="text_38">
     <!-- Peak 4 -->
     <g transform="translate(263.862045 360.967557)scale(0.1 -0.1)">
      <use xlink:href="#DejaVuSans-50"/>
      <use x="56.677734" xlink:href="#DejaVuSans-65"/>
      <use x="118.201172" xlink:href="#DejaVuSans-61"/>
      <use x="179.480469" xlink:href="#DejaVuSans-6b"/>
      <use x="237.390625" xlink:href="#DejaVuSans-20"/>
      <use x="269.177734" xlink:href="#DejaVuSans-34"/>
     </g>
    </g>
   </g>
  </g>
 </g>
 <defs>
  <clipPath id="p318d61324d">
   <rect height="145.919828" width="263.622047" x="42.519685" y="51.023622"/>
  </clipPath>
  <clipPath id="p9e135ec5a5">
   <rect height="145.919828" width="263.622047" x="42.519685" y="226.127416"/>
  </clipPath>
 </defs>
</svg>
