<?xml version="1.0" encoding="utf-8" standalone="no"?>
<!DOCTYPE svg PUBLIC "-//W3C//DTD SVG 1.1//EN"
  "http://www.w3.org/Graphics/SVG/1.1/DTD/svg11.dtd">
<!-- Created with matplotlib (https://matplotlib.org/) -->
<svg height="425.19685pt" version="1.1" viewBox="0 0 340.15748 425.19685" width="340.15748pt" xmlns="http://www.w3.org/2000/svg" xmlns:xlink="http://www.w3.org/1999/xlink">
 <metadata>
  <rdf:RDF xmlns:cc="http://creativecommons.org/ns#" xmlns:dc="http://purl.org/dc/elements/1.1/" xmlns:rdf="http://www.w3.org/1999/02/22-rdf-syntax-ns#">
   <cc:Work>
    <dc:type rdf:resource="http://purl.org/dc/dcmitype/StillImage"/>
    <dc:date>2021-03-21T15:52:41.784285</dc:date>
    <dc:format>image/svg+xml</dc:format>
    <dc:creator>
     <cc:Agent>
      <dc:title>Matplotlib v3.3.4, https://matplotlib.org/</dc:title>
     </cc:Agent>
    </dc:creator>
   </cc:Work>
  </rdf:RDF>
 </metadata>
 <defs>
  <style type="text/css">*{stroke-linecap:butt;stroke-linejoin:round;}</style>
 </defs>
 <g id="figure_1">
  <g id="patch_1">
   <path d="M 0 425.19685 
L 340.15748 425.19685 
L 340.15748 0 
L 0 0 
z
" style="fill:#ffffff;"/>
  </g>
  <g id="axes_1">
   <g id="patch_2">
    <path d="M 42.519685 196.94345 
L 306.141732 196.94345 
L 306.141732 51.023622 
L 42.519685 51.023622 
z
" style="fill:#ffffff;"/>
   </g>
   <g id="axes_2">
    <g id="patch_3">
     <path d="M 42.519685 51.023622 
L 306.141732 51.023622 
L 306.141732 51.023622 
L 42.519685 51.023622 
z
" style="fill:#ffffff;"/>
    </g>
    <g id="matplotlib.axis_1">
     <g id="xtick_1">
      <g id="line2d_1">
       <defs>
        <path d="M 0 0 
L 0 -3.5 
" id="m898e2f2faa" style="stroke:#000000;stroke-width:0.8;"/>
       </defs>
       <g>
        <use style="stroke:#000000;stroke-width:0.8;" x="56.390993" xlink:href="#m898e2f2faa" y="51.023622"/>
       </g>
      </g>
      <g id="text_1">
       <!-- 1240 -->
       <g transform="translate(43.665993 41.943935)scale(0.1 -0.1)">
        <defs>
         <path d="M 12.40625 8.296875 
L 28.515625 8.296875 
L 28.515625 63.921875 
L 10.984375 60.40625 
L 10.984375 69.390625 
L 28.421875 72.90625 
L 38.28125 72.90625 
L 38.28125 8.296875 
L 54.390625 8.296875 
L 54.390625 0 
L 12.40625 0 
z
" id="DejaVuSans-49"/>
         <path d="M 19.1875 8.296875 
L 53.609375 8.296875 
L 53.609375 0 
L 7.328125 0 
L 7.328125 8.296875 
Q 12.9375 14.109375 22.625 23.890625 
Q 32.328125 33.6875 34.8125 36.53125 
Q 39.546875 41.84375 41.421875 45.53125 
Q 43.3125 49.21875 43.3125 52.78125 
Q 43.3125 58.59375 39.234375 62.25 
Q 35.15625 65.921875 28.609375 65.921875 
Q 23.96875 65.921875 18.8125 64.3125 
Q 13.671875 62.703125 7.8125 59.421875 
L 7.8125 69.390625 
Q 13.765625 71.78125 18.9375 73 
Q 24.125 74.21875 28.421875 74.21875 
Q 39.75 74.21875 46.484375 68.546875 
Q 53.21875 62.890625 53.21875 53.421875 
Q 53.21875 48.921875 51.53125 44.890625 
Q 49.859375 40.875 45.40625 35.40625 
Q 44.1875 33.984375 37.640625 27.21875 
Q 31.109375 20.453125 19.1875 8.296875 
z
" id="DejaVuSans-50"/>
         <path d="M 37.796875 64.3125 
L 12.890625 25.390625 
L 37.796875 25.390625 
z
M 35.203125 72.90625 
L 47.609375 72.90625 
L 47.609375 25.390625 
L 58.015625 25.390625 
L 58.015625 17.1875 
L 47.609375 17.1875 
L 47.609375 0 
L 37.796875 0 
L 37.796875 17.1875 
L 4.890625 17.1875 
L 4.890625 26.703125 
z
" id="DejaVuSans-52"/>
         <path d="M 31.78125 66.40625 
Q 24.171875 66.40625 20.328125 58.90625 
Q 16.5 51.421875 16.5 36.375 
Q 16.5 21.390625 20.328125 13.890625 
Q 24.171875 6.390625 31.78125 6.390625 
Q 39.453125 6.390625 43.28125 13.890625 
Q 47.125 21.390625 47.125 36.375 
Q 47.125 51.421875 43.28125 58.90625 
Q 39.453125 66.40625 31.78125 66.40625 
z
M 31.78125 74.21875 
Q 44.046875 74.21875 50.515625 64.515625 
Q 56.984375 54.828125 56.984375 36.375 
Q 56.984375 17.96875 50.515625 8.265625 
Q 44.046875 -1.421875 31.78125 -1.421875 
Q 19.53125 -1.421875 13.0625 8.265625 
Q 6.59375 17.96875 6.59375 36.375 
Q 6.59375 54.828125 13.0625 64.515625 
Q 19.53125 74.21875 31.78125 74.21875 
z
" id="DejaVuSans-48"/>
        </defs>
        <use xlink:href="#DejaVuSans-49"/>
        <use x="63.623047" xlink:href="#DejaVuSans-50"/>
        <use x="127.246094" xlink:href="#DejaVuSans-52"/>
        <use x="190.869141" xlink:href="#DejaVuSans-48"/>
       </g>
      </g>
     </g>
     <g id="xtick_2">
      <g id="line2d_2">
       <g>
        <use style="stroke:#000000;stroke-width:0.8;" x="84.137146" xlink:href="#m898e2f2faa" y="51.023622"/>
       </g>
      </g>
      <g id="text_2">
       <!-- 620 -->
       <g transform="translate(74.593396 41.943935)scale(0.1 -0.1)">
        <defs>
         <path d="M 33.015625 40.375 
Q 26.375 40.375 22.484375 35.828125 
Q 18.609375 31.296875 18.609375 23.390625 
Q 18.609375 15.53125 22.484375 10.953125 
Q 26.375 6.390625 33.015625 6.390625 
Q 39.65625 6.390625 43.53125 10.953125 
Q 47.40625 15.53125 47.40625 23.390625 
Q 47.40625 31.296875 43.53125 35.828125 
Q 39.65625 40.375 33.015625 40.375 
z
M 52.59375 71.296875 
L 52.59375 62.3125 
Q 48.875 64.0625 45.09375 64.984375 
Q 41.3125 65.921875 37.59375 65.921875 
Q 27.828125 65.921875 22.671875 59.328125 
Q 17.53125 52.734375 16.796875 39.40625 
Q 19.671875 43.65625 24.015625 45.921875 
Q 28.375 48.1875 33.59375 48.1875 
Q 44.578125 48.1875 50.953125 41.515625 
Q 57.328125 34.859375 57.328125 23.390625 
Q 57.328125 12.15625 50.6875 5.359375 
Q 44.046875 -1.421875 33.015625 -1.421875 
Q 20.359375 -1.421875 13.671875 8.265625 
Q 6.984375 17.96875 6.984375 36.375 
Q 6.984375 53.65625 15.1875 63.9375 
Q 23.390625 74.21875 37.203125 74.21875 
Q 40.921875 74.21875 44.703125 73.484375 
Q 48.484375 72.75 52.59375 71.296875 
z
" id="DejaVuSans-54"/>
        </defs>
        <use xlink:href="#DejaVuSans-54"/>
        <use x="63.623047" xlink:href="#DejaVuSans-50"/>
        <use x="127.246094" xlink:href="#DejaVuSans-48"/>
       </g>
      </g>
     </g>
     <g id="xtick_3">
      <g id="line2d_3">
       <g>
        <use style="stroke:#000000;stroke-width:0.8;" x="111.950481" xlink:href="#m898e2f2faa" y="51.023622"/>
       </g>
      </g>
      <g id="text_3">
       <!-- 413 -->
       <g transform="translate(102.406731 41.943935)scale(0.1 -0.1)">
        <defs>
         <path d="M 40.578125 39.3125 
Q 47.65625 37.796875 51.625 33 
Q 55.609375 28.21875 55.609375 21.1875 
Q 55.609375 10.40625 48.1875 4.484375 
Q 40.765625 -1.421875 27.09375 -1.421875 
Q 22.515625 -1.421875 17.65625 -0.515625 
Q 12.796875 0.390625 7.625 2.203125 
L 7.625 11.71875 
Q 11.71875 9.328125 16.59375 8.109375 
Q 21.484375 6.890625 26.8125 6.890625 
Q 36.078125 6.890625 40.9375 10.546875 
Q 45.796875 14.203125 45.796875 21.1875 
Q 45.796875 27.640625 41.28125 31.265625 
Q 36.765625 34.90625 28.71875 34.90625 
L 20.21875 34.90625 
L 20.21875 43.015625 
L 29.109375 43.015625 
Q 36.375 43.015625 40.234375 45.921875 
Q 44.09375 48.828125 44.09375 54.296875 
Q 44.09375 59.90625 40.109375 62.90625 
Q 36.140625 65.921875 28.71875 65.921875 
Q 24.65625 65.921875 20.015625 65.03125 
Q 15.375 64.15625 9.8125 62.3125 
L 9.8125 71.09375 
Q 15.4375 72.65625 20.34375 73.4375 
Q 25.25 74.21875 29.59375 74.21875 
Q 40.828125 74.21875 47.359375 69.109375 
Q 53.90625 64.015625 53.90625 55.328125 
Q 53.90625 49.265625 50.4375 45.09375 
Q 46.96875 40.921875 40.578125 39.3125 
z
" id="DejaVuSans-51"/>
        </defs>
        <use xlink:href="#DejaVuSans-52"/>
        <use x="63.623047" xlink:href="#DejaVuSans-49"/>
        <use x="127.246094" xlink:href="#DejaVuSans-51"/>
       </g>
      </g>
     </g>
     <g id="xtick_4">
      <g id="line2d_4">
       <g>
        <use style="stroke:#000000;stroke-width:0.8;" x="139.629452" xlink:href="#m898e2f2faa" y="51.023622"/>
       </g>
      </g>
      <g id="text_4">
       <!-- 310 -->
       <g transform="translate(130.085702 41.943935)scale(0.1 -0.1)">
        <use xlink:href="#DejaVuSans-51"/>
        <use x="63.623047" xlink:href="#DejaVuSans-49"/>
        <use x="127.246094" xlink:href="#DejaVuSans-48"/>
       </g>
      </g>
     </g>
     <g id="xtick_5">
      <g id="line2d_5">
       <g>
        <use style="stroke:#000000;stroke-width:0.8;" x="167.375605" xlink:href="#m898e2f2faa" y="51.023622"/>
       </g>
      </g>
      <g id="text_5">
       <!-- 248 -->
       <g transform="translate(157.831855 41.943935)scale(0.1 -0.1)">
        <defs>
         <path d="M 31.78125 34.625 
Q 24.75 34.625 20.71875 30.859375 
Q 16.703125 27.09375 16.703125 20.515625 
Q 16.703125 13.921875 20.71875 10.15625 
Q 24.75 6.390625 31.78125 6.390625 
Q 38.8125 6.390625 42.859375 10.171875 
Q 46.921875 13.96875 46.921875 20.515625 
Q 46.921875 27.09375 42.890625 30.859375 
Q 38.875 34.625 31.78125 34.625 
z
M 21.921875 38.8125 
Q 15.578125 40.375 12.03125 44.71875 
Q 8.5 49.078125 8.5 55.328125 
Q 8.5 64.0625 14.71875 69.140625 
Q 20.953125 74.21875 31.78125 74.21875 
Q 42.671875 74.21875 48.875 69.140625 
Q 55.078125 64.0625 55.078125 55.328125 
Q 55.078125 49.078125 51.53125 44.71875 
Q 48 40.375 41.703125 38.8125 
Q 48.828125 37.15625 52.796875 32.3125 
Q 56.78125 27.484375 56.78125 20.515625 
Q 56.78125 9.90625 50.3125 4.234375 
Q 43.84375 -1.421875 31.78125 -1.421875 
Q 19.734375 -1.421875 13.25 4.234375 
Q 6.78125 9.90625 6.78125 20.515625 
Q 6.78125 27.484375 10.78125 32.3125 
Q 14.796875 37.15625 21.921875 38.8125 
z
M 18.3125 54.390625 
Q 18.3125 48.734375 21.84375 45.5625 
Q 25.390625 42.390625 31.78125 42.390625 
Q 38.140625 42.390625 41.71875 45.5625 
Q 45.3125 48.734375 45.3125 54.390625 
Q 45.3125 60.0625 41.71875 63.234375 
Q 38.140625 66.40625 31.78125 66.40625 
Q 25.390625 66.40625 21.84375 63.234375 
Q 18.3125 60.0625 18.3125 54.390625 
z
" id="DejaVuSans-56"/>
        </defs>
        <use xlink:href="#DejaVuSans-50"/>
        <use x="63.623047" xlink:href="#DejaVuSans-52"/>
        <use x="127.246094" xlink:href="#DejaVuSans-56"/>
       </g>
      </g>
     </g>
     <g id="xtick_6">
      <g id="line2d_6">
       <g>
        <use style="stroke:#000000;stroke-width:0.8;" x="194.85368" xlink:href="#m898e2f2faa" y="51.023622"/>
       </g>
      </g>
      <g id="text_6">
       <!-- 207 -->
       <g transform="translate(185.30993 41.943935)scale(0.1 -0.1)">
        <defs>
         <path d="M 8.203125 72.90625 
L 55.078125 72.90625 
L 55.078125 68.703125 
L 28.609375 0 
L 18.3125 0 
L 43.21875 64.59375 
L 8.203125 64.59375 
z
" id="DejaVuSans-55"/>
        </defs>
        <use xlink:href="#DejaVuSans-50"/>
        <use x="63.623047" xlink:href="#DejaVuSans-48"/>
        <use x="127.246094" xlink:href="#DejaVuSans-55"/>
       </g>
      </g>
     </g>
     <g id="xtick_7">
      <g id="line2d_7">
       <g>
        <use style="stroke:#000000;stroke-width:0.8;" x="223.024669" xlink:href="#m898e2f2faa" y="51.023622"/>
       </g>
      </g>
      <g id="text_7">
       <!-- 177 -->
       <g transform="translate(213.480919 41.943935)scale(0.1 -0.1)">
        <use xlink:href="#DejaVuSans-49"/>
        <use x="63.623047" xlink:href="#DejaVuSans-55"/>
        <use x="127.246094" xlink:href="#DejaVuSans-55"/>
       </g>
      </g>
     </g>
     <g id="xtick_8">
      <g id="line2d_8">
       <g>
        <use style="stroke:#000000;stroke-width:0.8;" x="250.614064" xlink:href="#m898e2f2faa" y="51.023622"/>
       </g>
      </g>
      <g id="text_8">
       <!-- 155 -->
       <g transform="translate(241.070314 41.943935)scale(0.1 -0.1)">
        <defs>
         <path d="M 10.796875 72.90625 
L 49.515625 72.90625 
L 49.515625 64.59375 
L 19.828125 64.59375 
L 19.828125 46.734375 
Q 21.96875 47.46875 24.109375 47.828125 
Q 26.265625 48.1875 28.421875 48.1875 
Q 40.625 48.1875 47.75 41.5 
Q 54.890625 34.8125 54.890625 23.390625 
Q 54.890625 11.625 47.5625 5.09375 
Q 40.234375 -1.421875 26.90625 -1.421875 
Q 22.3125 -1.421875 17.546875 -0.640625 
Q 12.796875 0.140625 7.71875 1.703125 
L 7.71875 11.625 
Q 12.109375 9.234375 16.796875 8.0625 
Q 21.484375 6.890625 26.703125 6.890625 
Q 35.15625 6.890625 40.078125 11.328125 
Q 45.015625 15.765625 45.015625 23.390625 
Q 45.015625 31 40.078125 35.4375 
Q 35.15625 39.890625 26.703125 39.890625 
Q 22.75 39.890625 18.8125 39.015625 
Q 14.890625 38.140625 10.796875 36.28125 
z
" id="DejaVuSans-53"/>
        </defs>
        <use xlink:href="#DejaVuSans-49"/>
        <use x="63.623047" xlink:href="#DejaVuSans-53"/>
        <use x="127.246094" xlink:href="#DejaVuSans-53"/>
       </g>
      </g>
     </g>
     <g id="xtick_9">
      <g id="line2d_9">
       <g>
        <use style="stroke:#000000;stroke-width:0.8;" x="277.958099" xlink:href="#m898e2f2faa" y="51.023622"/>
       </g>
      </g>
      <g id="text_9">
       <!-- 138 -->
       <g transform="translate(268.414349 41.943935)scale(0.1 -0.1)">
        <use xlink:href="#DejaVuSans-49"/>
        <use x="63.623047" xlink:href="#DejaVuSans-51"/>
        <use x="127.246094" xlink:href="#DejaVuSans-56"/>
       </g>
      </g>
     </g>
     <g id="xtick_10">
      <g id="line2d_10">
       <g>
        <use style="stroke:#000000;stroke-width:0.8;" x="306.10637" xlink:href="#m898e2f2faa" y="51.023622"/>
       </g>
      </g>
      <g id="text_10">
       <!-- 124 -->
       <g transform="translate(296.56262 41.943935)scale(0.1 -0.1)">
        <use xlink:href="#DejaVuSans-49"/>
        <use x="63.623047" xlink:href="#DejaVuSans-50"/>
        <use x="127.246094" xlink:href="#DejaVuSans-52"/>
       </g>
      </g>
     </g>
     <g id="text_11">
      <!-- $\lambda$(nm) -->
      <g transform="translate(159.430709 30.345497)scale(0.1 -0.1)">
       <defs>
        <path d="M 36.71875 67.4375 
L 48.828125 0 
L 39.3125 0 
L 31.84375 40.4375 
L 5.125 0 
L -4.390625 0 
L 29.734375 52.4375 
L 28.03125 62.109375 
Q 26.953125 68.265625 21.734375 68.265625 
L 17.046875 68.265625 
L 18.5 75.984375 
L 24.21875 75.875 
Q 35.203125 75.734375 36.71875 67.4375 
z
" id="DejaVuSans-Oblique-955"/>
        <path d="M 31 75.875 
Q 24.46875 64.65625 21.28125 53.65625 
Q 18.109375 42.671875 18.109375 31.390625 
Q 18.109375 20.125 21.3125 9.0625 
Q 24.515625 -2 31 -13.1875 
L 23.1875 -13.1875 
Q 15.875 -1.703125 12.234375 9.375 
Q 8.59375 20.453125 8.59375 31.390625 
Q 8.59375 42.28125 12.203125 53.3125 
Q 15.828125 64.359375 23.1875 75.875 
z
" id="DejaVuSans-40"/>
        <path d="M 54.890625 33.015625 
L 54.890625 0 
L 45.90625 0 
L 45.90625 32.71875 
Q 45.90625 40.484375 42.875 44.328125 
Q 39.84375 48.1875 33.796875 48.1875 
Q 26.515625 48.1875 22.3125 43.546875 
Q 18.109375 38.921875 18.109375 30.90625 
L 18.109375 0 
L 9.078125 0 
L 9.078125 54.6875 
L 18.109375 54.6875 
L 18.109375 46.1875 
Q 21.34375 51.125 25.703125 53.5625 
Q 30.078125 56 35.796875 56 
Q 45.21875 56 50.046875 50.171875 
Q 54.890625 44.34375 54.890625 33.015625 
z
" id="DejaVuSans-110"/>
        <path d="M 52 44.1875 
Q 55.375 50.25 60.0625 53.125 
Q 64.75 56 71.09375 56 
Q 79.640625 56 84.28125 50.015625 
Q 88.921875 44.046875 88.921875 33.015625 
L 88.921875 0 
L 79.890625 0 
L 79.890625 32.71875 
Q 79.890625 40.578125 77.09375 44.375 
Q 74.3125 48.1875 68.609375 48.1875 
Q 61.625 48.1875 57.5625 43.546875 
Q 53.515625 38.921875 53.515625 30.90625 
L 53.515625 0 
L 44.484375 0 
L 44.484375 32.71875 
Q 44.484375 40.625 41.703125 44.40625 
Q 38.921875 48.1875 33.109375 48.1875 
Q 26.21875 48.1875 22.15625 43.53125 
Q 18.109375 38.875 18.109375 30.90625 
L 18.109375 0 
L 9.078125 0 
L 9.078125 54.6875 
L 18.109375 54.6875 
L 18.109375 46.1875 
Q 21.1875 51.21875 25.484375 53.609375 
Q 29.78125 56 35.6875 56 
Q 41.65625 56 45.828125 52.96875 
Q 50 49.953125 52 44.1875 
z
" id="DejaVuSans-109"/>
        <path d="M 8.015625 75.875 
L 15.828125 75.875 
Q 23.140625 64.359375 26.78125 53.3125 
Q 30.421875 42.28125 30.421875 31.390625 
Q 30.421875 20.453125 26.78125 9.375 
Q 23.140625 -1.703125 15.828125 -13.1875 
L 8.015625 -13.1875 
Q 14.5 -2 17.703125 9.0625 
Q 20.90625 20.125 20.90625 31.390625 
Q 20.90625 42.671875 17.703125 53.65625 
Q 14.5 64.65625 8.015625 75.875 
z
" id="DejaVuSans-41"/>
       </defs>
       <use transform="translate(0 0.015625)" xlink:href="#DejaVuSans-Oblique-955"/>
       <use transform="translate(59.179688 0.015625)" xlink:href="#DejaVuSans-40"/>
       <use transform="translate(98.193359 0.015625)" xlink:href="#DejaVuSans-110"/>
       <use transform="translate(161.572266 0.015625)" xlink:href="#DejaVuSans-109"/>
       <use transform="translate(258.984375 0.015625)" xlink:href="#DejaVuSans-41"/>
      </g>
     </g>
    </g>
    <g id="matplotlib.axis_2"/>
    <g id="patch_4">
     <path d="M 306.141732 51.023622 
L 42.519685 51.023622 
" style="fill:none;stroke:#000000;stroke-linecap:square;stroke-linejoin:miter;stroke-width:0.8;"/>
    </g>
   </g>
   <g id="matplotlib.axis_3">
    <g id="xtick_11">
     <g id="line2d_11">
      <defs>
       <path d="M 0 0 
L 0 3.5 
" id="mf0dda10ed2" style="stroke:#000000;stroke-width:0.8;"/>
      </defs>
      <g>
       <use style="stroke:#000000;stroke-width:0.8;" x="56.39453" xlink:href="#mf0dda10ed2" y="196.94345"/>
      </g>
     </g>
     <g id="text_12">
      <!-- 1 -->
      <g transform="translate(53.21328 211.541888)scale(0.1 -0.1)">
       <use xlink:href="#DejaVuSans-49"/>
      </g>
     </g>
    </g>
    <g id="xtick_12">
     <g id="line2d_12">
      <g>
       <use style="stroke:#000000;stroke-width:0.8;" x="84.144219" xlink:href="#mf0dda10ed2" y="196.94345"/>
      </g>
     </g>
     <g id="text_13">
      <!-- 2 -->
      <g transform="translate(80.962969 211.541888)scale(0.1 -0.1)">
       <use xlink:href="#DejaVuSans-50"/>
      </g>
     </g>
    </g>
    <g id="xtick_13">
     <g id="line2d_13">
      <g>
       <use style="stroke:#000000;stroke-width:0.8;" x="111.893908" xlink:href="#mf0dda10ed2" y="196.94345"/>
      </g>
     </g>
     <g id="text_14">
      <!-- 3 -->
      <g transform="translate(108.712658 211.541888)scale(0.1 -0.1)">
       <use xlink:href="#DejaVuSans-51"/>
      </g>
     </g>
    </g>
    <g id="xtick_14">
     <g id="line2d_14">
      <g>
       <use style="stroke:#000000;stroke-width:0.8;" x="139.643597" xlink:href="#mf0dda10ed2" y="196.94345"/>
      </g>
     </g>
     <g id="text_15">
      <!-- 4 -->
      <g transform="translate(136.462347 211.541888)scale(0.1 -0.1)">
       <use xlink:href="#DejaVuSans-52"/>
      </g>
     </g>
    </g>
    <g id="xtick_15">
     <g id="line2d_15">
      <g>
       <use style="stroke:#000000;stroke-width:0.8;" x="167.393286" xlink:href="#mf0dda10ed2" y="196.94345"/>
      </g>
     </g>
     <g id="text_16">
      <!-- 5 -->
      <g transform="translate(164.212036 211.541888)scale(0.1 -0.1)">
       <use xlink:href="#DejaVuSans-53"/>
      </g>
     </g>
    </g>
    <g id="xtick_16">
     <g id="line2d_16">
      <g>
       <use style="stroke:#000000;stroke-width:0.8;" x="195.142976" xlink:href="#mf0dda10ed2" y="196.94345"/>
      </g>
     </g>
     <g id="text_17">
      <!-- 6 -->
      <g transform="translate(191.961726 211.541888)scale(0.1 -0.1)">
       <use xlink:href="#DejaVuSans-54"/>
      </g>
     </g>
    </g>
    <g id="xtick_17">
     <g id="line2d_17">
      <g>
       <use style="stroke:#000000;stroke-width:0.8;" x="222.892665" xlink:href="#mf0dda10ed2" y="196.94345"/>
      </g>
     </g>
     <g id="text_18">
      <!-- 7 -->
      <g transform="translate(219.711415 211.541888)scale(0.1 -0.1)">
       <use xlink:href="#DejaVuSans-55"/>
      </g>
     </g>
    </g>
    <g id="xtick_18">
     <g id="line2d_18">
      <g>
       <use style="stroke:#000000;stroke-width:0.8;" x="250.642354" xlink:href="#mf0dda10ed2" y="196.94345"/>
      </g>
     </g>
     <g id="text_19">
      <!-- 8 -->
      <g transform="translate(247.461104 211.541888)scale(0.1 -0.1)">
       <use xlink:href="#DejaVuSans-56"/>
      </g>
     </g>
    </g>
    <g id="xtick_19">
     <g id="line2d_19">
      <g>
       <use style="stroke:#000000;stroke-width:0.8;" x="278.392043" xlink:href="#mf0dda10ed2" y="196.94345"/>
      </g>
     </g>
     <g id="text_20">
      <!-- 9 -->
      <g transform="translate(275.210793 211.541888)scale(0.1 -0.1)">
       <defs>
        <path d="M 10.984375 1.515625 
L 10.984375 10.5 
Q 14.703125 8.734375 18.5 7.8125 
Q 22.3125 6.890625 25.984375 6.890625 
Q 35.75 6.890625 40.890625 13.453125 
Q 46.046875 20.015625 46.78125 33.40625 
Q 43.953125 29.203125 39.59375 26.953125 
Q 35.25 24.703125 29.984375 24.703125 
Q 19.046875 24.703125 12.671875 31.3125 
Q 6.296875 37.9375 6.296875 49.421875 
Q 6.296875 60.640625 12.9375 67.421875 
Q 19.578125 74.21875 30.609375 74.21875 
Q 43.265625 74.21875 49.921875 64.515625 
Q 56.59375 54.828125 56.59375 36.375 
Q 56.59375 19.140625 48.40625 8.859375 
Q 40.234375 -1.421875 26.421875 -1.421875 
Q 22.703125 -1.421875 18.890625 -0.6875 
Q 15.09375 0.046875 10.984375 1.515625 
z
M 30.609375 32.421875 
Q 37.25 32.421875 41.125 36.953125 
Q 45.015625 41.5 45.015625 49.421875 
Q 45.015625 57.28125 41.125 61.84375 
Q 37.25 66.40625 30.609375 66.40625 
Q 23.96875 66.40625 20.09375 61.84375 
Q 16.21875 57.28125 16.21875 49.421875 
Q 16.21875 41.5 20.09375 36.953125 
Q 23.96875 32.421875 30.609375 32.421875 
z
" id="DejaVuSans-57"/>
       </defs>
       <use xlink:href="#DejaVuSans-57"/>
      </g>
     </g>
    </g>
    <g id="xtick_20">
     <g id="line2d_20">
      <g>
       <use style="stroke:#000000;stroke-width:0.8;" x="306.141732" xlink:href="#mf0dda10ed2" y="196.94345"/>
      </g>
     </g>
     <g id="text_21">
      <!-- 10 -->
      <g transform="translate(299.779232 211.541888)scale(0.1 -0.1)">
       <use xlink:href="#DejaVuSans-49"/>
       <use x="63.623047" xlink:href="#DejaVuSans-48"/>
      </g>
     </g>
    </g>
   </g>
   <g id="matplotlib.axis_4">
    <g id="ytick_1">
     <g id="line2d_21">
      <defs>
       <path d="M 0 0 
L -3.5 0 
" id="md20bdea2c9" style="stroke:#000000;stroke-width:0.8;"/>
      </defs>
      <g>
       <use style="stroke:#000000;stroke-width:0.8;" x="42.519685" xlink:href="#md20bdea2c9" y="196.94345"/>
      </g>
     </g>
     <g id="text_22">
      <!-- $10^{-3}$ -->
      <g transform="translate(12.019685 200.742669)scale(0.1 -0.1)">
       <defs>
        <path d="M 10.59375 35.5 
L 73.1875 35.5 
L 73.1875 27.203125 
L 10.59375 27.203125 
z
" id="DejaVuSans-8722"/>
       </defs>
       <use transform="translate(0 0.765625)" xlink:href="#DejaVuSans-49"/>
       <use transform="translate(63.623047 0.765625)" xlink:href="#DejaVuSans-48"/>
       <use transform="translate(128.203125 39.046875)scale(0.7)" xlink:href="#DejaVuSans-8722"/>
       <use transform="translate(186.855469 39.046875)scale(0.7)" xlink:href="#DejaVuSans-51"/>
      </g>
     </g>
    </g>
    <g id="ytick_2">
     <g id="line2d_22">
      <g>
       <use style="stroke:#000000;stroke-width:0.8;" x="42.519685" xlink:href="#md20bdea2c9" y="160.463493"/>
      </g>
     </g>
     <g id="text_23">
      <!-- 0.01 -->
      <g transform="translate(13.25406 164.262712)scale(0.1 -0.1)">
       <defs>
        <path d="M 10.6875 12.40625 
L 21 12.40625 
L 21 0 
L 10.6875 0 
z
" id="DejaVuSans-46"/>
       </defs>
       <use xlink:href="#DejaVuSans-48"/>
       <use x="63.623047" xlink:href="#DejaVuSans-46"/>
       <use x="95.410156" xlink:href="#DejaVuSans-48"/>
       <use x="159.033203" xlink:href="#DejaVuSans-49"/>
      </g>
     </g>
    </g>
    <g id="ytick_3">
     <g id="line2d_23">
      <g>
       <use style="stroke:#000000;stroke-width:0.8;" x="42.519685" xlink:href="#md20bdea2c9" y="123.983536"/>
      </g>
     </g>
     <g id="text_24">
      <!-- 0.1 -->
      <g transform="translate(19.61656 127.782755)scale(0.1 -0.1)">
       <use xlink:href="#DejaVuSans-48"/>
       <use x="63.623047" xlink:href="#DejaVuSans-46"/>
       <use x="95.410156" xlink:href="#DejaVuSans-49"/>
      </g>
     </g>
    </g>
    <g id="ytick_4">
     <g id="line2d_24">
      <g>
       <use style="stroke:#000000;stroke-width:0.8;" x="42.519685" xlink:href="#md20bdea2c9" y="87.503579"/>
      </g>
     </g>
     <g id="text_25">
      <!-- 1 -->
      <g transform="translate(29.157185 91.302798)scale(0.1 -0.1)">
       <use xlink:href="#DejaVuSans-49"/>
      </g>
     </g>
    </g>
    <g id="ytick_5">
     <g id="line2d_25">
      <g>
       <use style="stroke:#000000;stroke-width:0.8;" x="42.519685" xlink:href="#md20bdea2c9" y="51.023622"/>
      </g>
     </g>
     <g id="text_26">
      <!-- 10 -->
      <g transform="translate(22.794685 54.822841)scale(0.1 -0.1)">
       <use xlink:href="#DejaVuSans-49"/>
       <use x="63.623047" xlink:href="#DejaVuSans-48"/>
      </g>
     </g>
    </g>
    <g id="ytick_6">
     <g id="line2d_26">
      <defs>
       <path d="M 0 0 
L -2 0 
" id="m4b20c36b36" style="stroke:#000000;stroke-width:0.6;"/>
      </defs>
      <g>
       <use style="stroke:#000000;stroke-width:0.6;" x="42.519685" xlink:href="#m4b20c36b36" y="185.961889"/>
      </g>
     </g>
    </g>
    <g id="ytick_7">
     <g id="line2d_27">
      <g>
       <use style="stroke:#000000;stroke-width:0.6;" x="42.519685" xlink:href="#m4b20c36b36" y="179.538087"/>
      </g>
     </g>
    </g>
    <g id="ytick_8">
     <g id="line2d_28">
      <g>
       <use style="stroke:#000000;stroke-width:0.6;" x="42.519685" xlink:href="#m4b20c36b36" y="174.980328"/>
      </g>
     </g>
    </g>
    <g id="ytick_9">
     <g id="line2d_29">
      <g>
       <use style="stroke:#000000;stroke-width:0.6;" x="42.519685" xlink:href="#m4b20c36b36" y="171.445055"/>
      </g>
     </g>
    </g>
    <g id="ytick_10">
     <g id="line2d_30">
      <g>
       <use style="stroke:#000000;stroke-width:0.6;" x="42.519685" xlink:href="#m4b20c36b36" y="168.556526"/>
      </g>
     </g>
    </g>
    <g id="ytick_11">
     <g id="line2d_31">
      <g>
       <use style="stroke:#000000;stroke-width:0.6;" x="42.519685" xlink:href="#m4b20c36b36" y="166.11431"/>
      </g>
     </g>
    </g>
    <g id="ytick_12">
     <g id="line2d_32">
      <g>
       <use style="stroke:#000000;stroke-width:0.6;" x="42.519685" xlink:href="#m4b20c36b36" y="163.998766"/>
      </g>
     </g>
    </g>
    <g id="ytick_13">
     <g id="line2d_33">
      <g>
       <use style="stroke:#000000;stroke-width:0.6;" x="42.519685" xlink:href="#m4b20c36b36" y="162.132724"/>
      </g>
     </g>
    </g>
    <g id="ytick_14">
     <g id="line2d_34">
      <g>
       <use style="stroke:#000000;stroke-width:0.6;" x="42.519685" xlink:href="#m4b20c36b36" y="149.481932"/>
      </g>
     </g>
    </g>
    <g id="ytick_15">
     <g id="line2d_35">
      <g>
       <use style="stroke:#000000;stroke-width:0.6;" x="42.519685" xlink:href="#m4b20c36b36" y="143.05813"/>
      </g>
     </g>
    </g>
    <g id="ytick_16">
     <g id="line2d_36">
      <g>
       <use style="stroke:#000000;stroke-width:0.6;" x="42.519685" xlink:href="#m4b20c36b36" y="138.500371"/>
      </g>
     </g>
    </g>
    <g id="ytick_17">
     <g id="line2d_37">
      <g>
       <use style="stroke:#000000;stroke-width:0.6;" x="42.519685" xlink:href="#m4b20c36b36" y="134.965097"/>
      </g>
     </g>
    </g>
    <g id="ytick_18">
     <g id="line2d_38">
      <g>
       <use style="stroke:#000000;stroke-width:0.6;" x="42.519685" xlink:href="#m4b20c36b36" y="132.076569"/>
      </g>
     </g>
    </g>
    <g id="ytick_19">
     <g id="line2d_39">
      <g>
       <use style="stroke:#000000;stroke-width:0.6;" x="42.519685" xlink:href="#m4b20c36b36" y="129.634353"/>
      </g>
     </g>
    </g>
    <g id="ytick_20">
     <g id="line2d_40">
      <g>
       <use style="stroke:#000000;stroke-width:0.6;" x="42.519685" xlink:href="#m4b20c36b36" y="127.518809"/>
      </g>
     </g>
    </g>
    <g id="ytick_21">
     <g id="line2d_41">
      <g>
       <use style="stroke:#000000;stroke-width:0.6;" x="42.519685" xlink:href="#m4b20c36b36" y="125.652767"/>
      </g>
     </g>
    </g>
    <g id="ytick_22">
     <g id="line2d_42">
      <g>
       <use style="stroke:#000000;stroke-width:0.6;" x="42.519685" xlink:href="#m4b20c36b36" y="113.001975"/>
      </g>
     </g>
    </g>
    <g id="ytick_23">
     <g id="line2d_43">
      <g>
       <use style="stroke:#000000;stroke-width:0.6;" x="42.519685" xlink:href="#m4b20c36b36" y="106.578173"/>
      </g>
     </g>
    </g>
    <g id="ytick_24">
     <g id="line2d_44">
      <g>
       <use style="stroke:#000000;stroke-width:0.6;" x="42.519685" xlink:href="#m4b20c36b36" y="102.020414"/>
      </g>
     </g>
    </g>
    <g id="ytick_25">
     <g id="line2d_45">
      <g>
       <use style="stroke:#000000;stroke-width:0.6;" x="42.519685" xlink:href="#m4b20c36b36" y="98.48514"/>
      </g>
     </g>
    </g>
    <g id="ytick_26">
     <g id="line2d_46">
      <g>
       <use style="stroke:#000000;stroke-width:0.6;" x="42.519685" xlink:href="#m4b20c36b36" y="95.596612"/>
      </g>
     </g>
    </g>
    <g id="ytick_27">
     <g id="line2d_47">
      <g>
       <use style="stroke:#000000;stroke-width:0.6;" x="42.519685" xlink:href="#m4b20c36b36" y="93.154396"/>
      </g>
     </g>
    </g>
    <g id="ytick_28">
     <g id="line2d_48">
      <g>
       <use style="stroke:#000000;stroke-width:0.6;" x="42.519685" xlink:href="#m4b20c36b36" y="91.038852"/>
      </g>
     </g>
    </g>
    <g id="ytick_29">
     <g id="line2d_49">
      <g>
       <use style="stroke:#000000;stroke-width:0.6;" x="42.519685" xlink:href="#m4b20c36b36" y="89.17281"/>
      </g>
     </g>
    </g>
    <g id="ytick_30">
     <g id="line2d_50">
      <g>
       <use style="stroke:#000000;stroke-width:0.6;" x="42.519685" xlink:href="#m4b20c36b36" y="76.522018"/>
      </g>
     </g>
    </g>
    <g id="ytick_31">
     <g id="line2d_51">
      <g>
       <use style="stroke:#000000;stroke-width:0.6;" x="42.519685" xlink:href="#m4b20c36b36" y="70.098216"/>
      </g>
     </g>
    </g>
    <g id="ytick_32">
     <g id="line2d_52">
      <g>
       <use style="stroke:#000000;stroke-width:0.6;" x="42.519685" xlink:href="#m4b20c36b36" y="65.540456"/>
      </g>
     </g>
    </g>
    <g id="ytick_33">
     <g id="line2d_53">
      <g>
       <use style="stroke:#000000;stroke-width:0.6;" x="42.519685" xlink:href="#m4b20c36b36" y="62.005183"/>
      </g>
     </g>
    </g>
    <g id="ytick_34">
     <g id="line2d_54">
      <g>
       <use style="stroke:#000000;stroke-width:0.6;" x="42.519685" xlink:href="#m4b20c36b36" y="59.116655"/>
      </g>
     </g>
    </g>
    <g id="ytick_35">
     <g id="line2d_55">
      <g>
       <use style="stroke:#000000;stroke-width:0.6;" x="42.519685" xlink:href="#m4b20c36b36" y="56.674439"/>
      </g>
     </g>
    </g>
    <g id="ytick_36">
     <g id="line2d_56">
      <g>
       <use style="stroke:#000000;stroke-width:0.6;" x="42.519685" xlink:href="#m4b20c36b36" y="54.558895"/>
      </g>
     </g>
    </g>
    <g id="ytick_37">
     <g id="line2d_57">
      <g>
       <use style="stroke:#000000;stroke-width:0.6;" x="42.519685" xlink:href="#m4b20c36b36" y="52.692853"/>
      </g>
     </g>
    </g>
    <g id="text_27">
     <!-- Imaginary Permittivity, Im($\epsilon$) -->
     <g transform="translate(5.919685 195.583536)rotate(-90)scale(0.1 -0.1)">
      <defs>
       <path d="M 9.8125 72.90625 
L 19.671875 72.90625 
L 19.671875 0 
L 9.8125 0 
z
" id="DejaVuSans-73"/>
       <path d="M 34.28125 27.484375 
Q 23.390625 27.484375 19.1875 25 
Q 14.984375 22.515625 14.984375 16.5 
Q 14.984375 11.71875 18.140625 8.90625 
Q 21.296875 6.109375 26.703125 6.109375 
Q 34.1875 6.109375 38.703125 11.40625 
Q 43.21875 16.703125 43.21875 25.484375 
L 43.21875 27.484375 
z
M 52.203125 31.203125 
L 52.203125 0 
L 43.21875 0 
L 43.21875 8.296875 
Q 40.140625 3.328125 35.546875 0.953125 
Q 30.953125 -1.421875 24.3125 -1.421875 
Q 15.921875 -1.421875 10.953125 3.296875 
Q 6 8.015625 6 15.921875 
Q 6 25.140625 12.171875 29.828125 
Q 18.359375 34.515625 30.609375 34.515625 
L 43.21875 34.515625 
L 43.21875 35.40625 
Q 43.21875 41.609375 39.140625 45 
Q 35.0625 48.390625 27.6875 48.390625 
Q 23 48.390625 18.546875 47.265625 
Q 14.109375 46.140625 10.015625 43.890625 
L 10.015625 52.203125 
Q 14.9375 54.109375 19.578125 55.046875 
Q 24.21875 56 28.609375 56 
Q 40.484375 56 46.34375 49.84375 
Q 52.203125 43.703125 52.203125 31.203125 
z
" id="DejaVuSans-97"/>
       <path d="M 45.40625 27.984375 
Q 45.40625 37.75 41.375 43.109375 
Q 37.359375 48.484375 30.078125 48.484375 
Q 22.859375 48.484375 18.828125 43.109375 
Q 14.796875 37.75 14.796875 27.984375 
Q 14.796875 18.265625 18.828125 12.890625 
Q 22.859375 7.515625 30.078125 7.515625 
Q 37.359375 7.515625 41.375 12.890625 
Q 45.40625 18.265625 45.40625 27.984375 
z
M 54.390625 6.78125 
Q 54.390625 -7.171875 48.1875 -13.984375 
Q 42 -20.796875 29.203125 -20.796875 
Q 24.46875 -20.796875 20.265625 -20.09375 
Q 16.0625 -19.390625 12.109375 -17.921875 
L 12.109375 -9.1875 
Q 16.0625 -11.328125 19.921875 -12.34375 
Q 23.78125 -13.375 27.78125 -13.375 
Q 36.625 -13.375 41.015625 -8.765625 
Q 45.40625 -4.15625 45.40625 5.171875 
L 45.40625 9.625 
Q 42.625 4.78125 38.28125 2.390625 
Q 33.9375 0 27.875 0 
Q 17.828125 0 11.671875 7.65625 
Q 5.515625 15.328125 5.515625 27.984375 
Q 5.515625 40.671875 11.671875 48.328125 
Q 17.828125 56 27.875 56 
Q 33.9375 56 38.28125 53.609375 
Q 42.625 51.21875 45.40625 46.390625 
L 45.40625 54.6875 
L 54.390625 54.6875 
z
" id="DejaVuSans-103"/>
       <path d="M 9.421875 54.6875 
L 18.40625 54.6875 
L 18.40625 0 
L 9.421875 0 
z
M 9.421875 75.984375 
L 18.40625 75.984375 
L 18.40625 64.59375 
L 9.421875 64.59375 
z
" id="DejaVuSans-105"/>
       <path d="M 41.109375 46.296875 
Q 39.59375 47.171875 37.8125 47.578125 
Q 36.03125 48 33.890625 48 
Q 26.265625 48 22.1875 43.046875 
Q 18.109375 38.09375 18.109375 28.8125 
L 18.109375 0 
L 9.078125 0 
L 9.078125 54.6875 
L 18.109375 54.6875 
L 18.109375 46.1875 
Q 20.953125 51.171875 25.484375 53.578125 
Q 30.03125 56 36.53125 56 
Q 37.453125 56 38.578125 55.875 
Q 39.703125 55.765625 41.0625 55.515625 
z
" id="DejaVuSans-114"/>
       <path d="M 32.171875 -5.078125 
Q 28.375 -14.84375 24.75 -17.8125 
Q 21.140625 -20.796875 15.09375 -20.796875 
L 7.90625 -20.796875 
L 7.90625 -13.28125 
L 13.1875 -13.28125 
Q 16.890625 -13.28125 18.9375 -11.515625 
Q 21 -9.765625 23.484375 -3.21875 
L 25.09375 0.875 
L 2.984375 54.6875 
L 12.5 54.6875 
L 29.59375 11.921875 
L 46.6875 54.6875 
L 56.203125 54.6875 
z
" id="DejaVuSans-121"/>
       <path id="DejaVuSans-32"/>
       <path d="M 19.671875 64.796875 
L 19.671875 37.40625 
L 32.078125 37.40625 
Q 38.96875 37.40625 42.71875 40.96875 
Q 46.484375 44.53125 46.484375 51.125 
Q 46.484375 57.671875 42.71875 61.234375 
Q 38.96875 64.796875 32.078125 64.796875 
z
M 9.8125 72.90625 
L 32.078125 72.90625 
Q 44.34375 72.90625 50.609375 67.359375 
Q 56.890625 61.8125 56.890625 51.125 
Q 56.890625 40.328125 50.609375 34.8125 
Q 44.34375 29.296875 32.078125 29.296875 
L 19.671875 29.296875 
L 19.671875 0 
L 9.8125 0 
z
" id="DejaVuSans-80"/>
       <path d="M 56.203125 29.59375 
L 56.203125 25.203125 
L 14.890625 25.203125 
Q 15.484375 15.921875 20.484375 11.0625 
Q 25.484375 6.203125 34.421875 6.203125 
Q 39.59375 6.203125 44.453125 7.46875 
Q 49.3125 8.734375 54.109375 11.28125 
L 54.109375 2.78125 
Q 49.265625 0.734375 44.1875 -0.34375 
Q 39.109375 -1.421875 33.890625 -1.421875 
Q 20.796875 -1.421875 13.15625 6.1875 
Q 5.515625 13.8125 5.515625 26.8125 
Q 5.515625 40.234375 12.765625 48.109375 
Q 20.015625 56 32.328125 56 
Q 43.359375 56 49.78125 48.890625 
Q 56.203125 41.796875 56.203125 29.59375 
z
M 47.21875 32.234375 
Q 47.125 39.59375 43.09375 43.984375 
Q 39.0625 48.390625 32.421875 48.390625 
Q 24.90625 48.390625 20.390625 44.140625 
Q 15.875 39.890625 15.1875 32.171875 
z
" id="DejaVuSans-101"/>
       <path d="M 18.3125 70.21875 
L 18.3125 54.6875 
L 36.8125 54.6875 
L 36.8125 47.703125 
L 18.3125 47.703125 
L 18.3125 18.015625 
Q 18.3125 11.328125 20.140625 9.421875 
Q 21.96875 7.515625 27.59375 7.515625 
L 36.8125 7.515625 
L 36.8125 0 
L 27.59375 0 
Q 17.1875 0 13.234375 3.875 
Q 9.28125 7.765625 9.28125 18.015625 
L 9.28125 47.703125 
L 2.6875 47.703125 
L 2.6875 54.6875 
L 9.28125 54.6875 
L 9.28125 70.21875 
z
" id="DejaVuSans-116"/>
       <path d="M 2.984375 54.6875 
L 12.5 54.6875 
L 29.59375 8.796875 
L 46.6875 54.6875 
L 56.203125 54.6875 
L 35.6875 0 
L 23.484375 0 
z
" id="DejaVuSans-118"/>
       <path d="M 11.71875 12.40625 
L 22.015625 12.40625 
L 22.015625 4 
L 14.015625 -11.625 
L 7.71875 -11.625 
L 11.71875 4 
z
" id="DejaVuSans-44"/>
       <path d="M 19.734375 29.5 
Q 14.453125 30.671875 12.15625 33.84375 
Q 10.453125 36.078125 10.453125 39.109375 
Q 10.453125 47.40625 18.359375 52.25 
Q 24.609375 56.0625 34.1875 56.0625 
Q 37.890625 56.0625 41.9375 55.46875 
Q 46 54.890625 50.53125 53.71875 
L 48.96875 45.5625 
Q 44.484375 46.96875 40.71875 47.609375 
Q 36.859375 48.25 33.40625 48.25 
Q 27.59375 48.25 23.78125 46 
Q 19.1875 43.3125 19.1875 39.40625 
Q 19.1875 36.8125 21.578125 35.015625 
Q 24.421875 32.859375 30.078125 32.859375 
L 37.640625 32.859375 
L 36.234375 25.4375 
L 29 25.4375 
Q 22.265625 25.4375 18.3125 22.953125 
Q 12.9375 19.578125 12.9375 14.3125 
Q 12.9375 10.984375 15.828125 8.796875 
Q 19.4375 6.0625 26.8125 6.0625 
Q 31.34375 6.0625 35.6875 6.9375 
Q 40.046875 7.859375 43.84375 9.671875 
L 42.1875 1.3125 
Q 37.546875 -0.046875 33.296875 -0.734375 
Q 29.046875 -1.421875 25.140625 -1.421875 
Q 13.53125 -1.421875 8.0625 3.03125 
Q 3.90625 6.453125 3.90625 12.203125 
Q 3.90625 19.96875 9.375 24.75 
Q 13.421875 28.328125 19.734375 29.5 
z
" id="DejaVuSans-Oblique-949"/>
      </defs>
      <use transform="translate(0 0.015625)" xlink:href="#DejaVuSans-73"/>
      <use transform="translate(25.867188 0.015625)" xlink:href="#DejaVuSans-109"/>
      <use transform="translate(123.279297 0.015625)" xlink:href="#DejaVuSans-97"/>
      <use transform="translate(184.558594 0.015625)" xlink:href="#DejaVuSans-103"/>
      <use transform="translate(248.035156 0.015625)" xlink:href="#DejaVuSans-105"/>
      <use transform="translate(275.818359 0.015625)" xlink:href="#DejaVuSans-110"/>
      <use transform="translate(339.197266 0.015625)" xlink:href="#DejaVuSans-97"/>
      <use transform="translate(400.476562 0.015625)" xlink:href="#DejaVuSans-114"/>
      <use transform="translate(441.589844 0.015625)" xlink:href="#DejaVuSans-121"/>
      <use transform="translate(500.769531 0.015625)" xlink:href="#DejaVuSans-32"/>
      <use transform="translate(532.556641 0.015625)" xlink:href="#DejaVuSans-80"/>
      <use transform="translate(592.859375 0.015625)" xlink:href="#DejaVuSans-101"/>
      <use transform="translate(654.382812 0.015625)" xlink:href="#DejaVuSans-114"/>
      <use transform="translate(695.496094 0.015625)" xlink:href="#DejaVuSans-109"/>
      <use transform="translate(792.908203 0.015625)" xlink:href="#DejaVuSans-105"/>
      <use transform="translate(820.691406 0.015625)" xlink:href="#DejaVuSans-116"/>
      <use transform="translate(859.900391 0.015625)" xlink:href="#DejaVuSans-116"/>
      <use transform="translate(899.109375 0.015625)" xlink:href="#DejaVuSans-105"/>
      <use transform="translate(926.892578 0.015625)" xlink:href="#DejaVuSans-118"/>
      <use transform="translate(986.072266 0.015625)" xlink:href="#DejaVuSans-105"/>
      <use transform="translate(1013.855469 0.015625)" xlink:href="#DejaVuSans-116"/>
      <use transform="translate(1053.064453 0.015625)" xlink:href="#DejaVuSans-121"/>
      <use transform="translate(1112.244141 0.015625)" xlink:href="#DejaVuSans-44"/>
      <use transform="translate(1144.03125 0.015625)" xlink:href="#DejaVuSans-32"/>
      <use transform="translate(1175.818359 0.015625)" xlink:href="#DejaVuSans-73"/>
      <use transform="translate(1201.685547 0.015625)" xlink:href="#DejaVuSans-109"/>
      <use transform="translate(1299.097656 0.015625)" xlink:href="#DejaVuSans-40"/>
      <use transform="translate(1338.111328 0.015625)" xlink:href="#DejaVuSans-Oblique-949"/>
      <use transform="translate(1392.164062 0.015625)" xlink:href="#DejaVuSans-41"/>
     </g>
    </g>
   </g>
   <g id="line2d_58">
    <path clip-path="url(#p8246e0b397)" d="M 42.519685 76.252943 
L 45.294654 84.91198 
L 48.069623 92.234679 
L 50.844592 98.578746 
L 53.619561 104.175113 
L 56.39453 109.181549 
L 59.169499 113.710629 
L 61.944467 117.845496 
L 64.719436 121.649306 
L 67.494405 125.171156 
L 70.269374 128.449975 
L 73.044343 131.517146 
L 75.819312 134.398343 
L 81.36925 139.68443 
L 86.919188 144.441041 
L 92.469126 148.764648 
L 98.019063 152.727548 
L 103.569001 156.385317 
L 109.118939 159.781602 
L 114.668877 162.951305 
L 120.218815 165.922778 
L 128.543722 170.058274 
L 136.868628 173.862574 
L 145.193535 177.384813 
L 153.518442 180.663945 
L 161.843349 183.731373 
L 172.943224 187.535699 
L 184.0431 191.057959 
L 195.142976 194.337108 
L 206.242851 197.40455 
L 220.117696 200.979836 
L 233.99254 204.304892 
L 247.867385 207.412466 
L 264.517199 210.891748 
L 281.167012 214.133618 
L 297.816826 217.168415 
L 317.241608 220.480234 
L 336.66639 223.576242 
L 341.15748 224.26379 
L 341.15748 224.26379 
" style="fill:none;stroke:#a42828;stroke-dasharray:7.4,3.2;stroke-dashoffset:0;stroke-width:2;"/>
   </g>
   <g id="line2d_59">
    <path clip-path="url(#p8246e0b397)" d="M 42.519685 56.27856 
L 45.294654 64.929433 
L 48.069623 72.247203 
L 50.844592 78.58807 
L 53.619561 84.182242 
L 56.39453 89.187107 
L 59.169499 93.715024 
L 61.944467 97.849007 
L 64.719436 101.652129 
L 67.494405 105.173433 
L 70.269374 108.451811 
L 73.044343 111.518622 
L 75.819312 114.399519 
L 81.36925 119.685144 
L 86.919188 124.441418 
L 92.469126 128.764772 
L 98.019063 132.727477 
L 103.569001 136.385094 
L 109.118939 139.781256 
L 114.668877 142.95086 
L 120.218815 145.92225 
L 128.543722 150.057649 
L 136.868628 153.861871 
L 145.193535 157.38405 
L 153.518442 160.663133 
L 161.843349 163.73052 
L 172.943224 167.534803 
L 184.0431 171.057029 
L 195.142976 174.336151 
L 206.242851 177.40357 
L 220.117696 180.978833 
L 233.99254 184.303871 
L 247.867385 187.41143 
L 264.517199 190.890698 
L 281.167012 194.132556 
L 297.816826 197.167343 
L 317.241608 200.479153 
L 336.66639 203.575153 
L 341.15748 204.2627 
L 341.15748 204.2627 
" style="fill:none;stroke:#a4a428;stroke-dasharray:7.4,3.2;stroke-dashoffset:0;stroke-width:2;"/>
   </g>
   <g id="line2d_60">
    <path clip-path="url(#p8246e0b397)" d="M 42.519685 49.88354 
L 45.294654 58.542577 
L 48.069623 65.865275 
L 50.844592 72.209342 
L 53.619561 77.805709 
L 56.39453 82.812146 
L 59.169499 87.341225 
L 61.944467 91.476093 
L 64.719436 95.279902 
L 67.494405 98.801753 
L 70.269374 102.080571 
L 73.044343 105.147742 
L 75.819312 108.028939 
L 81.36925 113.315027 
L 86.919188 118.071637 
L 92.469126 122.395244 
L 98.019063 126.358144 
L 103.569001 130.015913 
L 109.118939 133.412198 
L 114.668877 136.581901 
L 120.218815 139.553374 
L 128.543722 143.688871 
L 136.868628 147.49317 
L 145.193535 151.015409 
L 153.518442 154.294541 
L 161.843349 157.361969 
L 172.943224 161.166295 
L 184.0431 164.688555 
L 195.142976 167.967704 
L 206.242851 171.035146 
L 220.117696 174.610432 
L 233.99254 177.935488 
L 247.867385 181.043062 
L 264.517199 184.522344 
L 281.167012 187.764214 
L 297.816826 190.799011 
L 317.241608 194.11083 
L 336.66639 197.206838 
L 341.15748 197.894387 
L 341.15748 197.894387 
" style="fill:none;stroke:#28a428;stroke-dasharray:7.4,3.2;stroke-dashoffset:0;stroke-width:2;"/>
   </g>
   <g id="line2d_61">
    <path clip-path="url(#p8246e0b397)" d="M 47.007604 -1 
L 48.069623 0.944192 
L 50.844592 5.641247 
L 53.619561 10.000234 
L 56.39453 14.058083 
L 59.169499 17.846743 
L 61.944467 21.394281 
L 64.719436 24.725413 
L 67.494405 27.861885 
L 73.044343 33.624955 
L 78.594281 38.810199 
L 84.144219 43.515817 
L 89.694157 47.81856 
L 95.244094 51.779069 
L 100.794032 55.445836 
L 106.34397 58.858091 
L 111.893908 62.047933 
L 117.443846 65.041907 
L 125.768753 69.213133 
L 134.093659 73.053538 
L 142.418566 76.61101 
L 150.743473 79.923875 
L 159.06838 83.02325 
L 170.168255 86.867252 
L 181.268131 90.425915 
L 192.368007 93.738396 
L 203.467882 96.836357 
L 217.342727 100.446247 
L 231.217571 103.802428 
L 245.092416 106.938093 
L 261.74223 110.447622 
L 278.392043 113.716494 
L 295.041857 116.775519 
L 314.466639 120.112614 
L 333.891421 123.23116 
L 341.15748 124.346697 
L 341.15748 124.346697 
" style="fill:none;stroke:#28a4a4;stroke-dasharray:7.4,3.2;stroke-dashoffset:0;stroke-width:2;"/>
   </g>
   <g id="patch_5">
    <path d="M 42.519685 196.94345 
L 42.519685 51.023622 
" style="fill:none;stroke:#000000;stroke-linecap:square;stroke-linejoin:miter;stroke-width:0.8;"/>
   </g>
   <g id="patch_6">
    <path d="M 306.141732 196.94345 
L 306.141732 51.023622 
" style="fill:none;stroke:#000000;stroke-linecap:square;stroke-linejoin:miter;stroke-width:0.8;"/>
   </g>
   <g id="patch_7">
    <path d="M 42.519685 196.94345 
L 306.141732 196.94345 
" style="fill:none;stroke:#000000;stroke-linecap:square;stroke-linejoin:miter;stroke-width:0.8;"/>
   </g>
   <g id="patch_8">
    <path d="M 42.519685 51.023622 
L 306.141732 51.023622 
" style="fill:none;stroke:#000000;stroke-linecap:square;stroke-linejoin:miter;stroke-width:0.8;"/>
   </g>
  </g>
  <g id="axes_3">
   <g id="patch_9">
    <path d="M 42.519685 372.047244 
L 306.141732 372.047244 
L 306.141732 226.127416 
L 42.519685 226.127416 
z
" style="fill:#ffffff;"/>
   </g>
   <g id="matplotlib.axis_5">
    <g id="xtick_21">
     <g id="line2d_62">
      <g>
       <use style="stroke:#000000;stroke-width:0.8;" x="56.39453" xlink:href="#mf0dda10ed2" y="372.047244"/>
      </g>
     </g>
     <g id="text_28">
      <!-- 1 -->
      <g transform="translate(53.21328 386.645682)scale(0.1 -0.1)">
       <use xlink:href="#DejaVuSans-49"/>
      </g>
     </g>
    </g>
    <g id="xtick_22">
     <g id="line2d_63">
      <g>
       <use style="stroke:#000000;stroke-width:0.8;" x="84.144219" xlink:href="#mf0dda10ed2" y="372.047244"/>
      </g>
     </g>
     <g id="text_29">
      <!-- 2 -->
      <g transform="translate(80.962969 386.645682)scale(0.1 -0.1)">
       <use xlink:href="#DejaVuSans-50"/>
      </g>
     </g>
    </g>
    <g id="xtick_23">
     <g id="line2d_64">
      <g>
       <use style="stroke:#000000;stroke-width:0.8;" x="111.893908" xlink:href="#mf0dda10ed2" y="372.047244"/>
      </g>
     </g>
     <g id="text_30">
      <!-- 3 -->
      <g transform="translate(108.712658 386.645682)scale(0.1 -0.1)">
       <use xlink:href="#DejaVuSans-51"/>
      </g>
     </g>
    </g>
    <g id="xtick_24">
     <g id="line2d_65">
      <g>
       <use style="stroke:#000000;stroke-width:0.8;" x="139.643597" xlink:href="#mf0dda10ed2" y="372.047244"/>
      </g>
     </g>
     <g id="text_31">
      <!-- 4 -->
      <g transform="translate(136.462347 386.645682)scale(0.1 -0.1)">
       <use xlink:href="#DejaVuSans-52"/>
      </g>
     </g>
    </g>
    <g id="xtick_25">
     <g id="line2d_66">
      <g>
       <use style="stroke:#000000;stroke-width:0.8;" x="167.393286" xlink:href="#mf0dda10ed2" y="372.047244"/>
      </g>
     </g>
     <g id="text_32">
      <!-- 5 -->
      <g transform="translate(164.212036 386.645682)scale(0.1 -0.1)">
       <use xlink:href="#DejaVuSans-53"/>
      </g>
     </g>
    </g>
    <g id="xtick_26">
     <g id="line2d_67">
      <g>
       <use style="stroke:#000000;stroke-width:0.8;" x="195.142976" xlink:href="#mf0dda10ed2" y="372.047244"/>
      </g>
     </g>
     <g id="text_33">
      <!-- 6 -->
      <g transform="translate(191.961726 386.645682)scale(0.1 -0.1)">
       <use xlink:href="#DejaVuSans-54"/>
      </g>
     </g>
    </g>
    <g id="xtick_27">
     <g id="line2d_68">
      <g>
       <use style="stroke:#000000;stroke-width:0.8;" x="222.892665" xlink:href="#mf0dda10ed2" y="372.047244"/>
      </g>
     </g>
     <g id="text_34">
      <!-- 7 -->
      <g transform="translate(219.711415 386.645682)scale(0.1 -0.1)">
       <use xlink:href="#DejaVuSans-55"/>
      </g>
     </g>
    </g>
    <g id="xtick_28">
     <g id="line2d_69">
      <g>
       <use style="stroke:#000000;stroke-width:0.8;" x="250.642354" xlink:href="#mf0dda10ed2" y="372.047244"/>
      </g>
     </g>
     <g id="text_35">
      <!-- 8 -->
      <g transform="translate(247.461104 386.645682)scale(0.1 -0.1)">
       <use xlink:href="#DejaVuSans-56"/>
      </g>
     </g>
    </g>
    <g id="xtick_29">
     <g id="line2d_70">
      <g>
       <use style="stroke:#000000;stroke-width:0.8;" x="278.392043" xlink:href="#mf0dda10ed2" y="372.047244"/>
      </g>
     </g>
     <g id="text_36">
      <!-- 9 -->
      <g transform="translate(275.210793 386.645682)scale(0.1 -0.1)">
       <use xlink:href="#DejaVuSans-57"/>
      </g>
     </g>
    </g>
    <g id="xtick_30">
     <g id="line2d_71">
      <g>
       <use style="stroke:#000000;stroke-width:0.8;" x="306.141732" xlink:href="#mf0dda10ed2" y="372.047244"/>
      </g>
     </g>
     <g id="text_37">
      <!-- 10 -->
      <g transform="translate(299.779232 386.645682)scale(0.1 -0.1)">
       <use xlink:href="#DejaVuSans-49"/>
       <use x="63.623047" xlink:href="#DejaVuSans-48"/>
      </g>
     </g>
    </g>
    <g id="text_38">
     <!-- $\omega$(eV) -->
     <g transform="translate(159.730709 400.323807)scale(0.1 -0.1)">
      <defs>
       <path d="M 21.390625 -1.421875 
Q 1.125 -1.421875 6.78125 27.59375 
Q 8.984375 39.0625 19.625 54.6875 
L 29.296875 54.6875 
Q 19.234375 39.0625 17 27.34375 
Q 12.796875 6.203125 23.734375 6.203125 
Q 33.84375 6.203125 38.71875 32.46875 
L 47.015625 32.46875 
Q 41.703125 6.0625 51.8125 6.203125 
Q 62.703125 6.296875 66.796875 27.34375 
Q 69.046875 39.0625 65.140625 54.6875 
L 74.8125 54.6875 
Q 79.296875 39.0625 77.09375 27.59375 
Q 71.53125 -1.46875 51.21875 -1.421875 
Q 37.9375 -1.375 39.109375 13.1875 
Q 34.28125 -1.421875 21.390625 -1.421875 
z
" id="DejaVuSans-Oblique-969"/>
       <path d="M 28.609375 0 
L 0.78125 72.90625 
L 11.078125 72.90625 
L 34.1875 11.53125 
L 57.328125 72.90625 
L 67.578125 72.90625 
L 39.796875 0 
z
" id="DejaVuSans-86"/>
      </defs>
      <use transform="translate(0 0.125)" xlink:href="#DejaVuSans-Oblique-969"/>
      <use transform="translate(83.740234 0.125)" xlink:href="#DejaVuSans-40"/>
      <use transform="translate(122.753906 0.125)" xlink:href="#DejaVuSans-101"/>
      <use transform="translate(184.277344 0.125)" xlink:href="#DejaVuSans-86"/>
      <use transform="translate(252.685547 0.125)" xlink:href="#DejaVuSans-41"/>
     </g>
    </g>
   </g>
   <g id="matplotlib.axis_6">
    <g id="ytick_38">
     <g id="line2d_72">
      <g>
       <use style="stroke:#000000;stroke-width:0.8;" x="42.519685" xlink:href="#md20bdea2c9" y="372.047244"/>
      </g>
     </g>
     <g id="text_39">
      <!-- 20 -->
      <g transform="translate(14.414998 375.846463)scale(0.1 -0.1)">
       <use xlink:href="#DejaVuSans-8722"/>
       <use x="83.789062" xlink:href="#DejaVuSans-50"/>
       <use x="147.412109" xlink:href="#DejaVuSans-48"/>
      </g>
     </g>
    </g>
    <g id="ytick_39">
     <g id="line2d_73">
      <g>
       <use style="stroke:#000000;stroke-width:0.8;" x="42.519685" xlink:href="#md20bdea2c9" y="337.304428"/>
      </g>
     </g>
     <g id="text_40">
      <!-- 15 -->
      <g transform="translate(14.414998 341.103647)scale(0.1 -0.1)">
       <use xlink:href="#DejaVuSans-8722"/>
       <use x="83.789062" xlink:href="#DejaVuSans-49"/>
       <use x="147.412109" xlink:href="#DejaVuSans-53"/>
      </g>
     </g>
    </g>
    <g id="ytick_40">
     <g id="line2d_74">
      <g>
       <use style="stroke:#000000;stroke-width:0.8;" x="42.519685" xlink:href="#md20bdea2c9" y="302.561612"/>
      </g>
     </g>
     <g id="text_41">
      <!-- 10 -->
      <g transform="translate(14.414998 306.36083)scale(0.1 -0.1)">
       <use xlink:href="#DejaVuSans-8722"/>
       <use x="83.789062" xlink:href="#DejaVuSans-49"/>
       <use x="147.412109" xlink:href="#DejaVuSans-48"/>
      </g>
     </g>
    </g>
    <g id="ytick_41">
     <g id="line2d_75">
      <g>
       <use style="stroke:#000000;stroke-width:0.8;" x="42.519685" xlink:href="#md20bdea2c9" y="267.818795"/>
      </g>
     </g>
     <g id="text_42">
      <!-- 5 -->
      <g transform="translate(20.777498 271.618014)scale(0.1 -0.1)">
       <use xlink:href="#DejaVuSans-8722"/>
       <use x="83.789062" xlink:href="#DejaVuSans-53"/>
      </g>
     </g>
    </g>
    <g id="ytick_42">
     <g id="line2d_76">
      <g>
       <use style="stroke:#000000;stroke-width:0.8;" x="42.519685" xlink:href="#md20bdea2c9" y="233.075979"/>
      </g>
     </g>
     <g id="text_43">
      <!-- 0 -->
      <g transform="translate(29.157185 236.875198)scale(0.1 -0.1)">
       <use xlink:href="#DejaVuSans-48"/>
      </g>
     </g>
    </g>
    <g id="text_44">
     <!-- Real Permittivity, Re($\epsilon$) -->
     <g transform="translate(8.314998 357.03733)rotate(-90)scale(0.1 -0.1)">
      <defs>
       <path d="M 44.390625 34.1875 
Q 47.5625 33.109375 50.5625 29.59375 
Q 53.5625 26.078125 56.59375 19.921875 
L 66.609375 0 
L 56 0 
L 46.6875 18.703125 
Q 43.0625 26.03125 39.671875 28.421875 
Q 36.28125 30.8125 30.421875 30.8125 
L 19.671875 30.8125 
L 19.671875 0 
L 9.8125 0 
L 9.8125 72.90625 
L 32.078125 72.90625 
Q 44.578125 72.90625 50.734375 67.671875 
Q 56.890625 62.453125 56.890625 51.90625 
Q 56.890625 45.015625 53.6875 40.46875 
Q 50.484375 35.9375 44.390625 34.1875 
z
M 19.671875 64.796875 
L 19.671875 38.921875 
L 32.078125 38.921875 
Q 39.203125 38.921875 42.84375 42.21875 
Q 46.484375 45.515625 46.484375 51.90625 
Q 46.484375 58.296875 42.84375 61.546875 
Q 39.203125 64.796875 32.078125 64.796875 
z
" id="DejaVuSans-82"/>
       <path d="M 9.421875 75.984375 
L 18.40625 75.984375 
L 18.40625 0 
L 9.421875 0 
z
" id="DejaVuSans-108"/>
      </defs>
      <use transform="translate(0 0.015625)" xlink:href="#DejaVuSans-82"/>
      <use transform="translate(69.482422 0.015625)" xlink:href="#DejaVuSans-101"/>
      <use transform="translate(131.005859 0.015625)" xlink:href="#DejaVuSans-97"/>
      <use transform="translate(192.285156 0.015625)" xlink:href="#DejaVuSans-108"/>
      <use transform="translate(220.068359 0.015625)" xlink:href="#DejaVuSans-32"/>
      <use transform="translate(251.855469 0.015625)" xlink:href="#DejaVuSans-80"/>
      <use transform="translate(312.158203 0.015625)" xlink:href="#DejaVuSans-101"/>
      <use transform="translate(373.681641 0.015625)" xlink:href="#DejaVuSans-114"/>
      <use transform="translate(414.794922 0.015625)" xlink:href="#DejaVuSans-109"/>
      <use transform="translate(512.207031 0.015625)" xlink:href="#DejaVuSans-105"/>
      <use transform="translate(539.990234 0.015625)" xlink:href="#DejaVuSans-116"/>
      <use transform="translate(579.199219 0.015625)" xlink:href="#DejaVuSans-116"/>
      <use transform="translate(618.408203 0.015625)" xlink:href="#DejaVuSans-105"/>
      <use transform="translate(646.191406 0.015625)" xlink:href="#DejaVuSans-118"/>
      <use transform="translate(705.371094 0.015625)" xlink:href="#DejaVuSans-105"/>
      <use transform="translate(733.154297 0.015625)" xlink:href="#DejaVuSans-116"/>
      <use transform="translate(772.363281 0.015625)" xlink:href="#DejaVuSans-121"/>
      <use transform="translate(831.542969 0.015625)" xlink:href="#DejaVuSans-44"/>
      <use transform="translate(863.330078 0.015625)" xlink:href="#DejaVuSans-32"/>
      <use transform="translate(895.117188 0.015625)" xlink:href="#DejaVuSans-82"/>
      <use transform="translate(964.599609 0.015625)" xlink:href="#DejaVuSans-101"/>
      <use transform="translate(1026.123047 0.015625)" xlink:href="#DejaVuSans-40"/>
      <use transform="translate(1065.136719 0.015625)" xlink:href="#DejaVuSans-Oblique-949"/>
      <use transform="translate(1119.189453 0.015625)" xlink:href="#DejaVuSans-41"/>
     </g>
    </g>
   </g>
   <g id="line2d_77">
    <path clip-path="url(#pd127cfd4e4)" d="M 42.519685 233.075979 
L 306.141732 233.075979 
" style="fill:none;stroke:#000000;stroke-dasharray:5.55,2.4;stroke-dashoffset:0;stroke-width:1.5;"/>
   </g>
   <g id="line2d_78">
    <path clip-path="url(#pd127cfd4e4)" d="M 47.914058 426.19685 
L 48.069623 422.230691 
L 50.844592 376.293287 
L 53.619561 344.790161 
L 56.39453 322.25187 
L 59.169499 305.57378 
L 61.944467 292.887413 
L 64.719436 283.013652 
L 67.494405 275.178636 
L 70.269374 268.85743 
L 73.044343 263.683776 
L 75.819312 259.395836 
L 78.594281 255.802401 
L 81.36925 252.761206 
L 84.144219 250.164631 
L 86.919188 247.93005 
L 89.694157 245.993175 
L 92.469126 244.303379 
L 95.244094 242.820358 
L 98.019063 241.511702 
L 100.794032 240.351111 
L 106.34397 238.391809 
L 111.893908 236.811125 
L 117.443846 235.517437 
L 122.993784 234.445252 
L 131.31869 233.151128 
L 139.643597 232.137101 
L 147.968504 231.327807 
L 159.06838 230.480314 
L 172.943224 229.683473 
L 189.593038 228.9858 
L 209.01782 228.403303 
L 233.99254 227.883377 
L 267.292167 227.427532 
L 311.69167 227.051644 
L 341.15748 226.885618 
L 341.15748 226.885618 
" style="fill:none;stroke:#a42828;stroke-linecap:square;stroke-width:2;"/>
   </g>
   <g id="line2d_79">
    <path clip-path="url(#pd127cfd4e4)" d="M 58.253952 426.19685 
L 59.169499 413.242386 
L 61.944467 383.371769 
L 64.719436 360.12125 
L 67.494405 341.670087 
L 70.269374 326.782961 
L 73.044343 314.597829 
L 75.819312 304.498333 
L 78.594281 296.034329 
L 81.36925 288.870866 
L 84.144219 282.754545 
L 86.919188 277.4908 
L 89.694157 272.928242 
L 92.469126 268.947649 
L 95.244094 265.454099 
L 98.019063 262.371263 
L 100.794032 259.637198 
L 103.569001 257.201213 
L 106.34397 255.021503 
L 109.118939 253.063341 
L 111.893908 251.297691 
L 114.668877 249.700121 
L 117.443846 248.249955 
L 122.993784 245.724018 
L 128.543722 243.607226 
L 134.093659 241.815761 
L 139.643597 240.28622 
L 145.193535 238.969925 
L 150.743473 237.829004 
L 159.06838 236.382909 
L 167.393286 235.189206 
L 175.718193 234.192404 
L 186.818069 233.100218 
L 197.917944 232.215753 
L 211.792789 231.328235 
L 228.442603 230.497561 
L 247.867385 229.757425 
L 272.842105 229.052899 
L 303.366763 228.438914 
L 341.15748 227.91378 
L 341.15748 227.91378 
" style="fill:none;stroke:#a4a428;stroke-linecap:square;stroke-width:2;"/>
   </g>
   <g id="line2d_80">
    <path clip-path="url(#pd127cfd4e4)" d="M 72.874289 426.19685 
L 73.044343 424.522016 
L 75.819312 401.870615 
L 78.594281 382.887994 
L 81.36925 366.822627 
L 84.144219 353.106005 
L 86.919188 341.301645 
L 89.694157 331.06994 
L 92.469126 322.143453 
L 95.244094 314.309272 
L 98.019063 307.396189 
L 100.794032 301.265272 
L 103.569001 295.802828 
L 106.34397 290.915096 
L 109.118939 286.524193 
L 111.893908 282.564998 
L 114.668877 278.982718 
L 117.443846 275.730985 
L 120.218815 272.77035 
L 122.993784 270.067076 
L 125.768753 267.592176 
L 128.543722 265.320632 
L 131.31869 263.23076 
L 134.093659 261.303693 
L 139.643597 257.874078 
L 145.193535 254.922631 
L 150.743473 252.364423 
L 156.293411 250.132577 
L 161.843349 248.173852 
L 167.393286 246.445435 
L 172.943224 244.912585 
L 181.268131 242.919206 
L 189.593038 241.227066 
L 197.917944 239.778389 
L 206.242851 238.528616 
L 217.342727 237.112572 
L 228.442603 235.925912 
L 242.317447 234.694703 
L 256.192292 233.68177 
L 272.842105 232.686754 
L 292.266888 231.755731 
L 314.466639 230.915386 
L 341.15748 230.132683 
L 341.15748 230.132683 
" style="fill:none;stroke:#28a428;stroke-linecap:square;stroke-width:2;"/>
   </g>
   <g id="line2d_81">
    <path clip-path="url(#pd127cfd4e4)" d="M 106.02371 426.19685 
L 106.34397 424.549927 
L 109.118939 411.650071 
L 111.893908 399.952807 
L 114.668877 389.314995 
L 117.443846 379.613918 
L 120.218815 370.74392 
L 122.993784 362.613674 
L 125.768753 355.143934 
L 128.543722 348.26569 
L 131.31869 341.918633 
L 134.093659 336.049885 
L 136.868628 330.612934 
L 139.643597 325.566745 
L 142.418566 320.87501 
L 145.193535 316.505511 
L 147.968504 312.429588 
L 150.743473 308.621677 
L 153.518442 305.05892 
L 156.293411 301.720831 
L 159.06838 298.58901 
L 161.843349 295.646892 
L 164.618317 292.879534 
L 170.168255 287.816342 
L 175.718193 283.30584 
L 181.268131 279.270719 
L 186.818069 275.64668 
L 192.368007 272.379904 
L 197.917944 269.425071 
L 203.467882 266.743808 
L 209.01782 264.303446 
L 214.567758 262.076041 
L 220.117696 260.037577 
L 228.442603 257.289558 
L 236.767509 254.86188 
L 245.092416 252.706711 
L 253.417323 250.784809 
L 261.74223 249.06374 
L 272.842105 247.035376 
L 283.941981 245.264299 
L 295.041857 243.708818 
L 308.916701 242.017103 
L 322.791546 240.558074 
L 339.441359 239.057624 
L 341.15748 238.917114 
L 341.15748 238.917114 
" style="fill:none;stroke:#28a4a4;stroke-linecap:square;stroke-width:2;"/>
   </g>
   <g id="patch_10">
    <path d="M 42.519685 372.047244 
L 42.519685 226.127416 
" style="fill:none;stroke:#000000;stroke-linecap:square;stroke-linejoin:miter;stroke-width:0.8;"/>
   </g>
   <g id="patch_11">
    <path d="M 306.141732 372.047244 
L 306.141732 226.127416 
" style="fill:none;stroke:#000000;stroke-linecap:square;stroke-linejoin:miter;stroke-width:0.8;"/>
   </g>
   <g id="patch_12">
    <path d="M 42.519685 372.047244 
L 306.141732 372.047244 
" style="fill:none;stroke:#000000;stroke-linecap:square;stroke-linejoin:miter;stroke-width:0.8;"/>
   </g>
   <g id="patch_13">
    <path d="M 42.519685 226.127416 
L 306.141732 226.127416 
" style="fill:none;stroke:#000000;stroke-linecap:square;stroke-linejoin:miter;stroke-width:0.8;"/>
   </g>
   <g id="legend_1">
    <g id="patch_14">
     <path d="M 147.941732 367.047244 
L 299.141732 367.047244 
Q 301.141732 367.047244 301.141732 365.047244 
L 301.141732 303.251932 
Q 301.141732 301.251932 299.141732 301.251932 
L 147.941732 301.251932 
Q 145.941732 301.251932 145.941732 303.251932 
L 145.941732 365.047244 
Q 145.941732 367.047244 147.941732 367.047244 
z
" style="fill:#ffffff;opacity:0.8;stroke:#cccccc;stroke-linejoin:miter;"/>
    </g>
    <g id="line2d_82">
     <path d="M 149.941732 309.350369 
L 169.941732 309.350369 
" style="fill:none;stroke:#a42828;stroke-linecap:square;stroke-width:2;"/>
    </g>
    <g id="line2d_83"/>
    <g id="text_45">
     <!-- K, $\omega_p=3.72, \gamma=0.018$ -->
     <g transform="translate(177.941732 312.850369)scale(0.1 -0.1)">
      <defs>
       <path d="M 9.8125 72.90625 
L 19.671875 72.90625 
L 19.671875 42.09375 
L 52.390625 72.90625 
L 65.09375 72.90625 
L 28.90625 38.921875 
L 67.671875 0 
L 54.6875 0 
L 19.671875 35.109375 
L 19.671875 0 
L 9.8125 0 
z
" id="DejaVuSans-75"/>
       <path d="M 49.609375 33.6875 
Q 49.609375 40.875 46.484375 44.671875 
Q 43.359375 48.484375 37.5 48.484375 
Q 33.5 48.484375 29.859375 46.4375 
Q 26.21875 44.390625 23.390625 40.484375 
Q 20.609375 36.625 18.9375 31.15625 
Q 17.28125 25.6875 17.28125 20.3125 
Q 17.28125 13.484375 20.40625 9.796875 
Q 23.53125 6.109375 29.296875 6.109375 
Q 33.546875 6.109375 37.1875 8.109375 
Q 40.828125 10.109375 43.40625 13.921875 
Q 46.1875 17.921875 47.890625 23.34375 
Q 49.609375 28.765625 49.609375 33.6875 
z
M 21.78125 46.390625 
Q 25.390625 51.125 30.296875 53.5625 
Q 35.203125 56 41.21875 56 
Q 49.609375 56 54.25 50.5 
Q 58.890625 45.015625 58.890625 35.109375 
Q 58.890625 27 56 19.65625 
Q 53.125 12.3125 47.703125 6.5 
Q 44.09375 2.640625 39.546875 0.609375 
Q 35.015625 -1.421875 29.984375 -1.421875 
Q 24.171875 -1.421875 20.21875 1 
Q 16.265625 3.421875 14.3125 8.203125 
L 8.6875 -20.796875 
L -0.296875 -20.796875 
L 14.40625 54.6875 
L 23.390625 54.6875 
z
" id="DejaVuSans-Oblique-112"/>
       <path d="M 10.59375 45.40625 
L 73.1875 45.40625 
L 73.1875 37.203125 
L 10.59375 37.203125 
z
M 10.59375 25.484375 
L 73.1875 25.484375 
L 73.1875 17.1875 
L 10.59375 17.1875 
z
" id="DejaVuSans-61"/>
       <path d="M 23.296875 46.09375 
L 28.71875 12.3125 
L 54 54.6875 
L 63.53125 54.6875 
L 30.8125 0 
L 26.765625 -20.796875 
L 17.78125 -20.796875 
L 21.828125 0 
L 15.4375 40.828125 
Q 14.453125 46.96875 9.8125 46.96875 
L 7.421875 46.96875 
L 8.890625 54.6875 
L 12.3125 54.6875 
Q 21.921875 54.6875 23.296875 46.09375 
z
" id="DejaVuSans-Oblique-947"/>
      </defs>
      <use transform="translate(0 0.78125)" xlink:href="#DejaVuSans-75"/>
      <use transform="translate(65.576172 0.78125)" xlink:href="#DejaVuSans-44"/>
      <use transform="translate(97.363281 0.78125)" xlink:href="#DejaVuSans-32"/>
      <use transform="translate(129.150391 0.78125)" xlink:href="#DejaVuSans-Oblique-969"/>
      <use transform="translate(212.890625 -15.625)scale(0.7)" xlink:href="#DejaVuSans-Oblique-112"/>
      <use transform="translate(279.541016 0.78125)" xlink:href="#DejaVuSans-61"/>
      <use transform="translate(382.8125 0.78125)" xlink:href="#DejaVuSans-51"/>
      <use transform="translate(446.435547 0.78125)" xlink:href="#DejaVuSans-46"/>
      <use transform="translate(470.472656 0.78125)" xlink:href="#DejaVuSans-55"/>
      <use transform="translate(534.095703 0.78125)" xlink:href="#DejaVuSans-50"/>
      <use transform="translate(597.71875 0.78125)" xlink:href="#DejaVuSans-44"/>
      <use transform="translate(648.988281 0.78125)" xlink:href="#DejaVuSans-Oblique-947"/>
      <use transform="translate(727.650391 0.78125)" xlink:href="#DejaVuSans-61"/>
      <use transform="translate(830.921875 0.78125)" xlink:href="#DejaVuSans-48"/>
      <use transform="translate(894.544922 0.78125)" xlink:href="#DejaVuSans-46"/>
      <use transform="translate(926.332031 0.78125)" xlink:href="#DejaVuSans-48"/>
      <use transform="translate(989.955078 0.78125)" xlink:href="#DejaVuSans-49"/>
      <use transform="translate(1053.578125 0.78125)" xlink:href="#DejaVuSans-56"/>
     </g>
    </g>
    <g id="line2d_84">
     <path d="M 149.941732 325.048807 
L 169.941732 325.048807 
" style="fill:none;stroke:#a4a428;stroke-linecap:square;stroke-width:2;"/>
    </g>
    <g id="line2d_85"/>
    <g id="text_46">
     <!-- Na, $\omega_p=5.71, \gamma=0.028$ -->
     <g transform="translate(177.941732 328.548807)scale(0.1 -0.1)">
      <defs>
       <path d="M 9.8125 72.90625 
L 23.09375 72.90625 
L 55.421875 11.921875 
L 55.421875 72.90625 
L 64.984375 72.90625 
L 64.984375 0 
L 51.703125 0 
L 19.390625 60.984375 
L 19.390625 0 
L 9.8125 0 
z
" id="DejaVuSans-78"/>
      </defs>
      <use transform="translate(0 0.78125)" xlink:href="#DejaVuSans-78"/>
      <use transform="translate(74.804688 0.78125)" xlink:href="#DejaVuSans-97"/>
      <use transform="translate(136.083984 0.78125)" xlink:href="#DejaVuSans-44"/>
      <use transform="translate(167.871094 0.78125)" xlink:href="#DejaVuSans-32"/>
      <use transform="translate(199.658203 0.78125)" xlink:href="#DejaVuSans-Oblique-969"/>
      <use transform="translate(283.398438 -15.625)scale(0.7)" xlink:href="#DejaVuSans-Oblique-112"/>
      <use transform="translate(350.048828 0.78125)" xlink:href="#DejaVuSans-61"/>
      <use transform="translate(453.320312 0.78125)" xlink:href="#DejaVuSans-53"/>
      <use transform="translate(516.943359 0.78125)" xlink:href="#DejaVuSans-46"/>
      <use transform="translate(540.980469 0.78125)" xlink:href="#DejaVuSans-55"/>
      <use transform="translate(604.603516 0.78125)" xlink:href="#DejaVuSans-49"/>
      <use transform="translate(668.226562 0.78125)" xlink:href="#DejaVuSans-44"/>
      <use transform="translate(719.496094 0.78125)" xlink:href="#DejaVuSans-Oblique-947"/>
      <use transform="translate(798.158203 0.78125)" xlink:href="#DejaVuSans-61"/>
      <use transform="translate(901.429688 0.78125)" xlink:href="#DejaVuSans-48"/>
      <use transform="translate(965.052734 0.78125)" xlink:href="#DejaVuSans-46"/>
      <use transform="translate(996.839844 0.78125)" xlink:href="#DejaVuSans-48"/>
      <use transform="translate(1060.462891 0.78125)" xlink:href="#DejaVuSans-50"/>
      <use transform="translate(1124.085938 0.78125)" xlink:href="#DejaVuSans-56"/>
     </g>
    </g>
    <g id="line2d_86">
     <path d="M 149.941732 340.747244 
L 169.941732 340.747244 
" style="fill:none;stroke:#28a428;stroke-linecap:square;stroke-width:2;"/>
    </g>
    <g id="line2d_87"/>
    <g id="text_47">
     <!-- Au, $\omega_p=8.55, \gamma=0.018$ -->
     <g transform="translate(177.941732 344.247244)scale(0.1 -0.1)">
      <defs>
       <path d="M 34.1875 63.1875 
L 20.796875 26.90625 
L 47.609375 26.90625 
z
M 28.609375 72.90625 
L 39.796875 72.90625 
L 67.578125 0 
L 57.328125 0 
L 50.6875 18.703125 
L 17.828125 18.703125 
L 11.1875 0 
L 0.78125 0 
z
" id="DejaVuSans-65"/>
       <path d="M 8.5 21.578125 
L 8.5 54.6875 
L 17.484375 54.6875 
L 17.484375 21.921875 
Q 17.484375 14.15625 20.5 10.265625 
Q 23.53125 6.390625 29.59375 6.390625 
Q 36.859375 6.390625 41.078125 11.03125 
Q 45.3125 15.671875 45.3125 23.6875 
L 45.3125 54.6875 
L 54.296875 54.6875 
L 54.296875 0 
L 45.3125 0 
L 45.3125 8.40625 
Q 42.046875 3.421875 37.71875 1 
Q 33.40625 -1.421875 27.6875 -1.421875 
Q 18.265625 -1.421875 13.375 4.4375 
Q 8.5 10.296875 8.5 21.578125 
z
M 31.109375 56 
z
" id="DejaVuSans-117"/>
      </defs>
      <use transform="translate(0 0.78125)" xlink:href="#DejaVuSans-65"/>
      <use transform="translate(68.408203 0.78125)" xlink:href="#DejaVuSans-117"/>
      <use transform="translate(131.787109 0.78125)" xlink:href="#DejaVuSans-44"/>
      <use transform="translate(163.574219 0.78125)" xlink:href="#DejaVuSans-32"/>
      <use transform="translate(195.361328 0.78125)" xlink:href="#DejaVuSans-Oblique-969"/>
      <use transform="translate(279.101562 -15.625)scale(0.7)" xlink:href="#DejaVuSans-Oblique-112"/>
      <use transform="translate(345.751953 0.78125)" xlink:href="#DejaVuSans-61"/>
      <use transform="translate(449.023438 0.78125)" xlink:href="#DejaVuSans-56"/>
      <use transform="translate(512.646484 0.78125)" xlink:href="#DejaVuSans-46"/>
      <use transform="translate(544.433594 0.78125)" xlink:href="#DejaVuSans-53"/>
      <use transform="translate(608.056641 0.78125)" xlink:href="#DejaVuSans-53"/>
      <use transform="translate(671.679688 0.78125)" xlink:href="#DejaVuSans-44"/>
      <use transform="translate(722.949219 0.78125)" xlink:href="#DejaVuSans-Oblique-947"/>
      <use transform="translate(801.611328 0.78125)" xlink:href="#DejaVuSans-61"/>
      <use transform="translate(904.882812 0.78125)" xlink:href="#DejaVuSans-48"/>
      <use transform="translate(968.505859 0.78125)" xlink:href="#DejaVuSans-46"/>
      <use transform="translate(1000.292969 0.78125)" xlink:href="#DejaVuSans-48"/>
      <use transform="translate(1063.916016 0.78125)" xlink:href="#DejaVuSans-49"/>
      <use transform="translate(1127.539062 0.78125)" xlink:href="#DejaVuSans-56"/>
     </g>
    </g>
    <g id="line2d_88">
     <path d="M 149.941732 356.447244 
L 169.941732 356.447244 
" style="fill:none;stroke:#28a4a4;stroke-linecap:square;stroke-width:2;"/>
    </g>
    <g id="line2d_89"/>
    <g id="text_48">
     <!-- Al, $\omega_p=15.3, \gamma=0.598$ -->
     <g transform="translate(177.941732 359.947244)scale(0.1 -0.1)">
      <use transform="translate(0 0.015625)" xlink:href="#DejaVuSans-65"/>
      <use transform="translate(68.408203 0.015625)" xlink:href="#DejaVuSans-108"/>
      <use transform="translate(96.191406 0.015625)" xlink:href="#DejaVuSans-44"/>
      <use transform="translate(127.978516 0.015625)" xlink:href="#DejaVuSans-32"/>
      <use transform="translate(159.765625 0.015625)" xlink:href="#DejaVuSans-Oblique-969"/>
      <use transform="translate(243.505859 -16.390625)scale(0.7)" xlink:href="#DejaVuSans-Oblique-112"/>
      <use transform="translate(310.15625 0.015625)" xlink:href="#DejaVuSans-61"/>
      <use transform="translate(413.427734 0.015625)" xlink:href="#DejaVuSans-49"/>
      <use transform="translate(477.050781 0.015625)" xlink:href="#DejaVuSans-53"/>
      <use transform="translate(540.673828 0.015625)" xlink:href="#DejaVuSans-46"/>
      <use transform="translate(572.460938 0.015625)" xlink:href="#DejaVuSans-51"/>
      <use transform="translate(636.083984 0.015625)" xlink:href="#DejaVuSans-44"/>
      <use transform="translate(687.353516 0.015625)" xlink:href="#DejaVuSans-Oblique-947"/>
      <use transform="translate(766.015625 0.015625)" xlink:href="#DejaVuSans-61"/>
      <use transform="translate(869.287109 0.015625)" xlink:href="#DejaVuSans-48"/>
      <use transform="translate(932.910156 0.015625)" xlink:href="#DejaVuSans-46"/>
      <use transform="translate(964.697266 0.015625)" xlink:href="#DejaVuSans-53"/>
      <use transform="translate(1022.820312 0.015625)" xlink:href="#DejaVuSans-57"/>
      <use transform="translate(1086.443359 0.015625)" xlink:href="#DejaVuSans-56"/>
     </g>
    </g>
   </g>
  </g>
 </g>
 <defs>
  <clipPath id="p8246e0b397">
   <rect height="145.919828" width="263.622047" x="42.519685" y="51.023622"/>
  </clipPath>
  <clipPath id="pd127cfd4e4">
   <rect height="145.919828" width="263.622047" x="42.519685" y="226.127416"/>
  </clipPath>
 </defs>
</svg>
