<?xml version="1.0" encoding="utf-8" standalone="no"?>
<!DOCTYPE svg PUBLIC "-//W3C//DTD SVG 1.1//EN"
  "http://www.w3.org/Graphics/SVG/1.1/DTD/svg11.dtd">
<svg height="425.19685pt" version="1.1" viewBox="0 0 340.15748 425.19685" width="340.15748pt" xmlns="http://www.w3.org/2000/svg" xmlns:xlink="http://www.w3.org/1999/xlink">
 <metadata>
  <rdf:RDF xmlns:cc="http://creativecommons.org/ns#" xmlns:dc="http://purl.org/dc/elements/1.1/" xmlns:rdf="http://www.w3.org/1999/02/22-rdf-syntax-ns#">
   <cc:Work>
    <dc:type rdf:resource="http://purl.org/dc/dcmitype/StillImage"/>
    <dc:date>2021-04-05T16:43:58.395528</dc:date>
    <dc:format>image/svg+xml</dc:format>
    <dc:creator>
     <cc:Agent>
      <dc:title>Matplotlib v3.4.1, https://matplotlib.org/</dc:title>
     </cc:Agent>
    </dc:creator>
   </cc:Work>
  </rdf:RDF>
 </metadata>
 <defs>
  <style type="text/css">*{stroke-linecap:butt;stroke-linejoin:round;}</style>
 </defs>
 <g id="figure_1">
  <g id="patch_1">
   <path d="M 0 425.19685 
L 340.15748 425.19685 
L 340.15748 0 
L 0 0 
z
" style="fill:#ffffff;"/>
  </g>
  <g id="axes_1">
   <g id="patch_2">
    <path d="M 42.519685 196.94345 
L 306.141732 196.94345 
L 306.141732 51.023622 
L 42.519685 51.023622 
z
" style="fill:#ffffff;"/>
   </g>
   <g id="axes_2">
    <g id="patch_3">
     <path d="M 42.519685 51.023622 
L 306.141732 51.023622 
L 306.141732 51.023622 
L 42.519685 51.023622 
z
" style="fill:#ffffff;"/>
    </g>
    <g id="matplotlib.axis_1">
     <g id="xtick_1">
      <g id="line2d_1">
       <defs>
        <path d="M 0 0 
L 0 -3.5 
" id="mb1393f952c" style="stroke:#000000;stroke-width:0.8;"/>
       </defs>
       <g>
        <use style="stroke:#000000;stroke-width:0.8;" x="52.652534" xlink:href="#mb1393f952c" y="51.023622"/>
       </g>
      </g>
      <g id="text_1">
       <!-- 1240 -->
       <g transform="translate(39.927534 41.943935)scale(0.1 -0.1)">
        <defs>
         <path d="M 794 531 
L 1825 531 
L 1825 4091 
L 703 3866 
L 703 4441 
L 1819 4666 
L 2450 4666 
L 2450 531 
L 3481 531 
L 3481 0 
L 794 0 
L 794 531 
z
" id="DejaVuSans-31" transform="scale(0.015625)"/>
         <path d="M 1228 531 
L 3431 531 
L 3431 0 
L 469 0 
L 469 531 
Q 828 903 1448 1529 
Q 2069 2156 2228 2338 
Q 2531 2678 2651 2914 
Q 2772 3150 2772 3378 
Q 2772 3750 2511 3984 
Q 2250 4219 1831 4219 
Q 1534 4219 1204 4116 
Q 875 4013 500 3803 
L 500 4441 
Q 881 4594 1212 4672 
Q 1544 4750 1819 4750 
Q 2544 4750 2975 4387 
Q 3406 4025 3406 3419 
Q 3406 3131 3298 2873 
Q 3191 2616 2906 2266 
Q 2828 2175 2409 1742 
Q 1991 1309 1228 531 
z
" id="DejaVuSans-32" transform="scale(0.015625)"/>
         <path d="M 2419 4116 
L 825 1625 
L 2419 1625 
L 2419 4116 
z
M 2253 4666 
L 3047 4666 
L 3047 1625 
L 3713 1625 
L 3713 1100 
L 3047 1100 
L 3047 0 
L 2419 0 
L 2419 1100 
L 313 1100 
L 313 1709 
L 2253 4666 
z
" id="DejaVuSans-34" transform="scale(0.015625)"/>
         <path d="M 2034 4250 
Q 1547 4250 1301 3770 
Q 1056 3291 1056 2328 
Q 1056 1369 1301 889 
Q 1547 409 2034 409 
Q 2525 409 2770 889 
Q 3016 1369 3016 2328 
Q 3016 3291 2770 3770 
Q 2525 4250 2034 4250 
z
M 2034 4750 
Q 2819 4750 3233 4129 
Q 3647 3509 3647 2328 
Q 3647 1150 3233 529 
Q 2819 -91 2034 -91 
Q 1250 -91 836 529 
Q 422 1150 422 2328 
Q 422 3509 836 4129 
Q 1250 4750 2034 4750 
z
" id="DejaVuSans-30" transform="scale(0.015625)"/>
        </defs>
        <use xlink:href="#DejaVuSans-31"/>
        <use x="63.623047" xlink:href="#DejaVuSans-32"/>
        <use x="127.246094" xlink:href="#DejaVuSans-34"/>
        <use x="190.869141" xlink:href="#DejaVuSans-30"/>
       </g>
      </g>
     </g>
     <g id="xtick_2">
      <g id="line2d_2">
       <g>
        <use style="stroke:#000000;stroke-width:0.8;" x="103.342621" xlink:href="#mb1393f952c" y="51.023622"/>
       </g>
      </g>
      <g id="text_2">
       <!-- 620 -->
       <g transform="translate(93.798871 41.943935)scale(0.1 -0.1)">
        <defs>
         <path d="M 2113 2584 
Q 1688 2584 1439 2293 
Q 1191 2003 1191 1497 
Q 1191 994 1439 701 
Q 1688 409 2113 409 
Q 2538 409 2786 701 
Q 3034 994 3034 1497 
Q 3034 2003 2786 2293 
Q 2538 2584 2113 2584 
z
M 3366 4563 
L 3366 3988 
Q 3128 4100 2886 4159 
Q 2644 4219 2406 4219 
Q 1781 4219 1451 3797 
Q 1122 3375 1075 2522 
Q 1259 2794 1537 2939 
Q 1816 3084 2150 3084 
Q 2853 3084 3261 2657 
Q 3669 2231 3669 1497 
Q 3669 778 3244 343 
Q 2819 -91 2113 -91 
Q 1303 -91 875 529 
Q 447 1150 447 2328 
Q 447 3434 972 4092 
Q 1497 4750 2381 4750 
Q 2619 4750 2861 4703 
Q 3103 4656 3366 4563 
z
" id="DejaVuSans-36" transform="scale(0.015625)"/>
        </defs>
        <use xlink:href="#DejaVuSans-36"/>
        <use x="63.623047" xlink:href="#DejaVuSans-32"/>
        <use x="127.246094" xlink:href="#DejaVuSans-30"/>
       </g>
      </g>
     </g>
     <g id="xtick_3">
      <g id="line2d_3">
       <g>
        <use style="stroke:#000000;stroke-width:0.8;" x="154.155445" xlink:href="#mb1393f952c" y="51.023622"/>
       </g>
      </g>
      <g id="text_3">
       <!-- 413 -->
       <g transform="translate(144.611695 41.943935)scale(0.1 -0.1)">
        <defs>
         <path d="M 2597 2516 
Q 3050 2419 3304 2112 
Q 3559 1806 3559 1356 
Q 3559 666 3084 287 
Q 2609 -91 1734 -91 
Q 1441 -91 1130 -33 
Q 819 25 488 141 
L 488 750 
Q 750 597 1062 519 
Q 1375 441 1716 441 
Q 2309 441 2620 675 
Q 2931 909 2931 1356 
Q 2931 1769 2642 2001 
Q 2353 2234 1838 2234 
L 1294 2234 
L 1294 2753 
L 1863 2753 
Q 2328 2753 2575 2939 
Q 2822 3125 2822 3475 
Q 2822 3834 2567 4026 
Q 2313 4219 1838 4219 
Q 1578 4219 1281 4162 
Q 984 4106 628 3988 
L 628 4550 
Q 988 4650 1302 4700 
Q 1616 4750 1894 4750 
Q 2613 4750 3031 4423 
Q 3450 4097 3450 3541 
Q 3450 3153 3228 2886 
Q 3006 2619 2597 2516 
z
" id="DejaVuSans-33" transform="scale(0.015625)"/>
        </defs>
        <use xlink:href="#DejaVuSans-34"/>
        <use x="63.623047" xlink:href="#DejaVuSans-31"/>
        <use x="127.246094" xlink:href="#DejaVuSans-33"/>
       </g>
      </g>
     </g>
     <g id="xtick_4">
      <g id="line2d_4">
       <g>
        <use style="stroke:#000000;stroke-width:0.8;" x="204.722796" xlink:href="#mb1393f952c" y="51.023622"/>
       </g>
      </g>
      <g id="text_4">
       <!-- 310 -->
       <g transform="translate(195.179046 41.943935)scale(0.1 -0.1)">
        <use xlink:href="#DejaVuSans-33"/>
        <use x="63.623047" xlink:href="#DejaVuSans-31"/>
        <use x="127.246094" xlink:href="#DejaVuSans-30"/>
       </g>
      </g>
     </g>
     <g id="xtick_5">
      <g id="line2d_5">
       <g>
        <use style="stroke:#000000;stroke-width:0.8;" x="255.412883" xlink:href="#mb1393f952c" y="51.023622"/>
       </g>
      </g>
      <g id="text_5">
       <!-- 248 -->
       <g transform="translate(245.869133 41.943935)scale(0.1 -0.1)">
        <defs>
         <path d="M 2034 2216 
Q 1584 2216 1326 1975 
Q 1069 1734 1069 1313 
Q 1069 891 1326 650 
Q 1584 409 2034 409 
Q 2484 409 2743 651 
Q 3003 894 3003 1313 
Q 3003 1734 2745 1975 
Q 2488 2216 2034 2216 
z
M 1403 2484 
Q 997 2584 770 2862 
Q 544 3141 544 3541 
Q 544 4100 942 4425 
Q 1341 4750 2034 4750 
Q 2731 4750 3128 4425 
Q 3525 4100 3525 3541 
Q 3525 3141 3298 2862 
Q 3072 2584 2669 2484 
Q 3125 2378 3379 2068 
Q 3634 1759 3634 1313 
Q 3634 634 3220 271 
Q 2806 -91 2034 -91 
Q 1263 -91 848 271 
Q 434 634 434 1313 
Q 434 1759 690 2068 
Q 947 2378 1403 2484 
z
M 1172 3481 
Q 1172 3119 1398 2916 
Q 1625 2713 2034 2713 
Q 2441 2713 2670 2916 
Q 2900 3119 2900 3481 
Q 2900 3844 2670 4047 
Q 2441 4250 2034 4250 
Q 1625 4250 1398 4047 
Q 1172 3844 1172 3481 
z
" id="DejaVuSans-38" transform="scale(0.015625)"/>
        </defs>
        <use xlink:href="#DejaVuSans-32"/>
        <use x="63.623047" xlink:href="#DejaVuSans-34"/>
        <use x="127.246094" xlink:href="#DejaVuSans-38"/>
       </g>
      </g>
     </g>
     <g id="xtick_6">
      <g id="line2d_6">
       <g>
        <use style="stroke:#000000;stroke-width:0.8;" x="305.613211" xlink:href="#mb1393f952c" y="51.023622"/>
       </g>
      </g>
      <g id="text_6">
       <!-- 207 -->
       <g transform="translate(296.069461 41.943935)scale(0.1 -0.1)">
        <defs>
         <path d="M 525 4666 
L 3525 4666 
L 3525 4397 
L 1831 0 
L 1172 0 
L 2766 4134 
L 525 4134 
L 525 4666 
z
" id="DejaVuSans-37" transform="scale(0.015625)"/>
        </defs>
        <use xlink:href="#DejaVuSans-32"/>
        <use x="63.623047" xlink:href="#DejaVuSans-30"/>
        <use x="127.246094" xlink:href="#DejaVuSans-37"/>
       </g>
      </g>
     </g>
     <g id="text_7">
      <!-- $\lambda$(nm) -->
      <g transform="translate(159.430709 30.345497)scale(0.1 -0.1)">
       <defs>
        <path d="M 2350 4316 
L 3125 0 
L 2516 0 
L 2038 2588 
L 328 0 
L -281 0 
L 1903 3356 
L 1794 3975 
Q 1725 4369 1391 4369 
L 1091 4369 
L 1184 4863 
L 1550 4856 
Q 2253 4847 2350 4316 
z
" id="DejaVuSans-Oblique-3bb" transform="scale(0.015625)"/>
        <path d="M 1984 4856 
Q 1566 4138 1362 3434 
Q 1159 2731 1159 2009 
Q 1159 1288 1364 580 
Q 1569 -128 1984 -844 
L 1484 -844 
Q 1016 -109 783 600 
Q 550 1309 550 2009 
Q 550 2706 781 3412 
Q 1013 4119 1484 4856 
L 1984 4856 
z
" id="DejaVuSans-28" transform="scale(0.015625)"/>
        <path d="M 3513 2113 
L 3513 0 
L 2938 0 
L 2938 2094 
Q 2938 2591 2744 2837 
Q 2550 3084 2163 3084 
Q 1697 3084 1428 2787 
Q 1159 2491 1159 1978 
L 1159 0 
L 581 0 
L 581 3500 
L 1159 3500 
L 1159 2956 
Q 1366 3272 1645 3428 
Q 1925 3584 2291 3584 
Q 2894 3584 3203 3211 
Q 3513 2838 3513 2113 
z
" id="DejaVuSans-6e" transform="scale(0.015625)"/>
        <path d="M 3328 2828 
Q 3544 3216 3844 3400 
Q 4144 3584 4550 3584 
Q 5097 3584 5394 3201 
Q 5691 2819 5691 2113 
L 5691 0 
L 5113 0 
L 5113 2094 
Q 5113 2597 4934 2840 
Q 4756 3084 4391 3084 
Q 3944 3084 3684 2787 
Q 3425 2491 3425 1978 
L 3425 0 
L 2847 0 
L 2847 2094 
Q 2847 2600 2669 2842 
Q 2491 3084 2119 3084 
Q 1678 3084 1418 2786 
Q 1159 2488 1159 1978 
L 1159 0 
L 581 0 
L 581 3500 
L 1159 3500 
L 1159 2956 
Q 1356 3278 1631 3431 
Q 1906 3584 2284 3584 
Q 2666 3584 2933 3390 
Q 3200 3197 3328 2828 
z
" id="DejaVuSans-6d" transform="scale(0.015625)"/>
        <path d="M 513 4856 
L 1013 4856 
Q 1481 4119 1714 3412 
Q 1947 2706 1947 2009 
Q 1947 1309 1714 600 
Q 1481 -109 1013 -844 
L 513 -844 
Q 928 -128 1133 580 
Q 1338 1288 1338 2009 
Q 1338 2731 1133 3434 
Q 928 4138 513 4856 
z
" id="DejaVuSans-29" transform="scale(0.015625)"/>
       </defs>
       <use transform="translate(0 0.015625)" xlink:href="#DejaVuSans-Oblique-3bb"/>
       <use transform="translate(59.179688 0.015625)" xlink:href="#DejaVuSans-28"/>
       <use transform="translate(98.193359 0.015625)" xlink:href="#DejaVuSans-6e"/>
       <use transform="translate(161.572266 0.015625)" xlink:href="#DejaVuSans-6d"/>
       <use transform="translate(258.984375 0.015625)" xlink:href="#DejaVuSans-29"/>
      </g>
     </g>
    </g>
    <g id="matplotlib.axis_2"/>
    <g id="patch_4">
     <path d="M 306.141732 51.023622 
L 42.519685 51.023622 
" style="fill:none;stroke:#000000;stroke-linecap:square;stroke-linejoin:miter;stroke-width:0.8;"/>
    </g>
   </g>
   <g id="matplotlib.axis_3">
    <g id="xtick_7">
     <g id="line2d_7">
      <defs>
       <path d="M 0 0 
L 0 3.5 
" id="m602bda2a6a" style="stroke:#000000;stroke-width:0.8;"/>
      </defs>
      <g>
       <use style="stroke:#000000;stroke-width:0.8;" x="52.658995" xlink:href="#m602bda2a6a" y="196.94345"/>
      </g>
     </g>
     <g id="text_8">
      <!-- 1 -->
      <g transform="translate(49.477745 211.541888)scale(0.1 -0.1)">
       <use xlink:href="#DejaVuSans-31"/>
      </g>
     </g>
    </g>
    <g id="xtick_8">
     <g id="line2d_8">
      <g>
       <use style="stroke:#000000;stroke-width:0.8;" x="103.355542" xlink:href="#m602bda2a6a" y="196.94345"/>
      </g>
     </g>
     <g id="text_9">
      <!-- 2 -->
      <g transform="translate(100.174292 211.541888)scale(0.1 -0.1)">
       <use xlink:href="#DejaVuSans-32"/>
      </g>
     </g>
    </g>
    <g id="xtick_9">
     <g id="line2d_9">
      <g>
       <use style="stroke:#000000;stroke-width:0.8;" x="154.05209" xlink:href="#m602bda2a6a" y="196.94345"/>
      </g>
     </g>
     <g id="text_10">
      <!-- 3 -->
      <g transform="translate(150.87084 211.541888)scale(0.1 -0.1)">
       <use xlink:href="#DejaVuSans-33"/>
      </g>
     </g>
    </g>
    <g id="xtick_10">
     <g id="line2d_10">
      <g>
       <use style="stroke:#000000;stroke-width:0.8;" x="204.748637" xlink:href="#m602bda2a6a" y="196.94345"/>
      </g>
     </g>
     <g id="text_11">
      <!-- 4 -->
      <g transform="translate(201.567387 211.541888)scale(0.1 -0.1)">
       <use xlink:href="#DejaVuSans-34"/>
      </g>
     </g>
    </g>
    <g id="xtick_11">
     <g id="line2d_11">
      <g>
       <use style="stroke:#000000;stroke-width:0.8;" x="255.445185" xlink:href="#m602bda2a6a" y="196.94345"/>
      </g>
     </g>
     <g id="text_12">
      <!-- 5 -->
      <g transform="translate(252.263935 211.541888)scale(0.1 -0.1)">
       <defs>
        <path d="M 691 4666 
L 3169 4666 
L 3169 4134 
L 1269 4134 
L 1269 2991 
Q 1406 3038 1543 3061 
Q 1681 3084 1819 3084 
Q 2600 3084 3056 2656 
Q 3513 2228 3513 1497 
Q 3513 744 3044 326 
Q 2575 -91 1722 -91 
Q 1428 -91 1123 -41 
Q 819 9 494 109 
L 494 744 
Q 775 591 1075 516 
Q 1375 441 1709 441 
Q 2250 441 2565 725 
Q 2881 1009 2881 1497 
Q 2881 1984 2565 2268 
Q 2250 2553 1709 2553 
Q 1456 2553 1204 2497 
Q 953 2441 691 2322 
L 691 4666 
z
" id="DejaVuSans-35" transform="scale(0.015625)"/>
       </defs>
       <use xlink:href="#DejaVuSans-35"/>
      </g>
     </g>
    </g>
    <g id="xtick_12">
     <g id="line2d_12">
      <g>
       <use style="stroke:#000000;stroke-width:0.8;" x="306.141732" xlink:href="#m602bda2a6a" y="196.94345"/>
      </g>
     </g>
     <g id="text_13">
      <!-- 6 -->
      <g transform="translate(302.960482 211.541888)scale(0.1 -0.1)">
       <use xlink:href="#DejaVuSans-36"/>
      </g>
     </g>
    </g>
   </g>
   <g id="matplotlib.axis_4">
    <g id="ytick_1">
     <g id="line2d_13">
      <defs>
       <path d="M 0 0 
L -3.5 0 
" id="m3e951648ca" style="stroke:#000000;stroke-width:0.8;"/>
      </defs>
      <g>
       <use style="stroke:#000000;stroke-width:0.8;" x="42.519685" xlink:href="#m3e951648ca" y="183.678011"/>
      </g>
     </g>
     <g id="text_14">
      <!-- 0 -->
      <g transform="translate(29.157185 187.47723)scale(0.1 -0.1)">
       <use xlink:href="#DejaVuSans-30"/>
      </g>
     </g>
    </g>
    <g id="ytick_2">
     <g id="line2d_14">
      <g>
       <use style="stroke:#000000;stroke-width:0.8;" x="42.519685" xlink:href="#m3e951648ca" y="157.147133"/>
      </g>
     </g>
     <g id="text_15">
      <!-- 2 -->
      <g transform="translate(29.157185 160.946352)scale(0.1 -0.1)">
       <use xlink:href="#DejaVuSans-32"/>
      </g>
     </g>
    </g>
    <g id="ytick_3">
     <g id="line2d_15">
      <g>
       <use style="stroke:#000000;stroke-width:0.8;" x="42.519685" xlink:href="#m3e951648ca" y="130.616256"/>
      </g>
     </g>
     <g id="text_16">
      <!-- 4 -->
      <g transform="translate(29.157185 134.415474)scale(0.1 -0.1)">
       <use xlink:href="#DejaVuSans-34"/>
      </g>
     </g>
    </g>
    <g id="ytick_4">
     <g id="line2d_16">
      <g>
       <use style="stroke:#000000;stroke-width:0.8;" x="42.519685" xlink:href="#m3e951648ca" y="104.085378"/>
      </g>
     </g>
     <g id="text_17">
      <!-- 6 -->
      <g transform="translate(29.157185 107.884597)scale(0.1 -0.1)">
       <use xlink:href="#DejaVuSans-36"/>
      </g>
     </g>
    </g>
    <g id="ytick_5">
     <g id="line2d_17">
      <g>
       <use style="stroke:#000000;stroke-width:0.8;" x="42.519685" xlink:href="#m3e951648ca" y="77.5545"/>
      </g>
     </g>
     <g id="text_18">
      <!-- 8 -->
      <g transform="translate(29.157185 81.353719)scale(0.1 -0.1)">
       <use xlink:href="#DejaVuSans-38"/>
      </g>
     </g>
    </g>
    <g id="ytick_6">
     <g id="line2d_18">
      <g>
       <use style="stroke:#000000;stroke-width:0.8;" x="42.519685" xlink:href="#m3e951648ca" y="51.023622"/>
      </g>
     </g>
     <g id="text_19">
      <!-- 10 -->
      <g transform="translate(22.794685 54.822841)scale(0.1 -0.1)">
       <use xlink:href="#DejaVuSans-31"/>
       <use x="63.623047" xlink:href="#DejaVuSans-30"/>
      </g>
     </g>
    </g>
    <g id="text_20">
     <!-- Imaginary Permittivity, Im($\epsilon$) -->
     <g transform="translate(16.694685 195.583536)rotate(-90)scale(0.1 -0.1)">
      <defs>
       <path d="M 628 4666 
L 1259 4666 
L 1259 0 
L 628 0 
L 628 4666 
z
" id="DejaVuSans-49" transform="scale(0.015625)"/>
       <path d="M 2194 1759 
Q 1497 1759 1228 1600 
Q 959 1441 959 1056 
Q 959 750 1161 570 
Q 1363 391 1709 391 
Q 2188 391 2477 730 
Q 2766 1069 2766 1631 
L 2766 1759 
L 2194 1759 
z
M 3341 1997 
L 3341 0 
L 2766 0 
L 2766 531 
Q 2569 213 2275 61 
Q 1981 -91 1556 -91 
Q 1019 -91 701 211 
Q 384 513 384 1019 
Q 384 1609 779 1909 
Q 1175 2209 1959 2209 
L 2766 2209 
L 2766 2266 
Q 2766 2663 2505 2880 
Q 2244 3097 1772 3097 
Q 1472 3097 1187 3025 
Q 903 2953 641 2809 
L 641 3341 
Q 956 3463 1253 3523 
Q 1550 3584 1831 3584 
Q 2591 3584 2966 3190 
Q 3341 2797 3341 1997 
z
" id="DejaVuSans-61" transform="scale(0.015625)"/>
       <path d="M 2906 1791 
Q 2906 2416 2648 2759 
Q 2391 3103 1925 3103 
Q 1463 3103 1205 2759 
Q 947 2416 947 1791 
Q 947 1169 1205 825 
Q 1463 481 1925 481 
Q 2391 481 2648 825 
Q 2906 1169 2906 1791 
z
M 3481 434 
Q 3481 -459 3084 -895 
Q 2688 -1331 1869 -1331 
Q 1566 -1331 1297 -1286 
Q 1028 -1241 775 -1147 
L 775 -588 
Q 1028 -725 1275 -790 
Q 1522 -856 1778 -856 
Q 2344 -856 2625 -561 
Q 2906 -266 2906 331 
L 2906 616 
Q 2728 306 2450 153 
Q 2172 0 1784 0 
Q 1141 0 747 490 
Q 353 981 353 1791 
Q 353 2603 747 3093 
Q 1141 3584 1784 3584 
Q 2172 3584 2450 3431 
Q 2728 3278 2906 2969 
L 2906 3500 
L 3481 3500 
L 3481 434 
z
" id="DejaVuSans-67" transform="scale(0.015625)"/>
       <path d="M 603 3500 
L 1178 3500 
L 1178 0 
L 603 0 
L 603 3500 
z
M 603 4863 
L 1178 4863 
L 1178 4134 
L 603 4134 
L 603 4863 
z
" id="DejaVuSans-69" transform="scale(0.015625)"/>
       <path d="M 2631 2963 
Q 2534 3019 2420 3045 
Q 2306 3072 2169 3072 
Q 1681 3072 1420 2755 
Q 1159 2438 1159 1844 
L 1159 0 
L 581 0 
L 581 3500 
L 1159 3500 
L 1159 2956 
Q 1341 3275 1631 3429 
Q 1922 3584 2338 3584 
Q 2397 3584 2469 3576 
Q 2541 3569 2628 3553 
L 2631 2963 
z
" id="DejaVuSans-72" transform="scale(0.015625)"/>
       <path d="M 2059 -325 
Q 1816 -950 1584 -1140 
Q 1353 -1331 966 -1331 
L 506 -1331 
L 506 -850 
L 844 -850 
Q 1081 -850 1212 -737 
Q 1344 -625 1503 -206 
L 1606 56 
L 191 3500 
L 800 3500 
L 1894 763 
L 2988 3500 
L 3597 3500 
L 2059 -325 
z
" id="DejaVuSans-79" transform="scale(0.015625)"/>
       <path id="DejaVuSans-20" transform="scale(0.015625)"/>
       <path d="M 1259 4147 
L 1259 2394 
L 2053 2394 
Q 2494 2394 2734 2622 
Q 2975 2850 2975 3272 
Q 2975 3691 2734 3919 
Q 2494 4147 2053 4147 
L 1259 4147 
z
M 628 4666 
L 2053 4666 
Q 2838 4666 3239 4311 
Q 3641 3956 3641 3272 
Q 3641 2581 3239 2228 
Q 2838 1875 2053 1875 
L 1259 1875 
L 1259 0 
L 628 0 
L 628 4666 
z
" id="DejaVuSans-50" transform="scale(0.015625)"/>
       <path d="M 3597 1894 
L 3597 1613 
L 953 1613 
Q 991 1019 1311 708 
Q 1631 397 2203 397 
Q 2534 397 2845 478 
Q 3156 559 3463 722 
L 3463 178 
Q 3153 47 2828 -22 
Q 2503 -91 2169 -91 
Q 1331 -91 842 396 
Q 353 884 353 1716 
Q 353 2575 817 3079 
Q 1281 3584 2069 3584 
Q 2775 3584 3186 3129 
Q 3597 2675 3597 1894 
z
M 3022 2063 
Q 3016 2534 2758 2815 
Q 2500 3097 2075 3097 
Q 1594 3097 1305 2825 
Q 1016 2553 972 2059 
L 3022 2063 
z
" id="DejaVuSans-65" transform="scale(0.015625)"/>
       <path d="M 1172 4494 
L 1172 3500 
L 2356 3500 
L 2356 3053 
L 1172 3053 
L 1172 1153 
Q 1172 725 1289 603 
Q 1406 481 1766 481 
L 2356 481 
L 2356 0 
L 1766 0 
Q 1100 0 847 248 
Q 594 497 594 1153 
L 594 3053 
L 172 3053 
L 172 3500 
L 594 3500 
L 594 4494 
L 1172 4494 
z
" id="DejaVuSans-74" transform="scale(0.015625)"/>
       <path d="M 191 3500 
L 800 3500 
L 1894 563 
L 2988 3500 
L 3597 3500 
L 2284 0 
L 1503 0 
L 191 3500 
z
" id="DejaVuSans-76" transform="scale(0.015625)"/>
       <path d="M 750 794 
L 1409 794 
L 1409 256 
L 897 -744 
L 494 -744 
L 750 256 
L 750 794 
z
" id="DejaVuSans-2c" transform="scale(0.015625)"/>
       <path d="M 1263 1888 
Q 925 1963 778 2166 
Q 669 2309 669 2503 
Q 669 3034 1175 3344 
Q 1575 3588 2188 3588 
Q 2425 3588 2684 3550 
Q 2944 3513 3234 3438 
L 3134 2916 
Q 2847 3006 2606 3047 
Q 2359 3088 2138 3088 
Q 1766 3088 1522 2944 
Q 1228 2772 1228 2522 
Q 1228 2356 1381 2241 
Q 1563 2103 1925 2103 
L 2409 2103 
L 2319 1628 
L 1856 1628 
Q 1425 1628 1172 1469 
Q 828 1253 828 916 
Q 828 703 1013 563 
Q 1244 388 1716 388 
Q 2006 388 2284 444 
Q 2563 503 2806 619 
L 2700 84 
Q 2403 -3 2131 -47 
Q 1859 -91 1609 -91 
Q 866 -91 516 194 
Q 250 413 250 781 
Q 250 1278 600 1584 
Q 859 1813 1263 1888 
z
" id="DejaVuSans-Oblique-3b5" transform="scale(0.015625)"/>
      </defs>
      <use transform="translate(0 0.015625)" xlink:href="#DejaVuSans-49"/>
      <use transform="translate(25.867188 0.015625)" xlink:href="#DejaVuSans-6d"/>
      <use transform="translate(123.279297 0.015625)" xlink:href="#DejaVuSans-61"/>
      <use transform="translate(184.558594 0.015625)" xlink:href="#DejaVuSans-67"/>
      <use transform="translate(248.035156 0.015625)" xlink:href="#DejaVuSans-69"/>
      <use transform="translate(275.818359 0.015625)" xlink:href="#DejaVuSans-6e"/>
      <use transform="translate(339.197266 0.015625)" xlink:href="#DejaVuSans-61"/>
      <use transform="translate(400.476562 0.015625)" xlink:href="#DejaVuSans-72"/>
      <use transform="translate(441.589844 0.015625)" xlink:href="#DejaVuSans-79"/>
      <use transform="translate(500.769531 0.015625)" xlink:href="#DejaVuSans-20"/>
      <use transform="translate(532.556641 0.015625)" xlink:href="#DejaVuSans-50"/>
      <use transform="translate(592.859375 0.015625)" xlink:href="#DejaVuSans-65"/>
      <use transform="translate(654.382812 0.015625)" xlink:href="#DejaVuSans-72"/>
      <use transform="translate(695.496094 0.015625)" xlink:href="#DejaVuSans-6d"/>
      <use transform="translate(792.908203 0.015625)" xlink:href="#DejaVuSans-69"/>
      <use transform="translate(820.691406 0.015625)" xlink:href="#DejaVuSans-74"/>
      <use transform="translate(859.900391 0.015625)" xlink:href="#DejaVuSans-74"/>
      <use transform="translate(899.109375 0.015625)" xlink:href="#DejaVuSans-69"/>
      <use transform="translate(926.892578 0.015625)" xlink:href="#DejaVuSans-76"/>
      <use transform="translate(986.072266 0.015625)" xlink:href="#DejaVuSans-69"/>
      <use transform="translate(1013.855469 0.015625)" xlink:href="#DejaVuSans-74"/>
      <use transform="translate(1053.064453 0.015625)" xlink:href="#DejaVuSans-79"/>
      <use transform="translate(1112.244141 0.015625)" xlink:href="#DejaVuSans-2c"/>
      <use transform="translate(1144.03125 0.015625)" xlink:href="#DejaVuSans-20"/>
      <use transform="translate(1175.818359 0.015625)" xlink:href="#DejaVuSans-49"/>
      <use transform="translate(1201.685547 0.015625)" xlink:href="#DejaVuSans-6d"/>
      <use transform="translate(1299.097656 0.015625)" xlink:href="#DejaVuSans-28"/>
      <use transform="translate(1338.111328 0.015625)" xlink:href="#DejaVuSans-Oblique-3b5"/>
      <use transform="translate(1392.164062 0.015625)" xlink:href="#DejaVuSans-29"/>
     </g>
    </g>
   </g>
   <g id="line2d_19">
    <path clip-path="url(#p246794928a)" d="M 42.519685 12.650819 
L 47.58934 61.464149 
L 52.658995 92.762501 
L 57.728649 113.742413 
L 62.798304 128.326432 
L 67.867959 138.7763 
L 72.937614 146.458402 
L 78.007268 152.231306 
L 83.076923 156.652922 
L 88.146578 160.09647 
L 93.216233 162.81803 
L 98.285887 164.99728 
L 103.355542 166.762812 
L 108.425197 168.208305 
L 113.494852 169.403097 
L 118.564506 170.399257 
L 123.634161 171.236399 
L 128.703816 171.945023 
L 133.773471 172.548872 
L 138.843125 173.066615 
L 143.91278 173.513065 
L 148.982435 173.900083 
L 154.05209 174.237236 
L 159.121744 174.532304 
L 164.191399 174.791652 
L 169.261054 175.020526 
L 174.330709 175.223273 
L 179.400363 175.403517 
L 184.470018 175.564295 
L 189.539673 175.708165 
L 194.609328 175.837293 
L 199.678982 175.95352 
L 204.748637 176.058417 
L 209.818292 176.153331 
L 214.887947 176.239423 
L 219.957601 176.317694 
L 225.027256 176.389012 
L 230.096911 176.454133 
L 235.166566 176.513715 
L 240.23622 176.568335 
L 245.305875 176.618499 
L 250.37553 176.664652 
L 255.445185 176.707187 
L 260.514839 176.746451 
L 265.584494 176.782754 
L 270.654149 176.816369 
L 275.723804 176.84754 
L 280.793459 176.876486 
L 285.863113 176.903402 
L 290.932768 176.928461 
L 296.002423 176.951823 
L 301.072078 176.973628 
" style="fill:none;stroke:#a42828;stroke-dasharray:7.4,3.2;stroke-dashoffset:0;stroke-width:2;"/>
   </g>
   <g id="line2d_20">
    <path clip-path="url(#p246794928a)" d="M 42.519685 183.582494 
L 47.58934 183.547291 
L 52.658995 183.502684 
L 57.728649 183.446889 
L 62.798304 183.37783 
L 67.867959 183.293072 
L 72.937614 183.189737 
L 78.007268 183.064411 
L 83.076923 182.91302 
L 88.146578 182.73068 
L 93.216233 182.511507 
L 98.285887 182.248386 
L 103.355542 181.932683 
L 108.425197 181.553882 
L 113.494852 181.099144 
L 118.564506 180.55277 
L 123.634161 179.895543 
L 128.703816 179.103981 
L 133.773471 178.149485 
L 138.843125 176.997491 
L 143.91278 175.606765 
L 148.982435 173.929182 
L 154.05209 171.910592 
L 159.121744 169.493776 
L 164.191399 166.625069 
L 169.261054 163.266687 
L 174.330709 159.416729 
L 179.400363 155.13702 
L 184.470018 150.583884 
L 189.539673 146.0283 
L 194.609328 141.84381 
L 199.678982 138.44431 
L 204.748637 136.179251 
L 209.818292 135.230259 
L 214.887947 135.565337 
L 219.957601 136.973178 
L 225.027256 139.149128 
L 230.096911 141.78286 
L 235.166566 144.614828 
L 240.23622 147.456788 
L 245.305875 150.18801 
L 250.37553 152.740851 
L 255.445185 155.084752 
L 260.514839 157.21282 
L 265.584494 159.132031 
L 270.654149 160.856668 
L 275.723804 162.404196 
L 280.793459 163.792817 
L 285.863113 165.040119 
L 290.932768 166.162387 
L 296.002423 167.174326 
L 301.072078 168.089005 
" style="fill:none;stroke:#a4a428;stroke-dasharray:7.4,3.2;stroke-dashoffset:0;stroke-width:2;"/>
   </g>
   <g id="line2d_21">
    <path clip-path="url(#p246794928a)" d="M 42.519685 187.961155 
L 47.58934 188.513692 
L 52.658995 189.06585 
L 57.728649 189.612456 
L 62.798304 190.145186 
L 67.867959 190.651047 
L 72.937614 191.110082 
L 78.007268 191.491884 
L 83.076923 191.750311 
L 88.146578 191.815482 
L 93.216233 191.581828 
L 98.285887 190.890871 
L 103.355542 189.508288 
L 108.425197 187.098834 
L 113.494852 183.214667 
L 118.564506 177.339751 
L 123.634161 169.07281 
L 128.703816 158.526011 
L 133.773471 146.80843 
L 138.843125 136.034347 
L 143.91278 128.36053 
L 148.982435 124.73469 
L 154.05209 124.647915 
L 159.121744 126.887778 
L 164.191399 130.304871 
L 169.261054 134.114419 
L 174.330709 137.87643 
L 179.400363 141.38247 
L 184.470018 144.5559 
L 189.539673 147.387284 
L 194.609328 149.897882 
L 199.678982 152.120603 
L 204.748637 154.090685 
L 209.818292 155.841491 
L 214.887947 157.402876 
L 219.957601 158.800799 
L 225.027256 160.057498 
L 230.096911 161.191877 
L 235.166566 162.219963 
L 240.23622 163.15534 
L 245.305875 164.009534 
L 250.37553 164.792354 
L 255.445185 165.512171 
L 260.514839 166.176156 
L 265.584494 166.790473 
L 270.654149 167.360444 
L 275.723804 167.890677 
L 280.793459 168.385182 
L 285.863113 168.847458 
L 290.932768 169.280571 
L 296.002423 169.687217 
L 301.072078 170.069776 
" style="fill:none;stroke:#28a428;stroke-dasharray:7.4,3.2;stroke-dashoffset:0;stroke-width:2;"/>
   </g>
   <g id="line2d_22">
    <path clip-path="url(#p246794928a)" d="M 42.519685 182.412322 
L 47.58934 182.25049 
L 52.658995 182.087376 
L 57.728649 181.922834 
L 62.798304 181.75672 
L 67.867959 181.588886 
L 72.937614 181.419188 
L 78.007268 181.247476 
L 83.076923 181.073604 
L 88.146578 180.897423 
L 93.216233 180.718785 
L 98.285887 180.53754 
L 103.355542 180.35354 
L 108.425197 180.166636 
L 113.494852 179.97668 
L 118.564506 179.783525 
L 123.634161 179.587024 
L 128.703816 179.387033 
L 133.773471 179.18341 
L 138.843125 178.976013 
L 143.91278 178.764708 
L 148.982435 178.549361 
L 154.05209 178.329845 
L 159.121744 178.106036 
L 164.191399 177.877821 
L 169.261054 177.645091 
L 174.330709 177.407748 
L 179.400363 177.165704 
L 184.470018 176.918884 
L 189.539673 176.667224 
L 194.609328 176.410678 
L 199.678982 176.149216 
L 204.748637 175.882827 
L 209.818292 175.611522 
L 214.887947 175.335336 
L 219.957601 175.054329 
L 225.027256 174.76859 
L 230.096911 174.478242 
L 235.166566 174.183437 
L 240.23622 173.884369 
L 245.305875 173.581268 
L 250.37553 173.274408 
L 255.445185 172.964107 
L 260.514839 172.650732 
L 265.584494 172.334699 
L 270.654149 172.016476 
L 275.723804 171.696587 
L 280.793459 171.375608 
L 285.863113 171.054174 
L 290.932768 170.732975 
L 296.002423 170.412759 
L 301.072078 170.094328 
" style="fill:none;stroke:#28a4a4;stroke-dasharray:7.4,3.2;stroke-dashoffset:0;stroke-width:2;"/>
   </g>
   <g id="line2d_23">
    <path clip-path="url(#p246794928a)" d="M 42.519685 183.641221 
L 47.58934 183.636599 
L 52.658995 183.631968 
L 57.728649 183.627329 
L 62.798304 183.62268 
L 67.867959 183.618019 
L 72.937614 183.613347 
L 78.007268 183.608662 
L 83.076923 183.603963 
L 88.146578 183.599249 
L 93.216233 183.594519 
L 98.285887 183.589773 
L 103.355542 183.585008 
L 108.425197 183.580225 
L 113.494852 183.575423 
L 118.564506 183.570599 
L 123.634161 183.565754 
L 128.703816 183.560885 
L 133.773471 183.555993 
L 138.843125 183.551075 
L 143.91278 183.546132 
L 148.982435 183.541161 
L 154.05209 183.536162 
L 159.121744 183.531133 
L 164.191399 183.526074 
L 169.261054 183.520983 
L 174.330709 183.515859 
L 179.400363 183.5107 
L 184.470018 183.505506 
L 189.539673 183.500275 
L 194.609328 183.495007 
L 199.678982 183.489699 
L 204.748637 183.48435 
L 209.818292 183.478959 
L 214.887947 183.473525 
L 219.957601 183.468046 
L 225.027256 183.46252 
L 230.096911 183.456947 
L 235.166566 183.451325 
L 240.23622 183.445652 
L 245.305875 183.439927 
L 250.37553 183.434147 
L 255.445185 183.428312 
L 260.514839 183.42242 
L 265.584494 183.416469 
L 270.654149 183.410457 
L 275.723804 183.404383 
L 280.793459 183.398244 
L 285.863113 183.392039 
L 290.932768 183.385766 
L 296.002423 183.379423 
L 301.072078 183.373007 
" style="fill:none;stroke:#2828a4;stroke-dasharray:7.4,3.2;stroke-dashoffset:0;stroke-width:2;"/>
   </g>
   <g id="line2d_24">
    <path clip-path="url(#p246794928a)" d="M 42.519685 15.535966 
L 47.58934 64.700175 
L 52.658995 96.338334 
L 57.728649 117.639875 
L 62.798304 132.516802 
L 67.867959 143.21528 
L 72.937614 151.07871 
L 78.007268 156.931694 
L 83.076923 161.281775 
L 88.146578 164.427259 
L 93.216233 166.512624 
L 98.285887 167.551804 
L 103.355542 167.430285 
L 108.425197 165.895836 
L 113.494852 162.556965 
L 118.564506 156.933856 
L 123.634161 148.645484 
L 128.703816 137.810888 
L 133.773471 125.534145 
L 138.843125 113.913497 
L 143.91278 105.079154 
L 148.982435 99.942432 
L 154.05209 97.949704 
L 159.121744 97.838983 
L 164.191399 98.413442 
L 169.261054 98.855661 
L 174.330709 98.727993 
L 179.400363 97.887365 
L 184.470018 96.416424 
L 189.539673 94.579204 
L 194.609328 92.772625 
L 199.678982 91.445302 
L 204.748637 90.983484 
L 209.818292 91.603517 
L 214.887947 93.304451 
L 219.957601 95.902001 
L 225.027256 99.114703 
L 230.096911 102.652014 
L 235.166566 106.271224 
L 240.23622 109.798438 
L 245.305875 113.125192 
L 250.37553 116.194366 
L 255.445185 118.984483 
L 260.514839 121.496534 
L 265.584494 123.744381 
L 270.654149 125.74837 
L 275.723804 127.531337 
L 280.793459 129.116292 
L 285.863113 130.525145 
L 290.932768 131.778115 
L 296.002423 132.893503 
L 301.072078 133.887698 
" style="fill:none;stroke:#000000;stroke-linecap:square;stroke-width:2;"/>
   </g>
   <g id="patch_5">
    <path d="M 42.519685 196.94345 
L 42.519685 51.023622 
" style="fill:none;stroke:#000000;stroke-linecap:square;stroke-linejoin:miter;stroke-width:0.8;"/>
   </g>
   <g id="patch_6">
    <path d="M 306.141732 196.94345 
L 306.141732 51.023622 
" style="fill:none;stroke:#000000;stroke-linecap:square;stroke-linejoin:miter;stroke-width:0.8;"/>
   </g>
   <g id="patch_7">
    <path d="M 42.519685 196.94345 
L 306.141732 196.94345 
" style="fill:none;stroke:#000000;stroke-linecap:square;stroke-linejoin:miter;stroke-width:0.8;"/>
   </g>
   <g id="patch_8">
    <path d="M 42.519685 51.023622 
L 306.141732 51.023622 
" style="fill:none;stroke:#000000;stroke-linecap:square;stroke-linejoin:miter;stroke-width:0.8;"/>
   </g>
  </g>
  <g id="axes_3">
   <g id="patch_9">
    <path d="M 42.519685 372.047244 
L 306.141732 372.047244 
L 306.141732 226.127416 
L 42.519685 226.127416 
z
" style="fill:#ffffff;"/>
   </g>
   <g id="matplotlib.axis_5">
    <g id="xtick_13">
     <g id="line2d_25">
      <g>
       <use style="stroke:#000000;stroke-width:0.8;" x="52.658995" xlink:href="#m602bda2a6a" y="372.047244"/>
      </g>
     </g>
     <g id="text_21">
      <!-- 1 -->
      <g transform="translate(49.477745 386.645682)scale(0.1 -0.1)">
       <use xlink:href="#DejaVuSans-31"/>
      </g>
     </g>
    </g>
    <g id="xtick_14">
     <g id="line2d_26">
      <g>
       <use style="stroke:#000000;stroke-width:0.8;" x="103.355542" xlink:href="#m602bda2a6a" y="372.047244"/>
      </g>
     </g>
     <g id="text_22">
      <!-- 2 -->
      <g transform="translate(100.174292 386.645682)scale(0.1 -0.1)">
       <use xlink:href="#DejaVuSans-32"/>
      </g>
     </g>
    </g>
    <g id="xtick_15">
     <g id="line2d_27">
      <g>
       <use style="stroke:#000000;stroke-width:0.8;" x="154.05209" xlink:href="#m602bda2a6a" y="372.047244"/>
      </g>
     </g>
     <g id="text_23">
      <!-- 3 -->
      <g transform="translate(150.87084 386.645682)scale(0.1 -0.1)">
       <use xlink:href="#DejaVuSans-33"/>
      </g>
     </g>
    </g>
    <g id="xtick_16">
     <g id="line2d_28">
      <g>
       <use style="stroke:#000000;stroke-width:0.8;" x="204.748637" xlink:href="#m602bda2a6a" y="372.047244"/>
      </g>
     </g>
     <g id="text_24">
      <!-- 4 -->
      <g transform="translate(201.567387 386.645682)scale(0.1 -0.1)">
       <use xlink:href="#DejaVuSans-34"/>
      </g>
     </g>
    </g>
    <g id="xtick_17">
     <g id="line2d_29">
      <g>
       <use style="stroke:#000000;stroke-width:0.8;" x="255.445185" xlink:href="#m602bda2a6a" y="372.047244"/>
      </g>
     </g>
     <g id="text_25">
      <!-- 5 -->
      <g transform="translate(252.263935 386.645682)scale(0.1 -0.1)">
       <use xlink:href="#DejaVuSans-35"/>
      </g>
     </g>
    </g>
    <g id="xtick_18">
     <g id="line2d_30">
      <g>
       <use style="stroke:#000000;stroke-width:0.8;" x="306.141732" xlink:href="#m602bda2a6a" y="372.047244"/>
      </g>
     </g>
     <g id="text_26">
      <!-- 6 -->
      <g transform="translate(302.960482 386.645682)scale(0.1 -0.1)">
       <use xlink:href="#DejaVuSans-36"/>
      </g>
     </g>
    </g>
    <g id="text_27">
     <!-- $\omega$(eV) -->
     <g transform="translate(159.730709 400.323807)scale(0.1 -0.1)">
      <defs>
       <path d="M 1369 -91 
Q 72 -91 434 1766 
Q 575 2500 1256 3500 
L 1875 3500 
Q 1231 2500 1088 1750 
Q 819 397 1519 397 
Q 2166 397 2478 2078 
L 3009 2078 
Q 2669 388 3316 397 
Q 4013 403 4275 1750 
Q 4419 2500 4169 3500 
L 4788 3500 
Q 5075 2500 4934 1766 
Q 4578 -94 3278 -91 
Q 2428 -88 2503 844 
Q 2194 -91 1369 -91 
z
" id="DejaVuSans-Oblique-3c9" transform="scale(0.015625)"/>
       <path d="M 1831 0 
L 50 4666 
L 709 4666 
L 2188 738 
L 3669 4666 
L 4325 4666 
L 2547 0 
L 1831 0 
z
" id="DejaVuSans-56" transform="scale(0.015625)"/>
      </defs>
      <use transform="translate(0 0.125)" xlink:href="#DejaVuSans-Oblique-3c9"/>
      <use transform="translate(83.740234 0.125)" xlink:href="#DejaVuSans-28"/>
      <use transform="translate(122.753906 0.125)" xlink:href="#DejaVuSans-65"/>
      <use transform="translate(184.277344 0.125)" xlink:href="#DejaVuSans-56"/>
      <use transform="translate(252.685547 0.125)" xlink:href="#DejaVuSans-29"/>
     </g>
    </g>
   </g>
   <g id="matplotlib.axis_6">
    <g id="ytick_7">
     <g id="line2d_31">
      <g>
       <use style="stroke:#000000;stroke-width:0.8;" x="42.519685" xlink:href="#m3e951648ca" y="372.047244"/>
      </g>
     </g>
     <g id="text_28">
      <!-- −30 -->
      <g transform="translate(14.414998 375.846463)scale(0.1 -0.1)">
       <defs>
        <path d="M 678 2272 
L 4684 2272 
L 4684 1741 
L 678 1741 
L 678 2272 
z
" id="DejaVuSans-2212" transform="scale(0.015625)"/>
       </defs>
       <use xlink:href="#DejaVuSans-2212"/>
       <use x="83.789062" xlink:href="#DejaVuSans-33"/>
       <use x="147.412109" xlink:href="#DejaVuSans-30"/>
      </g>
     </g>
    </g>
    <g id="ytick_8">
     <g id="line2d_32">
      <g>
       <use style="stroke:#000000;stroke-width:0.8;" x="42.519685" xlink:href="#m3e951648ca" y="335.567287"/>
      </g>
     </g>
     <g id="text_29">
      <!-- −20 -->
      <g transform="translate(14.414998 339.366506)scale(0.1 -0.1)">
       <use xlink:href="#DejaVuSans-2212"/>
       <use x="83.789062" xlink:href="#DejaVuSans-32"/>
       <use x="147.412109" xlink:href="#DejaVuSans-30"/>
      </g>
     </g>
    </g>
    <g id="ytick_9">
     <g id="line2d_33">
      <g>
       <use style="stroke:#000000;stroke-width:0.8;" x="42.519685" xlink:href="#m3e951648ca" y="299.08733"/>
      </g>
     </g>
     <g id="text_30">
      <!-- −10 -->
      <g transform="translate(14.414998 302.886549)scale(0.1 -0.1)">
       <use xlink:href="#DejaVuSans-2212"/>
       <use x="83.789062" xlink:href="#DejaVuSans-31"/>
       <use x="147.412109" xlink:href="#DejaVuSans-30"/>
      </g>
     </g>
    </g>
    <g id="ytick_10">
     <g id="line2d_34">
      <g>
       <use style="stroke:#000000;stroke-width:0.8;" x="42.519685" xlink:href="#m3e951648ca" y="262.607373"/>
      </g>
     </g>
     <g id="text_31">
      <!-- 0 -->
      <g transform="translate(29.157185 266.406592)scale(0.1 -0.1)">
       <use xlink:href="#DejaVuSans-30"/>
      </g>
     </g>
    </g>
    <g id="ytick_11">
     <g id="line2d_35">
      <g>
       <use style="stroke:#000000;stroke-width:0.8;" x="42.519685" xlink:href="#m3e951648ca" y="226.127416"/>
      </g>
     </g>
     <g id="text_32">
      <!-- 10 -->
      <g transform="translate(22.794685 229.926635)scale(0.1 -0.1)">
       <use xlink:href="#DejaVuSans-31"/>
       <use x="63.623047" xlink:href="#DejaVuSans-30"/>
      </g>
     </g>
    </g>
    <g id="text_33">
     <!-- Real Permittivity, Re($\epsilon$) -->
     <g transform="translate(8.314998 357.03733)rotate(-90)scale(0.1 -0.1)">
      <defs>
       <path d="M 2841 2188 
Q 3044 2119 3236 1894 
Q 3428 1669 3622 1275 
L 4263 0 
L 3584 0 
L 2988 1197 
Q 2756 1666 2539 1819 
Q 2322 1972 1947 1972 
L 1259 1972 
L 1259 0 
L 628 0 
L 628 4666 
L 2053 4666 
Q 2853 4666 3247 4331 
Q 3641 3997 3641 3322 
Q 3641 2881 3436 2590 
Q 3231 2300 2841 2188 
z
M 1259 4147 
L 1259 2491 
L 2053 2491 
Q 2509 2491 2742 2702 
Q 2975 2913 2975 3322 
Q 2975 3731 2742 3939 
Q 2509 4147 2053 4147 
L 1259 4147 
z
" id="DejaVuSans-52" transform="scale(0.015625)"/>
       <path d="M 603 4863 
L 1178 4863 
L 1178 0 
L 603 0 
L 603 4863 
z
" id="DejaVuSans-6c" transform="scale(0.015625)"/>
      </defs>
      <use transform="translate(0 0.015625)" xlink:href="#DejaVuSans-52"/>
      <use transform="translate(69.482422 0.015625)" xlink:href="#DejaVuSans-65"/>
      <use transform="translate(131.005859 0.015625)" xlink:href="#DejaVuSans-61"/>
      <use transform="translate(192.285156 0.015625)" xlink:href="#DejaVuSans-6c"/>
      <use transform="translate(220.068359 0.015625)" xlink:href="#DejaVuSans-20"/>
      <use transform="translate(251.855469 0.015625)" xlink:href="#DejaVuSans-50"/>
      <use transform="translate(312.158203 0.015625)" xlink:href="#DejaVuSans-65"/>
      <use transform="translate(373.681641 0.015625)" xlink:href="#DejaVuSans-72"/>
      <use transform="translate(414.794922 0.015625)" xlink:href="#DejaVuSans-6d"/>
      <use transform="translate(512.207031 0.015625)" xlink:href="#DejaVuSans-69"/>
      <use transform="translate(539.990234 0.015625)" xlink:href="#DejaVuSans-74"/>
      <use transform="translate(579.199219 0.015625)" xlink:href="#DejaVuSans-74"/>
      <use transform="translate(618.408203 0.015625)" xlink:href="#DejaVuSans-69"/>
      <use transform="translate(646.191406 0.015625)" xlink:href="#DejaVuSans-76"/>
      <use transform="translate(705.371094 0.015625)" xlink:href="#DejaVuSans-69"/>
      <use transform="translate(733.154297 0.015625)" xlink:href="#DejaVuSans-74"/>
      <use transform="translate(772.363281 0.015625)" xlink:href="#DejaVuSans-79"/>
      <use transform="translate(831.542969 0.015625)" xlink:href="#DejaVuSans-2c"/>
      <use transform="translate(863.330078 0.015625)" xlink:href="#DejaVuSans-20"/>
      <use transform="translate(895.117188 0.015625)" xlink:href="#DejaVuSans-52"/>
      <use transform="translate(964.599609 0.015625)" xlink:href="#DejaVuSans-65"/>
      <use transform="translate(1026.123047 0.015625)" xlink:href="#DejaVuSans-28"/>
      <use transform="translate(1065.136719 0.015625)" xlink:href="#DejaVuSans-Oblique-3b5"/>
      <use transform="translate(1119.189453 0.015625)" xlink:href="#DejaVuSans-29"/>
     </g>
    </g>
   </g>
   <g id="line2d_36">
    <path clip-path="url(#p60ef2185f6)" d="M 42.519685 262.607373 
L 306.141732 262.607373 
" style="fill:none;stroke:#000000;stroke-dasharray:5.55,2.4;stroke-dashoffset:0;stroke-width:1.5;"/>
   </g>
   <g id="line2d_37">
    <path clip-path="url(#p60ef2185f6)" d="M 69.726595 426.19685 
L 72.937614 410.615181 
L 78.007268 390.751185 
L 83.076923 374.482443 
L 88.146578 360.991442 
L 93.216233 349.680358 
L 98.285887 340.103871 
L 103.355542 331.924779 
L 108.425197 324.883973 
L 113.494852 318.779709 
L 118.564506 313.453018 
L 123.634161 308.777274 
L 128.703816 304.650607 
L 133.773471 300.990317 
L 138.843125 297.728704 
L 143.91278 294.809917 
L 148.982435 292.187551 
L 154.05209 289.822796 
L 159.121744 287.682987 
L 164.191399 285.740478 
L 169.261054 283.971743 
L 174.330709 282.356659 
L 179.400363 280.877934 
L 184.470018 279.520641 
L 189.539673 278.271841 
L 194.609328 277.120273 
L 199.678982 276.056101 
L 204.748637 275.0707 
L 209.818292 274.156484 
L 214.887947 273.30676 
L 219.957601 272.515601 
L 225.027256 271.777748 
L 230.096911 271.088516 
L 235.166566 270.443728 
L 240.23622 269.839642 
L 245.305875 269.272904 
L 250.37553 268.740497 
L 255.445185 268.239704 
L 260.514839 267.76807 
L 265.584494 267.323376 
L 270.654149 266.903608 
L 275.723804 266.506937 
L 280.793459 266.1317 
L 285.863113 265.77638 
L 290.932768 265.439592 
L 296.002423 265.120069 
L 301.072078 264.816651 
" style="fill:none;stroke:#a42828;stroke-dasharray:7.4,3.2;stroke-dashoffset:0;stroke-width:2;"/>
   </g>
   <g id="line2d_38">
    <path clip-path="url(#p60ef2185f6)" d="M 42.519685 256.866184 
L 47.58934 256.804324 
L 52.658995 256.733909 
L 57.728649 256.654483 
L 62.798304 256.565525 
L 67.867959 256.466444 
L 72.937614 256.35658 
L 78.007268 256.235193 
L 83.076923 256.101465 
L 88.146578 255.954498 
L 93.216233 255.793319 
L 98.285887 255.616884 
L 103.355542 255.424105 
L 108.425197 255.213875 
L 113.494852 254.985128 
L 118.564506 254.736929 
L 123.634161 254.468611 
L 128.703816 254.179996 
L 133.773471 253.871719 
L 138.843125 253.545715 
L 143.91278 253.205933 
L 148.982435 252.859346 
L 154.05209 252.51734 
L 159.121744 252.197513 
L 164.191399 251.925786 
L 169.261054 251.738414 
L 174.330709 251.682961 
L 179.400363 251.816486 
L 184.470018 252.198627 
L 189.539673 252.877814 
L 194.609328 253.872001 
L 199.678982 255.151034 
L 204.748637 256.631935 
L 209.818292 258.194614 
L 214.887947 259.713022 
L 219.957601 261.086008 
L 225.027256 262.253803 
L 230.096911 263.197387 
L 235.166566 263.927369 
L 240.23622 264.470663 
L 245.305875 264.85992 
L 250.37553 265.127014 
L 255.445185 265.299892 
L 260.514839 265.401577 
L 265.584494 265.450319 
L 270.654149 265.460233 
L 275.723804 265.442062 
L 280.793459 265.403897 
L 285.863113 265.351788 
L 290.932768 265.290235 
L 296.002423 265.222572 
L 301.072078 265.151257 
" style="fill:none;stroke:#a4a428;stroke-dasharray:7.4,3.2;stroke-dashoffset:0;stroke-width:2;"/>
   </g>
   <g id="line2d_39">
    <path clip-path="url(#p60ef2185f6)" d="M 42.519685 256.456519 
L 47.58934 256.257482 
L 52.658995 256.022552 
L 57.728649 255.746468 
L 62.798304 255.422735 
L 67.867959 255.043358 
L 72.937614 254.59854 
L 78.007268 254.076367 
L 83.076923 253.46257 
L 88.146578 252.740555 
L 93.216233 251.892119 
L 98.285887 250.89973 
L 103.355542 249.752099 
L 108.425197 248.456115 
L 113.494852 247.059658 
L 118.564506 245.688646 
L 123.634161 244.589902 
L 128.703816 244.137421 
L 133.773471 244.720374 
L 138.843125 246.489814 
L 143.91278 249.164556 
L 148.982435 252.16347 
L 154.05209 254.953416 
L 159.121744 257.256576 
L 164.191399 259.024671 
L 169.261054 260.327199 
L 174.330709 261.266134 
L 179.400363 261.935821 
L 184.470018 262.411034 
L 189.539673 262.747144 
L 194.609328 262.983907 
L 199.678982 263.149525 
L 204.748637 263.263955 
L 209.818292 263.341361 
L 214.887947 263.391857 
L 219.957601 263.422716 
L 225.027256 263.439205 
L 230.096911 263.44517 
L 235.166566 263.443439 
L 240.23622 263.436103 
L 245.305875 263.42472 
L 250.37553 263.410452 
L 255.445185 263.394175 
L 260.514839 263.376545 
L 265.584494 263.358059 
L 270.654149 263.339089 
L 275.723804 263.319919 
L 280.793459 263.300758 
L 285.863113 263.281764 
L 290.932768 263.263053 
L 296.002423 263.24471 
L 301.072078 263.226795 
" style="fill:none;stroke:#28a428;stroke-dasharray:7.4,3.2;stroke-dashoffset:0;stroke-width:2;"/>
   </g>
   <g id="line2d_40">
    <path clip-path="url(#p60ef2185f6)" d="M 42.519685 257.915016 
L 47.58934 257.913246 
L 52.658995 257.911307 
L 57.728649 257.909213 
L 62.798304 257.906979 
L 67.867959 257.904622 
L 72.937614 257.902161 
L 78.007268 257.899617 
L 83.076923 257.897013 
L 88.146578 257.894372 
L 93.216233 257.891723 
L 98.285887 257.889094 
L 103.355542 257.886518 
L 108.425197 257.884028 
L 113.494852 257.881661 
L 118.564506 257.879457 
L 123.634161 257.877459 
L 128.703816 257.875713 
L 133.773471 257.874267 
L 138.843125 257.873174 
L 143.91278 257.87249 
L 148.982435 257.872275 
L 154.05209 257.872593 
L 159.121744 257.873511 
L 164.191399 257.875101 
L 169.261054 257.877439 
L 174.330709 257.880607 
L 179.400363 257.88469 
L 184.470018 257.889777 
L 189.539673 257.895963 
L 194.609328 257.903349 
L 199.678982 257.912039 
L 204.748637 257.922142 
L 209.818292 257.933772 
L 214.887947 257.947048 
L 219.957601 257.962093 
L 225.027256 257.979036 
L 230.096911 257.998007 
L 235.166566 258.019141 
L 240.23622 258.042577 
L 245.305875 258.068455 
L 250.37553 258.096917 
L 255.445185 258.128107 
L 260.514839 258.162167 
L 265.584494 258.199239 
L 270.654149 258.239463 
L 275.723804 258.282976 
L 280.793459 258.329907 
L 285.863113 258.380381 
L 290.932768 258.434514 
L 296.002423 258.492411 
L 301.072078 258.554165 
" style="fill:none;stroke:#28a4a4;stroke-dasharray:7.4,3.2;stroke-dashoffset:0;stroke-width:2;"/>
   </g>
   <g id="line2d_41">
    <path clip-path="url(#p60ef2185f6)" d="M 42.519685 261.928583 
L 47.58934 261.928357 
L 52.658995 261.928104 
L 57.728649 261.927825 
L 62.798304 261.927518 
L 67.867959 261.927185 
L 72.937614 261.926825 
L 78.007268 261.926437 
L 83.076923 261.926023 
L 88.146578 261.925581 
L 93.216233 261.925111 
L 98.285887 261.924615 
L 103.355542 261.92409 
L 108.425197 261.923538 
L 113.494852 261.922959 
L 118.564506 261.922351 
L 123.634161 261.921715 
L 128.703816 261.921051 
L 133.773471 261.920358 
L 138.843125 261.919637 
L 143.91278 261.918888 
L 148.982435 261.918109 
L 154.05209 261.917302 
L 159.121744 261.916465 
L 164.191399 261.915599 
L 169.261054 261.914703 
L 174.330709 261.913777 
L 179.400363 261.912822 
L 184.470018 261.911836 
L 189.539673 261.910819 
L 194.609328 261.909772 
L 199.678982 261.908694 
L 204.748637 261.907585 
L 209.818292 261.906444 
L 214.887947 261.905272 
L 219.957601 261.904067 
L 225.027256 261.902831 
L 230.096911 261.901561 
L 235.166566 261.900259 
L 240.23622 261.898924 
L 245.305875 261.897555 
L 250.37553 261.896152 
L 255.445185 261.894715 
L 260.514839 261.893243 
L 265.584494 261.891737 
L 270.654149 261.890195 
L 275.723804 261.888618 
L 280.793459 261.887004 
L 285.863113 261.885354 
L 290.932768 261.883667 
L 296.002423 261.881943 
L 301.072078 261.880182 
" style="fill:none;stroke:#2828a4;stroke-dasharray:7.4,3.2;stroke-dashoffset:0;stroke-width:2;"/>
   </g>
   <g id="line2d_42">
    <path clip-path="url(#p60ef2185f6)" d="M 66.244982 426.19685 
L 67.867959 416.128116 
L 72.937614 390.969795 
L 78.007268 370.459308 
L 83.076923 353.440021 
L 88.146578 339.076957 
L 93.216233 326.753139 
L 98.285887 316.004703 
L 103.355542 306.4821 
L 108.425197 297.932038 
L 113.494852 290.199623 
L 118.564506 283.25091 
L 123.634161 277.205469 
L 128.703816 272.335296 
L 133.773471 268.947544 
L 138.843125 267.127553 
L 143.91278 266.542293 
L 148.982435 266.57126 
L 154.05209 266.653954 
L 159.121744 266.497559 
L 164.191399 266.052143 
L 169.261054 265.400007 
L 174.330709 264.670647 
L 179.400363 263.99826 
L 184.470018 263.502423 
L 189.539673 263.27409 
L 194.609328 263.359811 
L 199.678982 263.747902 
L 204.748637 264.366824 
L 209.818292 265.103183 
L 214.887947 265.834467 
L 219.957601 266.460994 
L 225.027256 266.92313 
L 230.096911 267.201149 
L 235.166566 267.304444 
L 240.23622 267.258417 
L 245.305875 267.094061 
L 250.37553 266.84154 
L 255.445185 266.5271 
L 260.514839 266.17211 
L 265.584494 265.793238 
L 270.654149 265.403097 
L 275.723804 265.01102 
L 280.793459 264.623774 
L 285.863113 264.246175 
L 290.932768 263.88157 
L 296.002423 263.532214 
L 301.072078 263.199559 
" style="fill:none;stroke:#000000;stroke-linecap:square;stroke-width:2;"/>
   </g>
   <g id="patch_10">
    <path d="M 42.519685 372.047244 
L 42.519685 226.127416 
" style="fill:none;stroke:#000000;stroke-linecap:square;stroke-linejoin:miter;stroke-width:0.8;"/>
   </g>
   <g id="patch_11">
    <path d="M 306.141732 372.047244 
L 306.141732 226.127416 
" style="fill:none;stroke:#000000;stroke-linecap:square;stroke-linejoin:miter;stroke-width:0.8;"/>
   </g>
   <g id="patch_12">
    <path d="M 42.519685 372.047244 
L 306.141732 372.047244 
" style="fill:none;stroke:#000000;stroke-linecap:square;stroke-linejoin:miter;stroke-width:0.8;"/>
   </g>
   <g id="patch_13">
    <path d="M 42.519685 226.127416 
L 306.141732 226.127416 
" style="fill:none;stroke:#000000;stroke-linecap:square;stroke-linejoin:miter;stroke-width:0.8;"/>
   </g>
   <g id="legend_1">
    <g id="patch_14">
     <path d="M 233.862045 367.047244 
L 299.141732 367.047244 
Q 301.141732 367.047244 301.141732 365.047244 
L 301.141732 292.656619 
Q 301.141732 290.656619 299.141732 290.656619 
L 233.862045 290.656619 
Q 231.862045 290.656619 231.862045 292.656619 
L 231.862045 365.047244 
Q 231.862045 367.047244 233.862045 367.047244 
z
" style="fill:#ffffff;opacity:0.8;stroke:#cccccc;stroke-linejoin:miter;"/>
    </g>
    <g id="line2d_43">
     <path d="M 235.862045 298.755057 
L 255.862045 298.755057 
" style="fill:none;stroke:#a42828;stroke-dasharray:7.4,3.2;stroke-dashoffset:0;stroke-width:2;"/>
    </g>
    <g id="line2d_44"/>
    <g id="text_34">
     <!-- Drude -->
     <g transform="translate(263.862045 302.255057)scale(0.1 -0.1)">
      <defs>
       <path d="M 1259 4147 
L 1259 519 
L 2022 519 
Q 2988 519 3436 956 
Q 3884 1394 3884 2338 
Q 3884 3275 3436 3711 
Q 2988 4147 2022 4147 
L 1259 4147 
z
M 628 4666 
L 1925 4666 
Q 3281 4666 3915 4102 
Q 4550 3538 4550 2338 
Q 4550 1131 3912 565 
Q 3275 0 1925 0 
L 628 0 
L 628 4666 
z
" id="DejaVuSans-44" transform="scale(0.015625)"/>
       <path d="M 544 1381 
L 544 3500 
L 1119 3500 
L 1119 1403 
Q 1119 906 1312 657 
Q 1506 409 1894 409 
Q 2359 409 2629 706 
Q 2900 1003 2900 1516 
L 2900 3500 
L 3475 3500 
L 3475 0 
L 2900 0 
L 2900 538 
Q 2691 219 2414 64 
Q 2138 -91 1772 -91 
Q 1169 -91 856 284 
Q 544 659 544 1381 
z
M 1991 3584 
L 1991 3584 
z
" id="DejaVuSans-75" transform="scale(0.015625)"/>
       <path d="M 2906 2969 
L 2906 4863 
L 3481 4863 
L 3481 0 
L 2906 0 
L 2906 525 
Q 2725 213 2448 61 
Q 2172 -91 1784 -91 
Q 1150 -91 751 415 
Q 353 922 353 1747 
Q 353 2572 751 3078 
Q 1150 3584 1784 3584 
Q 2172 3584 2448 3432 
Q 2725 3281 2906 2969 
z
M 947 1747 
Q 947 1113 1208 752 
Q 1469 391 1925 391 
Q 2381 391 2643 752 
Q 2906 1113 2906 1747 
Q 2906 2381 2643 2742 
Q 2381 3103 1925 3103 
Q 1469 3103 1208 2742 
Q 947 2381 947 1747 
z
" id="DejaVuSans-64" transform="scale(0.015625)"/>
      </defs>
      <use xlink:href="#DejaVuSans-44"/>
      <use x="77.001953" xlink:href="#DejaVuSans-72"/>
      <use x="118.115234" xlink:href="#DejaVuSans-75"/>
      <use x="181.494141" xlink:href="#DejaVuSans-64"/>
      <use x="244.970703" xlink:href="#DejaVuSans-65"/>
     </g>
    </g>
    <g id="line2d_45">
     <path d="M 235.862045 313.433182 
L 255.862045 313.433182 
" style="fill:none;stroke:#a4a428;stroke-dasharray:7.4,3.2;stroke-dashoffset:0;stroke-width:2;"/>
    </g>
    <g id="line2d_46"/>
    <g id="text_35">
     <!-- Peak 1 -->
     <g transform="translate(263.862045 316.933182)scale(0.1 -0.1)">
      <defs>
       <path d="M 581 4863 
L 1159 4863 
L 1159 1991 
L 2875 3500 
L 3609 3500 
L 1753 1863 
L 3688 0 
L 2938 0 
L 1159 1709 
L 1159 0 
L 581 0 
L 581 4863 
z
" id="DejaVuSans-6b" transform="scale(0.015625)"/>
      </defs>
      <use xlink:href="#DejaVuSans-50"/>
      <use x="56.677734" xlink:href="#DejaVuSans-65"/>
      <use x="118.201172" xlink:href="#DejaVuSans-61"/>
      <use x="179.480469" xlink:href="#DejaVuSans-6b"/>
      <use x="237.390625" xlink:href="#DejaVuSans-20"/>
      <use x="269.177734" xlink:href="#DejaVuSans-31"/>
     </g>
    </g>
    <g id="line2d_47">
     <path d="M 235.862045 328.111307 
L 255.862045 328.111307 
" style="fill:none;stroke:#28a428;stroke-dasharray:7.4,3.2;stroke-dashoffset:0;stroke-width:2;"/>
    </g>
    <g id="line2d_48"/>
    <g id="text_36">
     <!-- Peak 2 -->
     <g transform="translate(263.862045 331.611307)scale(0.1 -0.1)">
      <use xlink:href="#DejaVuSans-50"/>
      <use x="56.677734" xlink:href="#DejaVuSans-65"/>
      <use x="118.201172" xlink:href="#DejaVuSans-61"/>
      <use x="179.480469" xlink:href="#DejaVuSans-6b"/>
      <use x="237.390625" xlink:href="#DejaVuSans-20"/>
      <use x="269.177734" xlink:href="#DejaVuSans-32"/>
     </g>
    </g>
    <g id="line2d_49">
     <path d="M 235.862045 342.789432 
L 255.862045 342.789432 
" style="fill:none;stroke:#28a4a4;stroke-dasharray:7.4,3.2;stroke-dashoffset:0;stroke-width:2;"/>
    </g>
    <g id="line2d_50"/>
    <g id="text_37">
     <!-- Peak 3 -->
     <g transform="translate(263.862045 346.289432)scale(0.1 -0.1)">
      <use xlink:href="#DejaVuSans-50"/>
      <use x="56.677734" xlink:href="#DejaVuSans-65"/>
      <use x="118.201172" xlink:href="#DejaVuSans-61"/>
      <use x="179.480469" xlink:href="#DejaVuSans-6b"/>
      <use x="237.390625" xlink:href="#DejaVuSans-20"/>
      <use x="269.177734" xlink:href="#DejaVuSans-33"/>
     </g>
    </g>
    <g id="line2d_51">
     <path d="M 235.862045 357.467557 
L 255.862045 357.467557 
" style="fill:none;stroke:#2828a4;stroke-dasharray:7.4,3.2;stroke-dashoffset:0;stroke-width:2;"/>
    </g>
    <g id="line2d_52"/>
    <g id="text_38">
     <!-- Peak 4 -->
     <g transform="translate(263.862045 360.967557)scale(0.1 -0.1)">
      <use xlink:href="#DejaVuSans-50"/>
      <use x="56.677734" xlink:href="#DejaVuSans-65"/>
      <use x="118.201172" xlink:href="#DejaVuSans-61"/>
      <use x="179.480469" xlink:href="#DejaVuSans-6b"/>
      <use x="237.390625" xlink:href="#DejaVuSans-20"/>
      <use x="269.177734" xlink:href="#DejaVuSans-34"/>
     </g>
    </g>
   </g>
  </g>
 </g>
 <defs>
  <clipPath id="p246794928a">
   <rect height="145.919828" width="263.622047" x="42.519685" y="51.023622"/>
  </clipPath>
  <clipPath id="p60ef2185f6">
   <rect height="145.919828" width="263.622047" x="42.519685" y="226.127416"/>
  </clipPath>
 </defs>
</svg>
